<svg width="117px" height="81px" viewBox="0 0 117 81" fill="none" xmlns="http://www.w3.org/2000/svg" transform="rotate(0) scale(1, 1)">
<g clip-path="url(#clip0_935_1327)">
<path d="M39.6699 77.6365C39.6699 75.9447 40.8917 74.6288 42.5836 74.6288C43.6175 74.6288 44.2754 75.0047 44.8394 75.5687L44.1814 76.3206C43.7115 75.8507 43.2415 75.5687 42.5836 75.5687C41.4557 75.5687 40.7038 76.5086 40.7038 77.6365C40.7038 78.7644 41.4557 79.7043 42.5836 79.7043C43.3355 79.7043 43.7115 79.4223 44.2754 78.9524L44.9334 79.6103C44.3694 80.2682 43.7115 80.6442 42.5836 80.6442C40.8917 80.6442 39.6699 79.3283 39.6699 77.6365Z" fill="#ffffff"/>
<path d="M48.881 74.7228H49.8209L52.3586 80.4562H51.3247L50.7608 79.0464H47.941L47.3771 80.4562H46.3432L48.881 74.7228ZM50.2908 78.2004L49.2569 75.9447L48.317 78.2004H50.2908Z" fill="#ffffff"/>
<path d="M53.7685 79.7043L54.3325 78.9524C54.8964 79.4223 55.4604 79.7043 56.1183 79.7043C56.7762 79.7043 57.1522 79.4223 57.1522 78.9524C57.1522 78.5764 56.9642 78.2944 55.8363 78.1065C54.6144 77.8245 53.9565 77.4485 53.9565 76.4146C53.9565 75.4747 54.8024 74.7228 55.9303 74.7228C56.7762 74.7228 57.4342 75.0048 57.9981 75.4747L57.4342 76.2266C56.9642 75.8507 56.4003 75.6627 55.8363 75.6627C55.2724 75.6627 54.8964 75.9447 54.8964 76.3206C54.8964 76.7906 55.1784 76.9786 56.3063 77.2605C57.5282 77.5425 58.1861 78.0125 58.1861 78.9524C58.1861 79.9863 57.3402 80.6442 56.1183 80.6442C55.2724 80.5502 54.4265 80.2682 53.7685 79.7043Z" fill="#ffffff"/>
<path d="M60.3479 74.8168H61.3818V80.5502H60.3479V74.8168Z" fill="#ffffff"/>
<path d="M63.8255 74.8168H64.7654L67.8671 78.7644V74.8168H68.901V80.5502H68.0551L64.8594 76.5086V80.5502H63.8255V74.8168Z" fill="#ffffff"/>
<path d="M70.8748 77.6365C70.8748 76.0386 72.0967 74.6288 73.8826 74.6288C75.6684 74.6288 76.8903 75.9447 76.8903 77.5425C76.8903 79.1403 75.6684 80.5502 73.8826 80.5502C72.0967 80.6442 70.8748 79.2343 70.8748 77.6365ZM75.8564 77.6365C75.8564 76.5086 75.0105 75.5687 73.8826 75.5687C72.7547 75.5687 71.9088 76.5086 71.9088 77.6365C71.9088 78.7644 72.7547 79.7043 73.8826 79.7043C75.1044 79.7043 75.8564 78.7644 75.8564 77.6365Z" fill="#ffffff"/>
<path d="M114.205 62.5979C115.427 61.752 116.178 60.3422 115.99 59.1203C115.145 55.5486 110.257 56.2066 107.061 57.9924C104.618 59.3083 103.302 61.3761 102.362 64.2898C102.174 64.8537 102.08 65.3237 102.08 65.7936C100.764 66.7335 98.4142 67.9554 97.3803 68.3314C96.1584 68.7074 94.8425 68.8953 93.9966 68.4254C93.4327 67.9554 92.3988 67.2035 93.2447 64.2898C95.4065 64.3838 98.8842 64.1958 101.14 62.504C102.362 61.658 103.114 60.2482 102.926 59.0263C102.08 55.4546 97.1923 56.1126 93.9966 57.8984C91.5529 59.2143 90.237 61.2821 89.2971 64.1958C89.0151 64.9477 89.0151 65.6996 89.1091 66.3576C87.2293 67.6735 85.7254 68.7074 84.8795 68.5194C82.7177 67.6735 84.6915 64.4778 82.8117 63.7258C84.5035 63.8198 86.8533 63.1619 88.3572 62.034C91.0829 59.9662 90.425 56.2066 86.5713 56.3945C83.2817 56.5825 81.2139 59.4023 79.71 61.3761C81.5898 57.4284 85.0675 50.2851 85.0675 50.2851L86.4773 47.4654C86.8533 46.6195 87.6052 45.3036 87.9812 44.9276C89.0151 43.7998 90.143 43.9877 90.237 45.1156C90.237 46.6195 89.1091 47.9354 87.8872 49.1572C87.6992 49.3452 87.0413 49.9092 87.0413 49.9092C86.9473 49.9092 86.9473 50.0032 86.9473 50.0971C86.9473 50.1911 87.0413 50.1911 87.0413 50.1911H87.1353C87.1353 50.1911 91.6468 47.3714 91.8348 45.3036C92.3048 42.4839 86.1014 40.0401 81.6838 49.8152C81.5898 50.0032 80.4619 52.5409 79.898 53.7628C77.3602 59.4023 74.7285 64.8537 72.6607 69.4593H76.0443C77.1722 66.9215 79.1461 63.7258 81.1199 61.0941C82.4357 59.3083 85.7254 57.3345 86.4773 58.1804C87.0413 58.7443 86.8533 59.4962 86.3834 60.3422C85.3495 62.222 82.0598 63.1619 79.992 62.9739C81.4018 63.9138 80.18 68.1434 81.5898 69.2713C82.5297 69.9292 83.4696 70.0232 84.4095 69.7413C86.6653 69.0833 88.5451 67.6735 89.3911 66.8275C89.579 67.3915 89.861 67.8614 90.143 68.2374C92.0228 70.3052 94.6546 70.2112 97.8503 68.8953C98.9781 68.4254 101.046 67.2975 102.268 66.2636C102.362 67.0155 102.738 67.6735 103.208 68.2374C105.088 70.3052 107.719 70.2112 110.915 68.8013C112.231 68.2374 113.829 67.2975 114.769 66.1696C115.145 65.7936 114.863 65.4177 114.487 65.6997C113.265 66.6396 111.761 67.5795 110.539 67.9554C109.317 68.3314 108.001 68.5194 107.155 68.0494C106.591 67.5795 105.558 66.8275 106.403 63.9138C108.471 64.4778 111.949 64.1958 114.205 62.5979ZM111.291 58.2744C112.607 57.8044 114.863 59.4023 110.915 62.316C109.505 63.3499 107.907 63.6318 106.497 63.4439C107.625 61.0001 109.505 58.9323 111.291 58.2744ZM98.2262 58.2744C99.5421 57.8044 101.798 59.4023 97.8503 62.316C96.4404 63.3499 94.8425 63.6318 93.4327 63.4439C94.5606 61.0001 96.3464 58.9323 98.2262 58.2744Z" fill="#ffffff"/>
<path d="M73.6006 57.8984C71.9087 56.2065 68.807 56.4885 65.8933 57.8984C62.6976 59.5902 60.7238 62.8799 60.2539 65.8876C60.1599 67.0155 60.6298 68.4254 61.4757 69.0833C63.2616 70.5872 65.7053 70.5872 68.5251 69.4593C71.5328 68.1434 73.8826 65.3237 74.4465 62.316C74.8225 60.4361 74.6345 58.9323 73.6006 57.8984ZM69.7469 64.7597C68.0551 67.5795 65.7993 69.2713 64.6714 68.6133C63.5435 67.9554 64.0135 65.1357 65.7053 62.316C67.3972 59.4962 69.653 57.8044 70.7808 58.4623C71.9087 59.1203 71.4388 61.94 69.7469 64.7597Z" fill="#ffffff"/>
<path d="M61.0998 60.6241C61.9457 59.4962 63.1676 57.8044 64.1075 56.4885C62.2277 56.5825 59.5959 58.0864 58.3741 59.1203C57.3402 59.9662 56.4942 61.0941 55.8363 61.846C56.6822 60.3422 57.7161 58.6503 58.3741 57.2405H54.7084C53.3925 59.9662 51.7947 63.0679 50.2908 65.9816C50.2908 65.9816 50.1968 65.9816 50.1968 66.0756C48.975 67.0155 47.4711 67.9554 46.2492 68.3314C45.0273 68.7073 43.7115 68.8953 42.8655 68.4254C42.3016 67.9554 41.2677 67.2035 42.1136 64.2898C44.2754 64.3838 47.7531 64.1958 50.0089 62.5039C51.2307 61.658 51.9827 60.2482 51.7947 59.0263C50.9488 55.4546 46.0612 56.1126 42.8655 57.8984C40.4218 59.2143 39.1059 61.2821 38.166 64.1958C37.79 65.2297 37.884 66.1696 38.072 67.0155C37.1321 67.5795 36.0982 68.2374 35.4403 68.4254C34.3124 68.8013 34.4064 67.3915 34.6883 66.7335C35.6282 64.3838 38.26 61.0941 38.542 58.8383C38.6359 58.0864 38.26 56.7705 37.2261 56.4885C33.5604 55.5486 28.5789 63.2559 28.4849 63.1619C31.2107 57.8044 34.1244 51.695 36.7561 46.0555C37.1321 45.3036 37.5081 44.3637 38.166 43.8937C39.1999 42.9538 40.2338 43.0478 40.3278 44.0817C40.4218 45.3976 39.3879 46.5255 38.166 47.6534C37.978 47.8414 37.3201 48.3113 37.3201 48.3113C37.2261 48.3113 37.2261 48.4053 37.2261 48.4993L37.3201 48.5933H37.4141C37.4141 48.5933 41.6437 46.0555 41.7377 44.2697C42.2076 41.7319 36.1922 39.5702 32.1506 48.2173C29.3308 54.2327 26.4171 60.4361 23.1274 66.3576C21.0596 67.8614 18.3339 68.9893 15.7961 69.0833C11.6605 69.1773 8.18288 67.1095 6.49104 63.5378C4.51723 58.8383 6.11508 54.1388 8.65283 48.7813C11.0966 43.7998 16.6421 39.4762 21.9995 40.792C24.0674 41.262 25.5712 41.9199 26.5111 43.9877C27.357 46.1495 26.4171 53.9508 18.8978 54.7967C16.2661 55.0787 14.0103 54.6087 12.5065 53.0109C12.1305 52.6349 11.8485 53.1049 12.2245 53.4808C15.3262 56.5825 21.0596 57.5224 25.4772 54.7027C28.2969 52.9169 30.2708 50.0032 29.8008 46.4315C29.0489 39.3822 20.4957 37.9723 15.2322 39.8521C8.46485 42.2959 2.54342 48.3113 1.03956 55.3606C0.00566408 59.6842 0.757592 63.5378 3.48333 66.7335C7.24297 70.9631 14.9502 71.5271 19.5558 69.3653C20.6837 68.8013 21.6236 68.2374 22.2815 67.6734C21.9056 68.3314 21.5296 68.8953 21.2476 69.5533H25.3832C26.9811 66.4516 29.0489 63.3499 32.7145 59.9662C34.6883 58.1804 35.0643 58.7443 34.4064 60.0602C33.6544 61.47 31.8686 64.2898 31.0227 66.2636C30.5527 67.2975 30.0828 69.9292 32.4325 69.9292C34.9703 69.7413 37.0381 68.6134 38.354 67.5795C38.542 67.8614 38.6359 68.1434 38.8239 68.3314C40.7037 70.3992 43.3355 70.3052 46.5312 68.8953C47.5651 68.4254 48.693 67.8614 49.6329 67.0155C49.2569 67.8614 48.787 68.6134 48.411 69.3653H51.8887C52.9226 67.5795 54.0505 64.9477 55.2723 63.4439C56.7762 62.034 58.938 60.5301 61.0998 60.6241ZM47.1891 58.2744C48.505 57.8044 50.7608 59.4022 46.8132 62.316C45.4033 63.3499 43.7115 63.6318 42.3956 63.4439C43.4295 61.0001 45.3093 58.9323 47.1891 58.2744Z" fill="#ffffff"/>
<path d="M60.8178 0C47.9411 0 37.6021 10.527 37.6021 23.4037C37.6021 36.2805 47.9411 46.8075 60.8178 46.8075C73.6946 46.8075 83.9396 36.3745 83.9396 23.4037C83.9396 10.433 73.6006 0 60.8178 0ZM60.8178 4.60556C71.0628 4.60556 79.428 12.9708 79.428 23.2158C79.428 33.4608 71.0628 41.826 60.8178 41.826C50.5728 41.826 42.2076 33.4608 42.2076 23.2158C42.1136 12.9708 50.4788 4.60556 60.8178 4.60556ZM68.4311 4.1356L68.901 2.91372C71.7208 4.04161 74.1645 5.73345 76.3263 7.80125L75.3864 8.74116L74.5405 9.58708C72.6607 7.70726 70.4989 6.2034 67.9611 5.26349L68.4311 4.1356ZM60.8178 1.31587V3.85363C58.2801 3.85363 55.8363 4.32358 53.5805 5.26349L53.1106 4.1356L52.6406 2.91372C55.1784 1.87982 57.9041 1.31587 60.8178 1.31587ZM45.2153 7.89524L47.0011 9.68107C45.1213 11.5609 43.7115 13.8167 42.7716 16.2604L40.4218 15.3205C41.5497 12.5008 43.1475 9.96304 45.2153 7.89524ZM41.4557 23.4977C41.4557 26.1295 42.0196 28.3853 42.9595 30.641L41.6437 31.205L40.4218 31.6749C39.3879 29.1372 38.8239 26.4115 38.8239 23.4977H41.4557C41.4557 23.5917 41.4557 23.4037 41.4557 23.4977ZM45.3093 39.1002L46.2492 38.1603L47.3771 37.0324C49.2569 38.8183 51.4187 40.2281 53.7685 41.168L52.6406 43.9878C49.9149 42.8599 47.3771 41.168 45.3093 39.1002ZM60.8178 45.4916V42.4839C63.2616 42.4839 65.6114 42.014 67.7731 41.168L68.4311 42.7659L68.901 43.9878C66.3633 44.9277 63.6375 45.4916 60.8178 45.4916ZM76.2323 39.1002L75.2924 38.1603L74.1645 37.0324C76.0443 35.2466 77.5482 33.0848 78.5821 30.641L81.1199 31.6749C79.992 34.4947 78.3001 37.0324 76.2323 39.1002ZM81.3078 23.4977H79.992V23.2158C79.992 20.772 79.522 18.4222 78.6761 16.2604L79.804 15.7905L81.0259 15.3205C82.0598 17.8583 82.5297 20.584 82.5297 23.4037V23.4977H81.3078Z" fill="#ffffff"/>
<path d="M60.9118 22.9338L67.3032 17.2943L67.4911 8.92914H67.3972L60.9118 22.9338Z" fill="#ffffff"/>
<path d="M54.4264 8.74115L61.0058 14.3806L60.9118 22.9338V22.8398L54.4264 8.74115Z" fill="#ffffff"/>
<path d="M68.901 24.5316L61.0058 22.8398L76.2323 19.7381L68.901 24.5316Z" fill="#ffffff"/>
<path d="M60.9118 22.8398L54.5204 17.3883L45.7792 19.7381L60.9118 22.8398Z" fill="#ffffff"/>
<path d="M60.9118 22.8398L53.2045 24.3436L49.3509 32.6148L60.9118 22.8398Z" fill="#ffffff"/>
<path d="M64.2954 29.9831L60.9118 22.8398L73.3186 32.9908L64.2954 29.9831Z" fill="#ffffff"/>
<path d="M60.9118 22.8398L57.5281 30.1711L60.9118 38.6303H61.0058L60.9118 22.8398Z" fill="#ffffff"/>
<path d="M76.2323 19.7381L67.3032 17.2943L67.4911 8.92913L61.0058 14.3806L54.4264 8.74115L54.5204 17.3883L45.7792 19.7381L53.2045 24.3436L49.3509 32.6149L57.5281 30.1711L60.9118 38.6303L64.2955 29.9831L73.3186 32.9908L68.901 24.5316L76.2323 19.7381Z" stroke="#ffffff" stroke-width="0.5" stroke-miterlimit="12"/>
</g>
<defs>
<clipPath id="clip0_935_1327">
<rect width="115.421" height="80.6442" fill="#ffffff" transform="translate(0.597778)"/>
</clipPath>
</defs>
</svg>