<?xml version="1.0" encoding="utf-8"?>
<!-- Generator: Adobe Illustrator 19.2.1, SVG Export Plug-In . SVG Version: 6.00 Build 0)  -->
<svg preserveAspectRatio="none slice" version="1.1" id="Layer_1" xmlns="http://www.w3.org/2000/svg" xmlns:xlink="http://www.w3.org/1999/xlink" x="0px" y="0px"
	 viewBox="0 0 380 256.6" style="enable-background:new 0 0 380 256.6;" xml:space="preserve">
<style type="text/css">
	.st0{fill:#FFFFFF;}
</style>
<g>
	<path class="st0" d="M82.9,131.2l3.7-3.8c4.3-4.4,10.4-7,16.8-7c7.7,0,13.6,2.8,17.7,8.4l1.5,2.1l1.8-1.8
		c5.8-6.1,11.9-8.6,20.4-8.6c6.7,0,12.8,2.2,16.5,5.9c5,5,7.4,11.2,7.4,19.3v44.7h-14v-42.2c0-11.4-7.7-15.5-14.2-15.5
		c-7.2,0-14.4,4.7-14.4,15.1v42.6h-14v-42.2c0-11.4-7.7-15.5-14.2-15.5c-6.6,0-14.4,4.1-14.4,15.5v42.2h-14v-68.8l6.9,0
		c4.1,0,6.7,2.5,6.7,6.6L82.9,131.2z"/>
</g>
<path class="st0" d="M262.8,191.2c11.7,0,18.3-5.2,21.3-8.3c5.7-6,7.7-13,7.7-27.1c0-14-2-21-7.7-27c-2.9-3.1-9.6-8.4-21.3-8.4
	c-11,0-17.5,4.5-21.1,8.3c-5.7,6-7.7,13-7.7,27c0,14.1,2,21.2,7.7,27.1C245.3,186.7,251.9,191.2,262.8,191.2z M252.9,136.5
	c2.6-2.6,5.9-3.9,10-3.9c4.1,0,7.5,1.3,10.1,3.9c4.5,4.5,4.9,11.7,4.9,19.3c0,7.7-0.4,14.9-4.9,19.4c-2.6,2.6-6,3.9-10.1,3.9
	c-4.1,0-7.4-1.3-10-3.9c-4.5-4.5-4.8-11.7-4.8-19.4C248,148.2,248.4,141,252.9,136.5z"/>
<g>
	<g>
		<path class="st0" d="M372.5,73.2c-1.5,4.1-2.9,8.2-4.6,12.3c-0.8,2-1.8,4-2.8,6c-0.5,1-1.1,1.9-1.8,2.8c-0.3,0.5-0.7,0.9-1.1,1.3
			c-0.2,0.2-0.4,0.4-0.7,0.6c-0.3,0.1-0.6,0.5-1.4,0.2c-0.1,0-0.1,0-0.2-0.1c-0.1-0.1-0.3-0.3-0.3-0.4c-0.1-0.2-0.2-0.4-0.2-0.5
			c-0.1-0.3-0.1-0.6-0.1-0.9c0-0.6,0-1.2,0.1-1.7c0.1-1.1,0.3-2.2,0.6-3.3c0.5-2.1,1.1-4.2,1.7-6.3c1.2-4.2,2.5-8.4,3.9-12.5
			c1.4-4.1,2.9-8.2,4.7-12.2c0.9-2,1.9-4,2.9-5.9c0.5-1,1.1-1.9,1.8-2.8c0.3-0.5,0.7-0.9,1.1-1.4c0.2-0.2,0.4-0.4,0.8-0.6
			c0.1-0.1,0.3-0.2,0.6-0.3c0.3,0,0.4-0.2,1,0.1c0.1,0,0.1,0,0.2,0.1c0.1,0.1,0.3,0.3,0.4,0.4c0.1,0.2,0.2,0.4,0.2,0.6
			c0.1,0.4,0.1,0.7,0.2,1c0,0.6,0,1.2-0.1,1.7c-0.1,1.1-0.3,2.2-0.5,3.3c-0.5,2.2-1.1,4.3-1.8,6.4C375.5,65,374,69.1,372.5,73.2z
			 M372.3,73.1c1.5-4.1,2.7-8.3,3.6-12.5c0.5-2.1,1-4.2,1.3-6.4c0.2-1.1,0.3-2.1,0.4-3.2c0-0.5,0.1-1,0-1.5c0-0.5-0.2-1-0.2-0.8
			c0.3,0.2,0.2,0,0.2,0.1c0,0-0.1,0-0.2,0.1c-0.1,0.1-0.3,0.3-0.5,0.4c-0.3,0.4-0.6,0.8-0.9,1.2c-0.6,0.9-1.2,1.8-1.7,2.7
			c-1.1,1.9-2.1,3.8-3,5.7c-1.9,3.9-3.6,7.9-5.2,11.9c-1.6,4-3.1,8.1-4.2,12.4c-0.6,2.1-1,4.2-1.4,6.4c-0.2,1.1-0.3,2.1-0.4,3.2
			c0,0.5,0,1.1,0,1.5c0,0.5,0.2,1,0.3,0.9c-0.3-0.1,0,0,0.1-0.2c0.2-0.1,0.3-0.3,0.5-0.4c0.3-0.4,0.7-0.8,1-1.2
			c0.6-0.9,1.1-1.8,1.7-2.7c1.1-1.9,2.1-3.8,3.1-5.7C369,81.2,370.8,77.2,372.3,73.1z"/>
		<path class="st0" d="M317.9,72.9c7.7,3,15.3,6.2,22.8,9.7c3.8,1.7,7.4,3.7,11,5.8c1.8,1.1,3.5,2.2,5.2,3.5
			c0.8,0.6,1.7,1.3,2.4,2.1c0.4,0.4,0.7,0.8,1,1.3c0.3,0.5,0.7,1.1,0.3,2.1c-0.3,0.7-1.1,1-1.6,1.2c-0.6,0.1-1.1,0.2-1.7,0.2
			c-1.1,0-2.1-0.1-3.2-0.2c-2.1-0.3-4.1-0.7-6.1-1.2c-4-1-8-2.1-12-3.3c-7.9-2.5-15.7-5.2-23.4-8.1c-7.7-3-15.4-6.1-22.8-9.8
			c-3.7-1.8-7.4-3.8-11-5.9c-1.8-1.1-3.5-2.2-5.2-3.5c-0.8-0.6-1.7-1.3-2.4-2.1c-0.4-0.4-0.7-0.8-1.1-1.3c-0.3-0.5-0.7-1.2-0.3-2.2
			c0.4-0.8,1.2-1.1,1.7-1.2c0.6-0.2,1.1-0.2,1.7-0.2c1.1,0,2.2,0,3.2,0.2c2.1,0.2,4.1,0.6,6.2,1.1c4,0.9,8,2.1,12,3.4
			C302.5,66.9,310.3,69.9,317.9,72.9z M317.9,73.1c-7.7-3-15.5-5.7-23.5-7.9c-4-1.1-7.9-2.2-12-3c-2-0.4-4-0.8-6-1
			c-1-0.1-2-0.2-3-0.1c-0.9,0-2,0.3-2.1,0.6c0-0.1,0,0.4,0.3,0.7c0.2,0.4,0.5,0.7,0.9,1.1c0.7,0.7,1.5,1.3,2.3,1.9
			c1.6,1.2,3.3,2.3,5.1,3.4c3.5,2.1,7.1,4.1,10.8,6c7.4,3.7,14.9,7.2,22.5,10.3c7.6,3.2,15.4,6.1,23.3,8.4c3.9,1.2,7.9,2.2,12,3
			c2,0.4,4,0.7,6.1,0.9c1,0.1,2,0.1,3,0.1c0.9,0,2.1-0.3,2.2-0.8c0,0,0-0.5-0.3-0.8c-0.2-0.4-0.5-0.7-0.9-1.1
			c-0.7-0.7-1.5-1.3-2.3-1.9c-1.6-1.2-3.3-2.3-5.1-3.4c-3.5-2.2-7.1-4.1-10.7-6.1C333,79.6,325.5,76.2,317.9,73.1z"/>
		<path class="st0" d="M323.1,51.6c8.5-4,17.1-7.9,25.9-11.2c4.4-1.7,8.9-3.1,13.5-4.3c2.3-0.6,4.6-1.1,7-1.3
			c1.2-0.1,2.4-0.2,3.6-0.1c0.6,0,1.3,0.1,1.9,0.3c0.6,0.2,1.4,0.6,1.7,1.4c0.4,0.8,0.2,1.6-0.1,2.2c-0.2,0.6-0.6,1.2-1,1.7
			c-0.7,1-1.6,1.9-2.4,2.7c-1.7,1.6-3.6,3.1-5.5,4.5c-3.8,2.7-7.8,5.2-11.9,7.7c-8.1,4.8-16.4,9.2-24.9,13.3
			c-8.5,4.1-17.1,7.9-26,11.2c-4.4,1.6-8.9,3.1-13.5,4.2c-2.3,0.6-4.6,1.1-7,1.3c-1.2,0.1-2.4,0.2-3.7,0.1c-0.6,0-1.3-0.1-1.9-0.4
			c-0.6-0.2-1.4-0.6-1.8-1.4c-0.4-0.8-0.2-1.7,0-2.3c0.3-0.7,0.6-1.2,1-1.7c0.7-1,1.6-1.9,2.4-2.7c1.7-1.7,3.6-3.1,5.5-4.5
			c3.8-2.8,7.8-5.3,11.9-7.6C306.1,59.8,314.5,55.6,323.1,51.6z M323.1,51.7c-8.5,4.1-16.8,8.5-24.7,13.6c-4,2.5-7.9,5.1-11.6,7.9
			c-1.8,1.4-3.7,2.9-5.3,4.5c-0.8,0.8-1.6,1.6-2.2,2.5c-0.6,0.8-1.1,2-0.8,2.5c0.2,0.5,1.4,0.9,2.4,0.9c1.1,0.1,2.2,0,3.4-0.1
			c2.3-0.3,4.6-0.8,6.8-1.3c4.5-1.1,9-2.5,13.4-4.1c8.8-3.1,17.5-6.6,26.1-10.6c8.5-3.9,16.9-8.2,25-13.1c4-2.4,7.9-5,11.6-7.9
			c1.8-1.4,3.7-2.9,5.3-4.5c0.8-0.8,1.6-1.7,2.2-2.6c0.6-0.9,1.1-2,0.8-2.6c-0.3-0.6-1.5-0.9-2.6-1c-1.1-0.1-2.3,0-3.4,0.2
			c-2.3,0.3-4.6,0.8-6.8,1.3c-4.5,1.1-9,2.5-13.5,4C340.4,44.2,331.6,47.7,323.1,51.7z"/>
		<path class="st0" d="M353.5,55.1c0.1,8.5,0,17-0.4,25.6c-0.2,4.3-0.6,8.5-1.2,12.8c-0.3,2.1-0.7,4.2-1.2,6.3c-0.3,1-0.6,2.1-1,3.1
			c-0.2,0.5-0.4,1-0.8,1.5c-0.4,0.5-0.7,1.1-1.8,1.2c-0.9-0.1-1.4-0.7-1.7-1.2c-0.3-0.5-0.6-1-0.8-1.5c-0.4-1-0.7-2.1-0.9-3.1
			c-0.5-2.1-0.9-4.2-1.2-6.3c-0.6-4.2-1-8.5-1.3-12.7c-0.6-8.5-1-17-1.2-25.5c-0.1-8.5-0.1-17.1,0.5-25.6c0.3-4.3,0.7-8.5,1.3-12.8
			c0.3-2.1,0.7-4.2,1.2-6.3c0.3-1.1,0.6-2.1,1-3.1c0.2-0.5,0.4-1,0.8-1.6c0.4-0.5,0.7-1.2,2-1.3c0.1,0,0.1,0,0.2,0
			c0.1,0,0.3,0.1,0.4,0.1c0.2,0.1,0.4,0.2,0.5,0.3c0.3,0.2,0.5,0.5,0.7,0.8c0.3,0.5,0.6,1,0.8,1.6c0.4,1,0.7,2.1,1,3.1
			c0.5,2.1,0.9,4.2,1.2,6.3c0.6,4.2,1,8.5,1.3,12.7C353.4,38,353.5,46.5,353.5,55.1z M353.4,55.1c-0.1-8.5-0.6-17-1.5-25.5
			c-0.5-4.2-1-8.4-1.7-12.6c-0.4-2.1-0.8-4.2-1.3-6.2c-0.3-1-0.6-2-0.9-2.9c-0.2-0.5-0.4-0.9-0.7-1.3c-0.3-0.4-0.5-0.6-0.7-0.6
			c0.1,0-0.3,0.2-0.5,0.6c-0.2,0.4-0.5,0.8-0.6,1.3c-0.4,0.9-0.6,1.9-0.9,2.9c-0.5,2-0.8,4.1-1.2,6.2c-0.6,4.2-1.1,8.4-1.4,12.6
			c-0.6,8.5-1,17-1.1,25.5c-0.1,8.5,0.1,17,0.9,25.5c0.4,4.2,0.9,8.5,1.6,12.6c0.4,2.1,0.8,4.2,1.4,6.2c0.3,1,0.6,2,1,2.9
			c0.4,0.9,1,2,1.5,1.9c0,0,0.4-0.2,0.6-0.6c0.3-0.4,0.5-0.8,0.6-1.3c0.4-0.9,0.7-2,0.9-3c0.5-2,0.8-4.1,1.2-6.2
			c0.7-4.2,1.1-8.4,1.5-12.6C353,72.1,353.4,63.6,353.4,55.1z"/>
		<path class="st0" d="M333.6,49.4c5,8,9.8,16,14.2,24.4c2.2,4.2,4.2,8.5,5.9,12.9c0.9,2.2,1.6,4.5,2.2,6.8c0.3,1.2,0.5,2.4,0.6,3.6
			c0,0.6,0,1.3-0.1,1.9c-0.2,0.6-0.4,1.4-1.2,1.9c-0.6,0.4-1.5,0.4-2.1,0.2c-0.7-0.2-1.2-0.4-1.8-0.7c-1.1-0.6-2-1.3-2.9-2.1
			c-1.8-1.5-3.5-3.2-5.1-5c-3.2-3.5-6.1-7.2-9-10.9c-5.7-7.5-11.1-15.2-16.2-23.1c-5.1-7.9-9.9-16-14.1-24.4
			c-2.1-4.2-4.1-8.5-5.8-12.9c-0.8-2.2-1.6-4.5-2.2-6.8c-0.3-1.2-0.5-2.4-0.6-3.6c0-0.6,0-1.3,0.1-2c0.2-0.7,0.4-1.4,1.3-2
			c0.7-0.4,1.6-0.4,2.3-0.2c0.7,0.2,1.3,0.4,1.8,0.7c1.1,0.6,2.1,1.3,3,2.1c1.9,1.5,3.5,3.2,5.2,4.9c3.2,3.5,6.2,7.1,9,10.9
			C323.5,33.5,328.6,41.4,333.6,49.4z M333.5,49.5c-5-7.9-10.5-15.6-16.4-22.9c-3-3.6-6-7.2-9.2-10.6c-1.6-1.7-3.3-3.3-5.1-4.7
			c-0.9-0.7-1.8-1.4-2.8-1.9c-0.9-0.5-2-0.9-2.6-0.5c-0.4,0.2-0.7,1.5-0.6,2.5c0.1,1.1,0.3,2.2,0.5,3.3c0.5,2.2,1.3,4.4,2.1,6.6
			c1.6,4.4,3.6,8.6,5.6,12.8c4.1,8.4,8.7,16.6,13.6,24.6c4.9,8,10.1,15.8,15.9,23.2c2.9,3.7,5.9,7.3,9.2,10.6
			c1.6,1.7,3.3,3.3,5.1,4.7c0.9,0.7,1.8,1.4,2.8,1.9c1,0.5,2.1,0.9,2.8,0.5c0.5-0.3,0.7-1.6,0.6-2.6c-0.1-1.1-0.3-2.2-0.6-3.4
			c-0.6-2.2-1.3-4.4-2.1-6.6c-1.6-4.4-3.6-8.6-5.5-12.9C343,65.7,338.4,57.5,333.5,49.5z"/>
		<path class="st0" d="M323.3,55c-2.2,8.9-4.5,17.8-7,26.7c-1.2,4.4-2.7,8.8-4.2,13.1c-0.8,2.2-1.6,4.3-2.6,6.4
			c-0.5,1.1-1,2.1-1.5,3.1c-0.3,0.5-0.6,1-1,1.5c-0.2,0.2-0.4,0.5-0.7,0.7c-0.3,0.2-0.5,0.6-1.4,0.4c0,0-0.1,0-0.3-0.2
			c-0.2-0.1-0.2-0.2-0.3-0.3c-0.1-0.2-0.2-0.4-0.3-0.5c-0.1-0.3-0.2-0.6-0.2-1c-0.1-0.6-0.1-1.2-0.1-1.8c0-1.2,0.1-2.3,0.2-3.5
			c0.2-2.3,0.6-4.6,0.9-6.9c0.8-4.5,1.6-9.1,2.5-13.6c1.9-9,3.8-18,6-26.9c2.2-8.9,4.5-17.8,7.1-26.6c1.3-4.4,2.8-8.8,4.3-13.1
			c0.8-2.2,1.6-4.3,2.6-6.4c0.5-1.1,1-2.1,1.5-3.2c0.3-0.5,0.6-1,1-1.5c0.2-0.3,0.4-0.5,0.7-0.8c0.3-0.2,0.5-0.7,1.6-0.5
			c0,0,0.1,0,0.4,0.2c0.2,0.2,0.2,0.2,0.3,0.3c0.1,0.2,0.2,0.4,0.3,0.6c0.1,0.4,0.2,0.7,0.2,1c0.1,0.6,0.1,1.2,0.1,1.8
			c0,1.2-0.1,2.3-0.2,3.5c-0.2,2.3-0.5,4.6-0.9,6.9c-0.7,4.5-1.6,9.1-2.6,13.6C327.8,37.2,325.6,46.1,323.3,55z M323.2,54.9
			c2.2-8.9,4.1-17.9,5.7-26.9c0.8-4.5,1.6-9,2.2-13.6c0.3-2.3,0.6-4.5,0.8-6.8c0.1-1.1,0.1-2.3,0.1-3.4c0-0.6,0-1.1-0.1-1.6
			c0-0.5-0.3-1.1-0.2-0.9c0.3,0.1,0.2,0,0.2,0c0,0-0.1,0.1-0.2,0.1c-0.1,0.1-0.3,0.3-0.5,0.5c-0.3,0.4-0.6,0.9-0.9,1.4
			c-0.5,1-1,2-1.5,3c-0.9,2.1-1.7,4.2-2.5,6.3c-1.6,4.3-3,8.6-4.4,13c-2.8,8.7-5.3,17.6-7.7,26.4c-2.4,8.9-4.5,17.8-6.3,26.8
			c-0.9,4.5-1.6,9-2.2,13.6c-0.3,2.3-0.5,4.5-0.7,6.8c-0.1,1.1-0.1,2.3-0.1,3.4c0,0.6,0.1,1.1,0.1,1.6c0,0.5,0.3,1.1,0.3,1
			c-0.3-0.1,0,0,0.1-0.2c0.2-0.1,0.3-0.3,0.5-0.6c0.3-0.4,0.6-0.9,0.9-1.4c0.5-1,1-2,1.5-3c0.9-2.1,1.7-4.2,2.5-6.4
			c1.6-4.3,3.1-8.6,4.5-13C318.3,72.7,320.9,63.8,323.2,54.9z"/>
		<path class="st0" d="M330.7,59.8c-5.9,7-11.9,14-18.1,20.8c-3.1,3.4-6.3,6.7-9.6,9.9c-1.6,1.6-3.4,3.2-5.1,4.6
			c-0.9,0.7-1.8,1.5-2.8,2.1c-0.5,0.3-1,0.7-1.5,0.9c-0.3,0.1-0.6,0.3-0.9,0.4c-0.3,0.1-0.8,0.3-1.4-0.2c-0.2-0.1-0.4-0.6-0.4-0.8
			c0-0.2,0-0.4,0-0.6c0.1-0.3,0.1-0.7,0.2-0.9c0.2-0.6,0.5-1.1,0.7-1.7c0.5-1.1,1.1-2.1,1.7-3c1.2-2,2.5-3.9,3.9-5.8
			c2.7-3.7,5.5-7.4,8.3-11c5.7-7.2,11.4-14.4,17.3-21.5c5.9-7.1,11.9-14,18.2-20.7c3.1-3.4,6.4-6.7,9.7-9.9c1.7-1.6,3.4-3.2,5.2-4.7
			c0.9-0.7,1.8-1.5,2.8-2.1c0.5-0.3,1-0.7,1.6-1c0.3-0.1,0.6-0.3,0.9-0.4c0.4,0,0.8-0.4,1.6,0.3c0,0,0.1,0.1,0.2,0.3
			c0.1,0.2,0.1,0.3,0.1,0.5c0,0.2,0,0.5,0,0.6c0,0.4-0.1,0.7-0.2,1c-0.2,0.6-0.4,1.1-0.7,1.7c-0.5,1.1-1.1,2.1-1.7,3.1
			c-1.2,2-2.5,3.9-3.8,5.8c-2.7,3.8-5.4,7.4-8.3,11C342.6,45.8,336.7,52.8,330.7,59.8z M330.6,59.7c5.9-7,11.6-14.2,17-21.7
			c2.7-3.7,5.4-7.4,7.9-11.2c1.3-1.9,2.5-3.8,3.7-5.8c0.6-1,1.1-2,1.6-3c0.2-0.5,0.5-1,0.6-1.5c0.2-0.4,0.2-1.1,0.2-0.9
			c0.2,0.2,0.2,0.1,0.2,0.1c0,0-0.1,0-0.2,0c-0.2,0.1-0.4,0.2-0.6,0.3c-0.5,0.2-0.9,0.5-1.4,0.9c-0.9,0.6-1.8,1.3-2.7,2.1
			c-1.7,1.5-3.4,3-5.1,4.6c-3.3,3.1-6.6,6.4-9.7,9.7c-6.3,6.6-12.6,13.4-18.6,20.3c-6,6.9-12,14-17.5,21.3c-2.8,3.7-5.5,7.4-8,11.2
			c-1.3,1.9-2.5,3.8-3.6,5.8c-0.6,1-1.1,2-1.6,3c-0.2,0.5-0.4,1-0.6,1.5c-0.1,0.3-0.1,0.5-0.2,0.7c0,0.1,0,0.2,0,0.3
			c0,0.1-0.1-0.1,0,0c-0.1-0.1,0,0,0.3-0.1c0.2-0.1,0.4-0.2,0.7-0.3c0.5-0.2,0.9-0.5,1.4-0.9c0.9-0.6,1.8-1.4,2.7-2.1
			c1.7-1.5,3.4-3,5.1-4.6c3.3-3.1,6.6-6.4,9.8-9.6C318.4,73.4,324.6,66.6,330.6,59.7z"/>
		<path class="st0" d="M318.6,68.9c-8.3-3.7-16.6-7.4-24.8-11.4c-4.1-2-8.1-4.1-12.1-6.3c-2-1.1-3.9-2.3-5.8-3.6
			c-0.9-0.6-1.9-1.3-2.8-2c-0.5-0.4-0.9-0.8-1.3-1.2c-0.2-0.2-0.4-0.5-0.6-0.8c-0.2-0.3-0.5-0.7-0.2-1.4c0.1-0.2,0.4-0.5,0.6-0.6
			c0.2-0.1,0.4-0.1,0.6-0.2c0.4-0.1,0.7-0.1,1,0c0.6,0,1.2,0.1,1.8,0.2c1.1,0.2,2.3,0.5,3.4,0.8c2.2,0.6,4.4,1.3,6.5,2
			c4.3,1.5,8.5,3.1,12.8,4.8c8.4,3.3,16.9,6.8,25.2,10.3c8.3,3.6,16.6,7.4,24.7,11.5c4,2,8.1,4.2,12,6.4c2,1.1,3.9,2.3,5.8,3.6
			c1,0.6,1.9,1.3,2.8,2c0.5,0.4,0.9,0.8,1.3,1.2c0.2,0.2,0.4,0.5,0.6,0.8c0.2,0.3,0.5,0.7,0.2,1.5c-0.1,0.2-0.5,0.6-0.7,0.7
			c-0.2,0.1-0.4,0.2-0.6,0.2c-0.4,0.1-0.7,0.1-1,0.1c-0.6,0-1.2-0.1-1.8-0.2c-1.2-0.2-2.3-0.5-3.4-0.7c-2.2-0.6-4.4-1.2-6.6-2
			c-4.3-1.5-8.6-3.1-12.8-4.8C335.2,76.4,326.9,72.7,318.6,68.9z M318.7,68.8c8.3,3.7,16.7,7,25.3,10.1c4.3,1.5,8.5,3,12.9,4.4
			c2.2,0.7,4.3,1.3,6.5,1.9c1.1,0.3,2.2,0.5,3.3,0.7c0.5,0.1,1.1,0.2,1.6,0.2c0.2,0,0.5,0,0.7,0c0.1,0,0.2,0,0.2-0.1
			c0.1-0.1-0.1,0.1-0.1,0.1c-0.1,0.2,0,0.1-0.1-0.1c-0.1-0.2-0.3-0.4-0.4-0.5c-0.3-0.4-0.8-0.7-1.2-1.1c-0.9-0.7-1.8-1.3-2.7-1.9
			c-1.9-1.2-3.8-2.4-5.7-3.5c-3.9-2.3-7.9-4.4-11.9-6.5c-8-4.2-16.2-8.2-24.4-12c-8.2-3.8-16.5-7.4-25-10.6
			c-4.2-1.6-8.5-3.1-12.8-4.4c-2.2-0.7-4.3-1.3-6.5-1.8c-1.1-0.3-2.2-0.5-3.3-0.7c-0.5-0.1-1.1-0.1-1.6-0.1c-0.3,0-0.5,0-0.7,0.1
			c-0.1,0-0.2,0-0.2,0.1c-0.1,0.1,0.1-0.1,0,0c0-0.1,0,0,0.1,0.2c0.1,0.2,0.3,0.4,0.5,0.6c0.4,0.4,0.8,0.7,1.2,1.1
			c0.9,0.7,1.8,1.3,2.7,1.9c1.9,1.2,3.8,2.4,5.8,3.6c3.9,2.3,7.9,4.5,11.9,6.6C302.3,61.1,310.4,65.1,318.7,68.8z"/>
		<path class="st0" d="M331.7,44c7.9,4.7,15.7,9.4,23.3,14.4c3.8,2.5,7.6,5.1,11.2,7.9c1.8,1.4,3.6,2.9,5.3,4.4
			c0.8,0.8,1.7,1.6,2.5,2.5c0.4,0.4,0.8,0.9,1.1,1.4c0.2,0.3,0.3,0.6,0.4,0.9c0.1,0.4,0.2,0.8-0.1,1.4c0,0-0.4,0.4-0.5,0.5
			c-0.2,0.1-0.4,0.2-0.6,0.2c-0.4,0.1-0.7,0-1,0c-0.6,0-1.2-0.2-1.8-0.3c-1.1-0.3-2.2-0.6-3.3-1c-2.2-0.8-4.3-1.7-6.4-2.6
			c-4.2-1.9-8.2-4-12.3-6.1c-8.1-4.2-16.1-8.6-24-13.2c-7.9-4.6-15.7-9.3-23.3-14.5c-3.8-2.6-7.5-5.2-11.2-8
			c-1.8-1.4-3.6-2.9-5.3-4.4c-0.9-0.8-1.7-1.6-2.5-2.5c-0.4-0.4-0.8-0.9-1.1-1.5c-0.2-0.3-0.3-0.6-0.4-0.9c-0.1-0.4-0.3-0.8,0.1-1.5
			c0,0,0.4-0.4,0.6-0.5c0.2-0.1,0.4-0.2,0.6-0.2c0.4-0.1,0.7-0.1,1,0c0.6,0,1.2,0.2,1.8,0.3c1.2,0.3,2.3,0.6,3.4,1
			c2.2,0.8,4.3,1.6,6.4,2.6c4.2,1.9,8.3,3.9,12.3,6.1C316,34.7,323.9,39.3,331.7,44z M331.6,44.2c-7.9-4.6-15.9-9-24.1-13
			c-4.1-2-8.2-3.9-12.4-5.7c-2.1-0.9-4.2-1.7-6.3-2.5c-1.1-0.4-2.1-0.7-3.2-0.9c-0.5-0.1-1.1-0.2-1.6-0.3c-0.5,0-1,0.1-0.9,0.1
			c0.1-0.2,0,0,0.1,0.1c0.1,0.2,0.2,0.4,0.3,0.6c0.3,0.4,0.6,0.8,1,1.3c0.7,0.8,1.5,1.6,2.4,2.4c1.7,1.5,3.4,2.9,5.2,4.4
			c3.6,2.8,7.2,5.5,11,8.1c7.5,5.2,15.1,10.2,22.9,14.9c7.8,4.8,15.7,9.3,23.8,13.4c4.1,2.1,8.2,4,12.4,5.8c2.1,0.9,4.2,1.7,6.4,2.4
			c1.1,0.4,2.2,0.7,3.2,0.9c0.5,0.1,1.1,0.2,1.6,0.2c0.5,0,1-0.1,1-0.2c-0.1,0.1,0-0.1-0.1-0.3c-0.1-0.2-0.2-0.4-0.3-0.6
			c-0.3-0.4-0.6-0.9-1-1.3c-0.7-0.8-1.5-1.6-2.4-2.4c-1.7-1.5-3.4-2.9-5.2-4.4c-3.5-2.8-7.2-5.5-10.9-8.2
			C347.1,53.9,339.5,48.9,331.6,44.2z"/>
		<path class="st0" d="M335.3,56.7c-1.7,9-3.5,18-5.5,26.9c-1,4.5-2.2,8.9-3.5,13.3c-0.7,2.2-1.4,4.4-2.3,6.5
			c-0.4,1.1-0.9,2.1-1.4,3.2c-0.3,0.5-0.6,1-0.9,1.5c-0.2,0.3-0.4,0.5-0.7,0.7c-0.3,0.2-0.6,0.6-1.4,0.5c0,0-0.5-0.3-0.6-0.4
			c-0.1-0.2-0.3-0.3-0.3-0.5c-0.1-0.3-0.2-0.6-0.3-0.9c-0.1-0.6-0.2-1.2-0.3-1.8c-0.1-1.2-0.1-2.3-0.1-3.5c0-2.3,0.2-4.6,0.4-6.9
			c0.4-4.6,1-9.1,1.6-13.6c1.3-9.1,2.7-18.1,4.3-27.1c1.6-9,3.4-18,5.6-26.9c1.1-4.5,2.3-8.9,3.6-13.3c0.7-2.2,1.4-4.4,2.3-6.5
			c0.4-1.1,0.9-2.1,1.4-3.2c0.3-0.5,0.6-1.1,0.9-1.6c0.2-0.3,0.4-0.5,0.7-0.8c0.3-0.2,0.6-0.6,1.5-0.5c0,0,0.6,0.3,0.7,0.4
			c0.2,0.2,0.3,0.4,0.4,0.5c0.2,0.3,0.2,0.7,0.3,1c0.1,0.6,0.2,1.2,0.3,1.8c0.1,1.2,0.1,2.3,0.1,3.5c0,2.3-0.2,4.6-0.4,6.9
			c-0.4,4.6-1,9.1-1.7,13.6C338.7,38.7,337,47.7,335.3,56.7z M335.1,56.6c1.7-9,3-18,4-27.1c0.5-4.5,1-9.1,1.2-13.6
			c0.1-2.3,0.3-4.5,0.3-6.8c0-1.1,0-2.3-0.1-3.4c0-0.5-0.1-1.1-0.2-1.6c-0.1-0.5-0.4-1-0.3-0.8c0.4,0.1,0.1,0,0,0.2
			c-0.1,0.1-0.3,0.3-0.4,0.5c-0.3,0.4-0.6,0.9-0.8,1.4c-0.5,1-0.9,2-1.3,3.1c-0.8,2.1-1.5,4.3-2.2,6.4c-1.4,4.3-2.6,8.7-3.7,13.1
			c-2.3,8.8-4.3,17.7-6.2,26.7c-1.8,9-3.5,18-4.6,27c-0.6,4.5-1,9.1-1.3,13.6c-0.1,2.3-0.2,4.6-0.2,6.8c0,1.1,0,2.3,0.2,3.4
			c0.1,0.5,0.1,1.1,0.3,1.6c0.1,0.5,0.4,1,0.5,0.9c-0.2,0,0,0,0.1-0.2c0.2-0.1,0.3-0.3,0.5-0.6c0.3-0.4,0.6-0.9,0.8-1.4
			c0.5-1,0.9-2,1.3-3.1c0.8-2.1,1.5-4.3,2.2-6.4c1.4-4.3,2.6-8.7,3.8-13.1C331.3,74.5,333.4,65.6,335.1,56.6z"/>
		<path class="st0" d="M351,32c5.2,6,10.4,12.1,15.3,18.4c2.5,3.2,4.8,6.4,6.9,9.8c1.1,1.7,2.1,3.4,3,5.3c0.4,0.9,0.8,1.9,1.2,2.9
			c0.2,0.5,0.3,1,0.3,1.6c0,0.5,0.1,1.2-0.6,2c-0.6,0.5-1.4,0.4-1.9,0.2c-0.6-0.1-1-0.4-1.5-0.6c-0.9-0.5-1.8-1-2.6-1.6
			c-1.7-1.2-3.2-2.4-4.7-3.7c-3-2.6-5.9-5.4-8.7-8.2c-5.6-5.6-11.1-11.4-16.5-17.4c-5.3-6-10.5-12.1-15.3-18.5
			c-2.4-3.2-4.7-6.5-6.9-9.9c-1.1-1.7-2.1-3.4-3-5.3c-0.4-0.9-0.9-1.9-1.2-2.9c-0.2-0.5-0.3-1-0.4-1.6c0-0.5-0.1-1.3,0.6-2.1
			c0.8-0.6,1.6-0.4,2.1-0.3c0.6,0.1,1.1,0.4,1.6,0.6c1,0.5,1.8,1,2.7,1.6c1.7,1.1,3.3,2.4,4.8,3.7c3,2.6,5.9,5.4,8.7,8.3
			C340.5,20,345.8,26,351,32z M350.9,32.1c-5.3-6-10.8-11.7-16.6-17.1c-2.9-2.7-5.9-5.4-8.9-7.9c-1.5-1.2-3.1-2.5-4.7-3.5
			c-0.8-0.5-1.6-1.1-2.5-1.5c-0.4-0.2-0.9-0.4-1.2-0.5c-0.4-0.1-0.7,0-0.7,0c0,0-0.1,0.3-0.1,0.7c0,0.4,0.2,0.9,0.3,1.3
			c0.3,0.9,0.7,1.8,1.1,2.6c0.9,1.8,1.9,3.5,2.9,5.1c2.1,3.4,4.3,6.6,6.7,9.9c4.7,6.4,9.6,12.7,14.8,18.8c5.1,6.1,10.5,12,16.2,17.5
			c2.9,2.8,5.8,5.5,8.9,7.9c1.6,1.2,3.1,2.4,4.8,3.5c0.8,0.5,1.7,1,2.5,1.4c0.8,0.4,1.9,0.7,2.2,0.4c0,0,0.2-0.4,0.1-0.8
			c0-0.4-0.2-0.9-0.3-1.3c-0.3-0.9-0.7-1.8-1.1-2.7c-0.9-1.8-1.9-3.5-2.9-5.2c-2.1-3.4-4.3-6.7-6.6-9.9
			C361.1,44.4,356.1,38.1,350.9,32.1z"/>
		<path class="st0" d="M357.2,68.8c-3.1,7.4-6.4,14.8-10,22c-1.8,3.6-3.8,7.1-6.1,10.5c-1.1,1.7-2.3,3.3-3.7,4.9
			c-0.7,0.8-1.4,1.5-2.3,2.2c-0.4,0.3-0.9,0.6-1.4,0.9c-0.6,0.2-1.2,0.4-2,0.1c-0.6-0.3-1.1-1-1.2-1.5c-0.2-0.6-0.3-1.1-0.3-1.6
			c-0.1-1.1,0-2.1,0.1-3.1c0.2-2,0.6-4,1-6c0.9-3.9,2.1-7.8,3.3-11.7c2.5-7.7,5.2-15.2,8.3-22.7c3-7.5,6.3-14.9,10.2-22
			c1.9-3.6,3.9-7.1,6.2-10.5c1.1-1.7,2.3-3.3,3.7-4.9c0.7-0.8,1.4-1.5,2.3-2.2c0.4-0.3,0.9-0.7,1.5-0.9c0.6-0.2,1.3-0.5,2.2-0.1
			c0.7,0.3,1.1,1,1.3,1.6c0.2,0.6,0.3,1.1,0.4,1.7c0.1,1.1,0.1,2.1,0,3.2c-0.2,2.1-0.5,4.1-1,6.1c-0.9,4-2,7.8-3.3,11.7
			C363.4,53.9,360.4,61.4,357.2,68.8z M357.1,68.7c3.1-7.4,5.8-15,8-22.8c1.1-3.9,2.1-7.8,2.9-11.7c0.4-2,0.7-3.9,0.8-5.9
			c0.1-1,0.1-2,0-2.9c-0.1-0.9-0.4-1.8-0.8-2c-0.2-0.1-1.2,0.2-1.8,0.8c-0.7,0.6-1.4,1.3-2,2c-1.3,1.5-2.5,3.1-3.6,4.7
			c-2.3,3.3-4.3,6.7-6.3,10.2c-3.9,7-7.4,14.2-10.7,21.6c-3.2,7.3-6.2,14.8-8.5,22.5c-1.2,3.9-2.2,7.7-2.9,11.7
			c-0.4,2-0.7,3.9-0.8,5.9c-0.1,1-0.1,2,0,2.9c0.1,0.9,0.4,1.9,0.9,2.1c0.3,0.2,1.3-0.3,2-0.9c0.7-0.6,1.4-1.3,2.1-2
			c1.3-1.5,2.5-3.1,3.6-4.7c2.3-3.3,4.3-6.7,6.4-10.2C350.3,83.4,353.9,76.1,357.1,68.7z"/>
		<path class="st0" d="M302.3,42.5c-3.5,6.6-7.2,13.1-11.2,19.4c-2,3.2-4.2,6.2-6.5,9.1c-1.2,1.5-2.5,2.9-3.9,4.2
			c-0.7,0.6-1.4,1.3-2.3,1.8c-0.4,0.3-0.9,0.5-1.4,0.7c-0.5,0.2-1.2,0.3-1.9-0.1c-0.6-0.3-0.9-1-1-1.5c-0.1-0.5-0.2-1-0.2-1.5
			c0-1,0.1-1.9,0.3-2.9c0.4-1.9,0.9-3.7,1.5-5.5c1.2-3.6,2.6-7,4-10.5c3-6.9,6.1-13.6,9.6-20.2c3.5-6.6,7.1-13.1,11.3-19.3
			c2.1-3.1,4.3-6.2,6.6-9.1c1.2-1.5,2.5-2.9,3.9-4.2c0.7-0.6,1.4-1.3,2.3-1.8c0.4-0.3,0.9-0.5,1.4-0.7c0.5-0.2,1.2-0.3,2,0.1
			c0.6,0.3,1,1,1.1,1.6c0.2,0.6,0.2,1.1,0.2,1.6c0,1-0.1,2-0.3,2.9c-0.3,1.9-0.8,3.7-1.4,5.5c-1.2,3.6-2.5,7.1-4.1,10.5
			C309.3,29.4,305.9,36,302.3,42.5z M302.2,42.5c3.5-6.6,6.7-13.3,9.3-20.3c1.3-3.5,2.6-7,3.6-10.5c0.5-1.8,1-3.6,1.3-5.3
			c0.1-0.9,0.2-1.8,0.2-2.6c0-0.8-0.2-1.7-0.6-1.9c-0.2-0.1-1.1,0.1-1.8,0.6c-0.7,0.5-1.4,1-2.1,1.7c-1.3,1.2-2.5,2.6-3.7,4
			c-2.4,2.8-4.6,5.8-6.7,8.9c-4.2,6.1-8.1,12.4-11.7,18.9c-3.6,6.5-7,13.1-9.8,20c-1.4,3.4-2.7,6.9-3.7,10.5
			c-0.5,1.8-0.9,3.6-1.2,5.4c-0.1,0.9-0.2,1.8-0.2,2.7c0,0.9,0.2,1.8,0.7,2c0.3,0.2,1.3-0.1,1.9-0.6c0.7-0.5,1.4-1.1,2.1-1.7
			c1.3-1.2,2.5-2.6,3.7-4c2.4-2.8,4.6-5.8,6.8-8.8C294.7,55.3,298.6,49,302.2,42.5z"/>
		<path class="st0" d="M308.9,34.7c-5.8,4.6-11.8,9.2-18,13.4c-3.1,2.1-6.3,4-9.6,5.8c-1.7,0.9-3.4,1.7-5.2,2.3
			c-0.9,0.3-1.8,0.6-2.8,0.7c-0.5,0.1-1,0.1-1.6,0.1c-0.5-0.1-1.2-0.2-1.7-0.9c-0.4-0.5-0.4-1.3-0.3-1.8c0.1-0.5,0.3-1,0.4-1.5
			c0.4-0.9,0.9-1.7,1.4-2.5c1.1-1.6,2.3-3,3.5-4.4c2.5-2.8,5.1-5.4,7.8-8c5.4-5.1,11-10.1,16.8-14.8c5.8-4.7,11.7-9.2,18-13.3
			c3.1-2,6.3-4,9.7-5.7c1.7-0.9,3.4-1.7,5.2-2.3c0.9-0.3,1.8-0.6,2.8-0.7c0.5-0.1,1-0.1,1.6-0.1c0.6,0.1,1.2,0.2,1.8,0.9
			c0.4,0.5,0.5,1.3,0.4,1.9c-0.1,0.6-0.2,1.1-0.4,1.5c-0.4,0.9-0.9,1.8-1.4,2.6c-1,1.6-2.2,3.1-3.5,4.5c-2.5,2.8-5.1,5.5-7.9,8
			C320.6,25.4,314.8,30.1,308.9,34.7z M308.8,34.6c5.8-4.6,11.4-9.6,16.6-14.9c2.6-2.7,5.1-5.4,7.5-8.2c1.2-1.4,2.3-2.9,3.3-4.4
			c0.5-0.8,0.9-1.5,1.3-2.3c0.3-0.8,0.5-1.6,0.2-1.9c-0.1-0.2-1.1-0.3-1.9-0.2c-0.8,0.1-1.7,0.4-2.6,0.7c-1.7,0.6-3.4,1.4-5,2.2
			c-3.3,1.6-6.5,3.5-9.6,5.5c-6.3,4-12.4,8.2-18.3,12.7c-5.9,4.5-11.7,9.3-17,14.5c-2.7,2.6-5.2,5.3-7.5,8.2
			c-1.2,1.4-2.3,2.9-3.2,4.5c-0.5,0.8-0.9,1.6-1.2,2.4c-0.3,0.8-0.5,1.7-0.1,2.1c0.2,0.3,1.2,0.4,2,0.2c0.9-0.1,1.7-0.4,2.6-0.7
			c1.7-0.6,3.4-1.4,5-2.2c3.3-1.6,6.5-3.5,9.7-5.4C296.8,43.4,303,39.2,308.8,34.6z"/>
		<path class="st0" d="M316.9,94.2c5.5,1.1,10.9,2.1,16.4,3.3c2.7,0.6,5.4,1.4,8.1,2.2c1.3,0.4,2.7,0.9,4,1.5
			c0.7,0.3,1.3,0.6,1.9,0.9c0.3,0.2,0.6,0.4,1,0.6c0.2,0.1,0.3,0.3,0.5,0.5c0.1,0.2,0.4,0.4,0.3,1.1c-0.3,0.8-0.9,0.8-1.2,1
			c-0.4,0.1-0.8,0.1-1.1,0.2c-0.7,0.1-1.4,0.1-2.1,0.1c-1.4,0-2.8-0.1-4.2-0.3c-2.8-0.3-5.5-0.7-8.3-1c-5.5-0.8-11-1.7-16.5-2.6
			c-5.5-1-11-2.1-16.4-3.5c-2.7-0.7-5.4-1.4-8.1-2.3c-1.3-0.4-2.7-0.9-4-1.5c-0.7-0.3-1.3-0.6-2-0.9c-0.3-0.2-0.6-0.4-1-0.6
			c-0.2-0.1-0.3-0.3-0.5-0.5c-0.1-0.2-0.4-0.5-0.3-1.2c0,0,0.2-0.5,0.3-0.5c0.1-0.1,0.3-0.2,0.4-0.3c0.2-0.1,0.4-0.2,0.7-0.3
			c0.4-0.1,0.8-0.2,1.1-0.2c0.7-0.1,1.5-0.1,2.2-0.1c1.4,0,2.8,0.1,4.2,0.2c2.8,0.3,5.6,0.6,8.3,1.1C306,92,311.5,93.1,316.9,94.2z
			 M316.9,94.3c-5.5-1-11-1.8-16.5-2.4c-2.8-0.3-5.5-0.5-8.3-0.7c-1.4-0.1-2.8-0.1-4.1-0.1c-0.7,0-1.4,0-2,0.1
			c-0.3,0-0.6,0.1-0.9,0.2c-0.3,0.1-0.4,0.3-0.3,0.1c0.1-0.4,0-0.3,0-0.2c0,0.1,0.1,0.1,0.2,0.2c0.2,0.2,0.5,0.3,0.8,0.5
			c0.6,0.3,1.2,0.6,1.8,0.8c1.3,0.5,2.6,1,3.9,1.4c2.6,0.9,5.3,1.7,7.9,2.4c5.3,1.5,10.7,2.8,16.1,4c5.4,1.2,10.9,2.3,16.4,2.9
			c2.8,0.4,5.5,0.6,8.3,0.7c1.4,0.1,2.8,0.1,4.1,0.1c0.7,0,1.4-0.1,2-0.2c0.3,0,0.7-0.1,0.9-0.2c0.3-0.1,0.5-0.3,0.4-0.2
			c-0.1,0.3,0,0.1-0.1,0.1c-0.1-0.1-0.2-0.2-0.3-0.3c-0.2-0.2-0.5-0.3-0.8-0.5c-0.6-0.3-1.2-0.6-1.8-0.9c-1.3-0.5-2.6-1-3.9-1.4
			c-2.6-0.9-5.3-1.7-7.9-2.5C327.7,96.8,322.4,95.5,316.9,94.3z"/>
		<path class="st0" d="M328,38.4c8.7,1.7,17.3,3.4,26,5.3c4.3,0.9,8.6,2,12.9,3.1c2.1,0.6,4.3,1.2,6.4,1.9c1,0.4,2.1,0.7,3.1,1.2
			c0.5,0.2,1,0.4,1.6,0.7c0.3,0.1,0.5,0.3,0.8,0.5c0.1,0.1,0.3,0.2,0.4,0.4c0.1,0.1,0.4,0.4,0.3,0.9c-0.1,0.3,0,0.1-0.1,0.2
			c-0.1,0.1-0.1,0.2-0.2,0.3c-0.1,0.1-0.2,0.2-0.3,0.2c-0.2,0.1-0.4,0.1-0.5,0.2c-0.3,0.1-0.6,0.1-0.9,0.1c-0.6,0-1.2,0-1.7,0
			c-1.1,0-2.2-0.1-3.3-0.2c-2.2-0.2-4.4-0.5-6.6-0.8c-4.4-0.6-8.7-1.3-13.1-2c-8.7-1.5-17.4-3-26.1-4.6c-8.7-1.6-17.4-3.3-26-5.4
			c-4.3-1-8.6-2.1-12.9-3.2c-2.1-0.6-4.3-1.2-6.4-1.9c-1.1-0.4-2.1-0.7-3.2-1.1c-0.5-0.2-1-0.4-1.6-0.7c-0.3-0.1-0.5-0.3-0.8-0.5
			c-0.1-0.1-0.3-0.2-0.4-0.4c-0.1-0.1-0.4-0.4-0.4-1c0.1-0.3,0-0.1,0.1-0.2l0-0.1c0.1-0.1,0.2-0.3,0.3-0.4c0.1-0.1,0.3-0.2,0.4-0.2
			c0.2-0.1,0.4-0.1,0.6-0.2c0.3-0.1,0.6-0.1,0.9-0.1c0.6,0,1.2-0.1,1.7,0c1.1,0,2.2,0.1,3.4,0.2c2.2,0.2,4.4,0.4,6.6,0.7
			c4.4,0.6,8.8,1.3,13.1,2.1C310.7,34.9,319.3,36.7,328,38.4z M327.9,38.6c-8.7-1.7-17.4-3.1-26.1-4.3c-4.4-0.6-8.7-1.2-13.1-1.6
			c-2.2-0.2-4.4-0.5-6.6-0.6c-1.1-0.1-2.2-0.1-3.3-0.1c-0.5,0-1.1,0-1.6,0.1c-0.2,0-0.5,0.1-0.7,0.1c-0.1,0-0.2,0-0.2,0.1
			c0,0,0,0,0,0c0,0,0.1-0.1,0.1-0.2c0,0,0,0,0,0c0,0-0.1,0.2,0-0.1c0-0.4-0.1-0.4,0-0.3c0,0,0.1,0.1,0.2,0.2
			c0.2,0.1,0.4,0.2,0.6,0.4c0.5,0.2,0.9,0.4,1.4,0.6c1,0.4,2,0.8,3.1,1.1c2.1,0.7,4.2,1.3,6.3,1.9c4.2,1.2,8.5,2.3,12.8,3.4
			c8.6,2.1,17.2,4.1,25.8,5.9c8.6,1.8,17.3,3.5,26,4.9c4.4,0.7,8.7,1.3,13.1,1.7c2.2,0.2,4.4,0.4,6.6,0.6c1.1,0.1,2.2,0.1,3.3,0.1
			c0.5,0,1.1,0,1.6-0.1c0.3,0,0.5-0.1,0.7-0.1c0.1,0,0.2-0.1,0.3-0.1c0,0,0,0,0,0c0,0-0.1,0.1-0.1,0.2c0,0,0.1-0.2,0,0
			c0,0.2,0.1,0.2,0,0.2c0,0-0.1-0.1-0.2-0.2c-0.2-0.1-0.4-0.3-0.6-0.4c-0.5-0.2-1-0.5-1.5-0.6c-1-0.4-2-0.8-3.1-1.1
			c-2.1-0.7-4.2-1.3-6.3-1.9c-4.2-1.2-8.5-2.3-12.8-3.5C345.2,42.4,336.6,40.3,327.9,38.6z"/>
		<path class="st0" d="M365.7,26.5c2.8,3.8,5.6,7.6,8.2,11.5c1.3,2,2.6,4,3.7,6.1c0.6,1,1.1,2.1,1.5,3.3c0.2,0.6,0.4,1.1,0.6,1.8
			c0.1,0.3,0.1,0.6,0.2,1c0,0.3,0.1,0.9-0.5,1.4c-0.3,0.2-0.1,0.1-0.4,0.2c-0.2,0-0.4,0.1-0.5,0c-0.2,0-0.4-0.1-0.6-0.2
			c-0.3-0.1-0.6-0.3-0.9-0.5c-0.5-0.4-1-0.7-1.4-1.1c-0.9-0.8-1.7-1.7-2.5-2.5c-1.6-1.8-3.1-3.6-4.6-5.4c-3-3.7-6-7.3-8.9-11.1
			c-2.9-3.7-5.7-7.6-8.2-11.6c-1.3-2-2.5-4-3.6-6.2c-0.6-1.1-1.1-2.1-1.5-3.3c-0.2-0.6-0.4-1.1-0.6-1.8c-0.1-0.3-0.2-0.6-0.2-1
			c0-0.3-0.1-0.9,0.6-1.5c0.4-0.2,0.2-0.1,0.4-0.2c0.2-0.1,0.5-0.1,0.6-0.1c0.3,0,0.5,0.1,0.6,0.2c0.4,0.1,0.6,0.3,0.9,0.5
			c0.5,0.4,1,0.7,1.5,1.1c0.9,0.8,1.8,1.6,2.6,2.5c1.6,1.7,3.2,3.6,4.6,5.4C360.2,18.8,363,22.6,365.7,26.5z M365.6,26.5
			c-2.8-3.8-5.8-7.4-9-10.9c-1.6-1.7-3.2-3.4-4.9-5.1c-0.8-0.8-1.7-1.6-2.6-2.3c-0.4-0.4-0.9-0.7-1.3-1c-0.2-0.1-0.4-0.3-0.6-0.3
			c-0.1,0-0.2-0.1-0.2-0.1c0,0,0.1,0,0.1,0c0.1-0.1-0.2,0.1,0,0c0.2-0.2,0-0.1,0.1,0.2c0,0.2,0.1,0.5,0.1,0.7c0.1,0.5,0.3,1,0.6,1.6
			c0.4,1.1,0.9,2.1,1.5,3.1c1.1,2.1,2.2,4.1,3.4,6.1c2.4,4,5,8,7.6,11.9c2.7,3.9,5.5,7.7,8.6,11.2c1.5,1.8,3.1,3.5,4.9,5.1
			c0.8,0.8,1.7,1.6,2.6,2.3c0.5,0.4,0.9,0.7,1.4,1c0.2,0.1,0.5,0.3,0.7,0.3c0.1,0,0.2,0.1,0.3,0.1c0.1,0,0,0-0.1,0
			c-0.1,0.1,0.2-0.1,0,0c-0.1,0.1,0,0,0-0.3c0-0.2-0.1-0.5-0.1-0.7c-0.1-0.5-0.3-1.1-0.6-1.6c-0.4-1.1-1-2.1-1.5-3.1
			c-1-2.1-2.2-4.1-3.3-6.2C370.9,34.4,368.4,30.4,365.6,26.5z"/>
		<path class="st0" d="M292.4,79.2c3.2,4.3,6.3,8.6,9.4,13.1c1.5,2.2,2.9,4.5,4.3,6.8c0.7,1.2,1.3,2.4,1.8,3.6
			c0.3,0.6,0.5,1.3,0.7,1.9c0.1,0.3,0.2,0.7,0.2,1.1c0,0.2,0,0.4,0,0.7c0,0.1,0,0.3-0.1,0.4c0,0.1-0.1,0.1-0.1,0.2
			c-0.1,0.1,0,0.1-0.3,0.3c-0.1,0-0.1,0.1-0.3,0.1c-0.2,0-0.4,0-0.5,0c-0.3,0-0.4-0.1-0.6-0.2c-0.3-0.2-0.6-0.4-0.9-0.6
			c-0.6-0.4-1.1-0.9-1.6-1.3c-1-0.9-1.9-1.9-2.8-2.9c-1.8-2-3.5-4.1-5.2-6.1c-3.4-4.2-6.7-8.4-9.9-12.6c-3.3-4.3-6.4-8.6-9.3-13.1
			c-1.4-2.3-2.9-4.5-4.2-6.9c-0.7-1.2-1.3-2.4-1.8-3.6c-0.3-0.6-0.5-1.3-0.7-2c-0.1-0.3-0.2-0.7-0.3-1.1c0-0.2,0-0.4,0-0.7
			c0-0.1,0.1-0.3,0.1-0.5c0-0.1,0.1-0.2,0.2-0.3l0.1-0.1l0.1-0.1c0.1-0.1-0.1,0,0.2-0.1c0.1,0,0.1-0.1,0.4-0.1c0.3,0,0.5,0,0.6,0
			c0.3,0.1,0.5,0.1,0.7,0.2c0.4,0.2,0.7,0.4,1,0.6c0.6,0.4,1.1,0.9,1.6,1.3c1,0.9,2,1.9,2.9,2.9c1.8,2,3.5,4.1,5.2,6.2
			C286.2,70.4,289.3,74.8,292.4,79.2z M292.3,79.2c-3.2-4.3-6.6-8.5-10.1-12.4c-1.8-2-3.6-4-5.4-5.8c-0.9-0.9-1.9-1.9-2.8-2.7
			c-0.5-0.4-1-0.9-1.5-1.2c-0.4-0.4-1.2-0.6-1-0.5l0.2-0.1l0,0c0,0,0-0.1,0-0.1c0,0,0,0,0,0c0,0.1,0,0.2,0,0.3
			c0,0.3,0.1,0.5,0.2,0.8c0.2,0.6,0.4,1.2,0.7,1.8c0.5,1.2,1.1,2.4,1.8,3.5c1.2,2.3,2.6,4.6,4,6.9c2.8,4.5,5.7,9,8.8,13.4
			c3,4.4,6.2,8.7,9.7,12.8c1.7,2.1,3.5,4,5.4,5.9c0.9,0.9,1.9,1.9,2.9,2.7c0.5,0.4,1,0.8,1.5,1.2c0.5,0.3,1.2,0.7,1.2,0.5
			c-0.3,0.2-0.1,0.1-0.2,0.1c0-0.1,0-0.2,0-0.3c0-0.3-0.1-0.6-0.2-0.9c-0.2-0.6-0.4-1.2-0.7-1.8c-0.5-1.2-1.2-2.4-1.8-3.5
			c-1.2-2.4-2.6-4.6-3.9-7C298.3,88.1,295.4,83.6,292.3,79.2z"/>
		<path class="st0" d="M294.9,11.4c3-2,5.9-4.1,9-6c1.5-0.9,3.1-1.8,4.8-2.5c0.8-0.4,1.7-0.7,2.6-0.9c0.5-0.1,0.9-0.2,1.5-0.2
			c0.3,0,0.5,0,0.8,0c0.3,0.1,0.6,0.1,1,0.7l0.1,0.1c0,0.1,0.1,0.2,0.1,0.4c0,0.2,0,0.4,0,0.5c-0.1,0.3-0.2,0.5-0.3,0.8
			c-0.2,0.5-0.5,0.8-0.8,1.2c-0.6,0.7-1.2,1.4-1.9,2c-1.3,1.2-2.7,2.4-4.1,3.6c-2.8,2.3-5.6,4.5-8.6,6.6c-2.9,2.1-5.9,4.1-9.1,5.9
			c-1.6,0.9-3.2,1.7-4.9,2.4c-0.8,0.4-1.7,0.7-2.6,0.9c-0.5,0.1-0.9,0.2-1.5,0.3c-0.3,0-0.6,0-0.9,0c-0.3-0.1-0.7-0.1-1.1-0.8
			l-0.1-0.2c0-0.1-0.1-0.3-0.1-0.4c0-0.3,0-0.4,0-0.6c0.1-0.3,0.2-0.6,0.3-0.8c0.2-0.5,0.5-0.9,0.8-1.3c0.6-0.8,1.2-1.4,1.9-2.1
			c1.3-1.3,2.7-2.4,4.2-3.5C288.9,15.4,291.9,13.4,294.9,11.4z M295,11.5c-3,2-5.7,4.3-8.3,6.8c-1.3,1.2-2.6,2.5-3.8,3.8
			c-0.6,0.7-1.2,1.3-1.7,2c-0.2,0.3-0.5,0.7-0.6,1c-0.1,0.2-0.1,0.3-0.2,0.4c0,0.1,0,0.1,0,0.1c0,0,0-0.1,0-0.1l0.1,0.2
			c-0.2-0.3-0.1-0.1,0-0.1c0.1,0,0.3,0,0.5,0c0.4,0,0.8-0.1,1.2-0.2c0.8-0.2,1.6-0.5,2.4-0.8c1.6-0.6,3.2-1.4,4.8-2.2
			c3.2-1.7,6.2-3.5,9.3-5.3c3-1.9,6-4,8.7-6.3c1.4-1.2,2.7-2.4,3.8-3.7c0.6-0.7,1.2-1.3,1.6-2.1c0.2-0.4,0.5-0.7,0.6-1.1
			c0.1-0.2,0.1-0.4,0.1-0.5c0-0.1,0-0.1,0-0.1c0,0,0,0,0,0L313.5,3c0.1,0.2,0,0-0.1,0c-0.1,0-0.3,0-0.5,0c-0.4,0-0.8,0.1-1.2,0.2
			c-0.8,0.2-1.6,0.6-2.5,0.9c-1.6,0.7-3.3,1.4-4.9,2.2C301.1,7.8,297.9,9.5,295,11.5z"/>
	</g>
</g>
<g>
	<path class="st0" d="M14.1,96.7H8.6c-4.7,0-8.6,3.8-8.6,8.6v76.6c0,4.7,3.8,8.6,8.6,8.6h5.5h47.6l0-13.2H15.3v-27.8h45.5v-13.2
		H15.3v-26.4h46.4V96.7H14.1z"/>
</g>
<path class="st0" d="M173.1,182.1c5.6,5.3,13.3,8.1,25.2,9.1c0,0,1.5,0.1,2.5,0.1c18.1,0,29-8.1,29-21.8c0-11.6-6.7-18.1-19.9-19.4
	l-11.5-1.1c-7.9-0.7-9.5-5-9.5-8.5c0-4.2,3.3-9.2,12.5-9.2c5.8,0,10.8,0.8,14.8,2.6l0.1,0.1c3.1,1.2,6.2-0.2,7.5-2.5
	c0,0,1.2-1.6,2.4-4.4c-5.8-4.5-13.2-6.6-24.5-6.6c-12.6,0-26.2,6.6-26.2,21.2c0,11.3,6.2,17.2,19.5,18.4l11.6,1.1
	c8,0.8,9.7,5.3,9.7,8.9c0,5.9-5.9,9.8-15.1,9.7c-0.4,0-1.6,0-1.6,0c-6.1-0.5-11.3-1.8-15.3-4.1l-0.2-0.1c-3.2-1.6-6.5-0.3-8.1,2
	C175.9,177.7,174.3,179.8,173.1,182.1z"/>
<g>
	<path class="st0" d="M21,247.2l-2.4-6.7H5.7l-2.4,6.7H0l10.9-29.5h2.7l10.8,29.5H21z M12.2,222.2l-5.6,15.6h11L12.2,222.2z"/>
	<path class="st0" d="M42.6,243.9c-0.4,0.8-1,1.4-1.7,1.9c-0.7,0.5-1.6,0.9-2.6,1.2c-1,0.3-2.1,0.4-3.4,0.4c-1.7,0-3.3-0.2-4.6-0.7
		c-1.4-0.4-2.6-1.2-3.7-2.3l2-2c0.8,0.9,1.7,1.5,2.8,1.8c1.1,0.4,2.3,0.5,3.5,0.5c1.7,0,3-0.3,4-0.9c1-0.6,1.5-1.5,1.5-2.7
		c0-0.9-0.3-1.6-0.8-2.1c-0.5-0.5-1.4-0.8-2.6-0.9l-3.4-0.3c-2-0.2-3.5-0.7-4.5-1.6c-1-0.9-1.6-2.2-1.6-3.9c0-0.9,0.2-1.8,0.6-2.5
		c0.4-0.7,0.9-1.4,1.6-1.9c0.7-0.5,1.5-0.9,2.4-1.2c0.9-0.3,1.9-0.4,3-0.4c1.5,0,2.8,0.2,4.1,0.5c1.3,0.4,2.3,0.9,3.3,1.7l-1.9,1.9
		c-0.7-0.6-1.5-1-2.5-1.2c-0.9-0.3-1.9-0.4-3-0.4c-1.5,0-2.6,0.3-3.4,0.9c-0.8,0.6-1.2,1.4-1.2,2.5c0,0.9,0.3,1.6,0.8,2.1
		c0.5,0.5,1.5,0.8,2.8,0.9l3.3,0.3c0.9,0.1,1.7,0.2,2.4,0.5c0.7,0.2,1.4,0.6,1.9,1c0.5,0.4,0.9,1,1.2,1.7c0.3,0.7,0.4,1.5,0.4,2.4
		C43.3,242.2,43,243.1,42.6,243.9z"/>
	<path class="st0" d="M62.5,243.9c-0.4,0.8-1,1.4-1.7,1.9c-0.7,0.5-1.6,0.9-2.6,1.2c-1,0.3-2.1,0.4-3.4,0.4c-1.7,0-3.3-0.2-4.6-0.7
		c-1.4-0.4-2.6-1.2-3.7-2.3l2-2c0.8,0.9,1.7,1.5,2.8,1.8c1.1,0.4,2.3,0.5,3.5,0.5c1.7,0,3-0.3,4-0.9c1-0.6,1.5-1.5,1.5-2.7
		c0-0.9-0.3-1.6-0.8-2.1c-0.5-0.5-1.4-0.8-2.6-0.9l-3.4-0.3c-2-0.2-3.5-0.7-4.5-1.6c-1-0.9-1.6-2.2-1.6-3.9c0-0.9,0.2-1.8,0.6-2.5
		c0.4-0.7,0.9-1.4,1.6-1.9c0.7-0.5,1.5-0.9,2.4-1.2c0.9-0.3,1.9-0.4,3-0.4c1.5,0,2.8,0.2,4.1,0.5c1.3,0.4,2.3,0.9,3.3,1.7l-1.9,1.9
		c-0.7-0.6-1.5-1-2.5-1.2c-0.9-0.3-1.9-0.4-3-0.4c-1.5,0-2.6,0.3-3.4,0.9c-0.8,0.6-1.2,1.4-1.2,2.5c0,0.9,0.3,1.6,0.8,2.1
		c0.5,0.5,1.5,0.8,2.8,0.9l3.3,0.3c0.9,0.1,1.7,0.2,2.4,0.5c0.7,0.2,1.4,0.6,1.9,1c0.5,0.4,0.9,1,1.2,1.7c0.3,0.7,0.4,1.5,0.4,2.4
		C63.1,242.2,62.9,243.1,62.5,243.9z"/>
	<path class="st0" d="M70.8,237.8c0,2.2,0.5,3.9,1.5,5.2c1,1.2,2.5,1.8,4.5,1.8c1.2,0,2.2-0.2,3-0.6c0.8-0.4,1.6-1,2.4-1.8l2,1.8
		c-0.5,0.5-1,1-1.6,1.4c-0.5,0.4-1.1,0.7-1.6,1c-0.6,0.3-1.2,0.5-1.9,0.6c-0.7,0.1-1.5,0.2-2.3,0.2c-1.4,0-2.6-0.2-3.7-0.6
		c-1.1-0.4-2-1-2.8-1.9c-0.8-0.9-1.4-1.9-1.8-3.3c-0.4-1.3-0.6-2.9-0.6-4.7c0-3.3,0.7-5.9,2.2-7.7c1.5-1.8,3.5-2.7,6.1-2.7
		c2.7,0,4.7,0.9,6.2,2.7c1.5,1.8,2.2,4.2,2.2,7.2v1.4H70.8z M81.5,234.5c0-0.3-0.1-0.6-0.1-0.8c0-0.2-0.1-0.5-0.2-0.7
		c-0.1-0.2-0.2-0.5-0.3-0.8c-0.4-0.9-1-1.7-1.9-2.2c-0.9-0.6-1.8-0.8-2.9-0.8c-1.1,0-2,0.3-2.9,0.8c-0.9,0.6-1.5,1.3-1.9,2.2
		c-0.2,0.6-0.4,1.1-0.5,1.5c-0.1,0.4-0.1,1.1-0.2,1.9h10.8C81.6,235.2,81.6,234.8,81.5,234.5z"/>
	<path class="st0" d="M96.7,247.2c-0.9,0-1.7-0.1-2.3-0.4c-0.6-0.3-1.2-0.7-1.6-1.2c-0.4-0.5-0.8-1.1-1-1.7
		c-0.2-0.7-0.3-1.4-0.3-2.1v-12.5h-2.6V227h2.6v-6.4h3v6.4h4.3v2.3h-4.3v12.4c0,0.9,0.2,1.7,0.7,2.2c0.4,0.5,1.1,0.8,2.1,0.8h1.6
		v2.6H96.7z"/>
	<path class="st0" d="M137.7,247.2v-22.4l-8.1,17.8h-2.7l-8.2-17.8v22.4h-3.1v-29.5h3.1l9.6,20.9l9.4-20.9h3.1v29.5H137.7z"/>
	<path class="st0" d="M160.4,247.2v-1.9c-0.8,0.8-1.7,1.4-2.5,1.7c-0.9,0.3-2,0.5-3.3,0.5c-1.4,0-2.6-0.1-3.5-0.4
		c-0.9-0.3-1.7-0.8-2.3-1.4c-0.5-0.5-0.9-1.1-1.1-1.8c-0.3-0.7-0.4-1.5-0.4-2.3c0-1.8,0.6-3.2,1.8-4.3c1.2-1.1,2.9-1.6,5.2-1.6h6.1
		v-1.9c0-1.5-0.4-2.6-1.2-3.4c-0.8-0.7-2.1-1.1-4-1.1c-1.3,0-2.4,0.2-3.1,0.5c-0.7,0.3-1.4,0.9-2,1.8l-2-1.9c0.9-1.2,1.9-2,3-2.4
		c1.1-0.4,2.5-0.6,4.2-0.6c2.8,0,4.8,0.6,6.2,1.7c1.3,1.1,2,2.8,2,5.1v13.8H160.4z M160.4,237.8h-5.7c-3,0-4.6,1.2-4.6,3.6
		c0,1.2,0.4,2.1,1.1,2.6c0.7,0.6,1.9,0.8,3.6,0.8c0.9,0,1.7-0.1,2.5-0.2c0.8-0.1,1.5-0.5,2.1-1.2c0.7-0.7,1-1.8,1-3.5V237.8z"/>
	<path class="st0" d="M183.6,247.2v-12.6c0-1.8-0.4-3.2-1.3-4.1c-0.9-0.9-2.1-1.3-3.7-1.3c-1.5,0-2.8,0.5-3.7,1.4
		c-0.9,0.9-1.4,2.3-1.4,4.1v12.6h-3v-20.4h3v2.2c0.7-0.8,1.6-1.4,2.5-1.9c1-0.4,2-0.6,3.2-0.6c2.2,0,3.9,0.6,5.2,1.9
		c1.4,1.4,2.1,3.3,2.1,5.7v13H183.6z"/>
	<path class="st0" d="M205.4,247.2v-1.9c-0.8,0.8-1.7,1.4-2.5,1.7c-0.9,0.3-2,0.5-3.3,0.5c-1.4,0-2.6-0.1-3.5-0.4
		c-0.9-0.3-1.7-0.8-2.3-1.4c-0.5-0.5-0.9-1.1-1.1-1.8c-0.3-0.7-0.4-1.5-0.4-2.3c0-1.8,0.6-3.2,1.8-4.3c1.2-1.1,2.9-1.6,5.2-1.6h6.1
		v-1.9c0-1.5-0.4-2.6-1.2-3.4c-0.8-0.7-2.1-1.1-4-1.1c-1.3,0-2.4,0.2-3.1,0.5c-0.7,0.3-1.4,0.9-2,1.8l-2-1.9c0.9-1.2,1.9-2,3-2.4
		c1.1-0.4,2.5-0.6,4.2-0.6c2.8,0,4.8,0.6,6.2,1.7c1.3,1.1,2,2.8,2,5.1v13.8H205.4z M205.4,237.8h-5.7c-3,0-4.6,1.2-4.6,3.6
		c0,1.2,0.4,2.1,1.1,2.6c0.7,0.6,1.9,0.8,3.6,0.8c0.9,0,1.7-0.1,2.5-0.2c0.8-0.1,1.5-0.5,2.1-1.2c0.7-0.7,1-1.8,1-3.5V237.8z"/>
	<path class="st0" d="M230.1,251.3c-0.4,1.1-0.9,2-1.7,2.8c-0.7,0.8-1.6,1.4-2.7,1.8c-1.1,0.4-2.3,0.7-3.6,0.7c-0.8,0-1.5,0-2.1-0.1
		c-0.6-0.1-1.2-0.3-1.7-0.5c-0.5-0.2-1.1-0.5-1.6-0.9c-0.5-0.4-1-0.8-1.6-1.3l1.9-1.9c0.4,0.3,0.7,0.6,1.1,0.9
		c0.3,0.2,0.7,0.5,1.1,0.6c0.4,0.2,0.8,0.3,1.2,0.4c0.4,0.1,1,0.1,1.5,0.1c1,0,1.8-0.2,2.5-0.5c0.7-0.3,1.3-0.8,1.7-1.3
		c0.5-0.5,0.8-1.2,1-2c0.2-0.8,0.3-1.6,0.3-2.4v-3.2c-0.8,1-1.7,1.7-2.7,2.1c-0.9,0.4-2,0.5-3.1,0.5c-1,0-2-0.2-2.8-0.5
		c-0.8-0.3-1.5-0.8-2.1-1.3c-1-1-1.7-2.3-2-3.8c-0.3-1.5-0.5-3.1-0.5-4.7c0-1.7,0.2-3.2,0.5-4.7c0.3-1.5,1-2.7,2-3.8
		c0.6-0.6,1.3-1,2.1-1.3c0.9-0.3,1.8-0.5,2.9-0.5c1.1,0,2.2,0.2,3.1,0.5c0.9,0.3,1.8,1.1,2.6,2.1v-2.4h2.9v21
		C230.7,249.1,230.5,250.3,230.1,251.3z M227.6,234.1c-0.1-0.9-0.3-1.7-0.7-2.5c-0.4-0.7-0.9-1.3-1.5-1.7c-0.7-0.4-1.5-0.7-2.7-0.7
		c-1.1,0-2,0.2-2.7,0.7c-0.7,0.4-1.2,1-1.6,1.7c-0.4,0.7-0.6,1.5-0.7,2.5c-0.1,0.9-0.2,1.9-0.2,2.8c0,1,0.1,1.9,0.2,2.8
		c0.1,0.9,0.3,1.7,0.7,2.4c0.4,0.7,0.9,1.3,1.6,1.7c0.7,0.4,1.6,0.7,2.7,0.7c1.1,0,2-0.2,2.7-0.7c0.7-0.4,1.2-1,1.5-1.7
		c0.4-0.7,0.6-1.5,0.7-2.4c0.1-0.9,0.2-1.9,0.2-2.8C227.7,235.9,227.7,235,227.6,234.1z"/>
	<path class="st0" d="M240,237.8c0,2.2,0.5,3.9,1.5,5.2c1,1.2,2.5,1.8,4.5,1.8c1.2,0,2.2-0.2,3-0.6c0.8-0.4,1.6-1,2.4-1.8l2,1.8
		c-0.5,0.5-1,1-1.6,1.4c-0.5,0.4-1.1,0.7-1.6,1c-0.6,0.3-1.2,0.5-1.9,0.6c-0.7,0.1-1.5,0.2-2.3,0.2c-1.4,0-2.6-0.2-3.7-0.6
		c-1.1-0.4-2-1-2.8-1.9c-0.8-0.9-1.4-1.9-1.8-3.3c-0.4-1.3-0.6-2.9-0.6-4.7c0-3.3,0.7-5.9,2.2-7.7c1.5-1.8,3.5-2.7,6.1-2.7
		c2.7,0,4.7,0.9,6.2,2.7c1.5,1.8,2.2,4.2,2.2,7.2v1.4H240z M250.7,234.5c0-0.3-0.1-0.6-0.1-0.8c0-0.2-0.1-0.5-0.2-0.7
		c-0.1-0.2-0.2-0.5-0.3-0.8c-0.4-0.9-1-1.7-1.9-2.2c-0.9-0.6-1.8-0.8-2.9-0.8c-1.1,0-2,0.3-2.9,0.8c-0.9,0.6-1.5,1.3-1.9,2.2
		c-0.2,0.6-0.4,1.1-0.5,1.5s-0.1,1.1-0.2,1.9h10.8C250.8,235.2,250.7,234.8,250.7,234.5z"/>
	<path class="st0" d="M286.3,247.2v-12.6c0-1.8-0.4-3.2-1.3-4.1c-0.9-0.9-2.1-1.3-3.7-1.3c-1.5,0-2.7,0.4-3.7,1.3s-1.4,2.1-1.4,3.8
		v12.9h-3v-12.6c0-1.8-0.4-3.2-1.3-4.1c-0.9-0.9-2.1-1.3-3.7-1.3c-1.5,0-2.8,0.5-3.7,1.4c-0.9,0.9-1.4,2.3-1.4,4.1v12.6h-3v-20.4h3
		v2.2c0.7-0.8,1.6-1.4,2.5-1.9c1-0.4,2.1-0.6,3.2-0.6c1.4,0,2.6,0.3,3.7,0.8c1.1,0.6,1.9,1.4,2.5,2.5c1.6-2.3,3.8-3.4,6.7-3.4
		c1.1,0,2.1,0.2,3,0.5s1.6,0.8,2.3,1.4c1.5,1.4,2.2,3.3,2.2,5.7v13H286.3z"/>
	<path class="st0" d="M298.4,237.8c0,2.2,0.5,3.9,1.5,5.2c1,1.2,2.5,1.8,4.5,1.8c1.2,0,2.2-0.2,3-0.6c0.8-0.4,1.6-1,2.4-1.8l2,1.8
		c-0.5,0.5-1,1-1.6,1.4c-0.5,0.4-1.1,0.7-1.6,1c-0.6,0.3-1.2,0.5-1.9,0.6c-0.7,0.1-1.5,0.2-2.3,0.2c-1.4,0-2.6-0.2-3.7-0.6
		c-1.1-0.4-2-1-2.8-1.9c-0.8-0.9-1.4-1.9-1.8-3.3c-0.4-1.3-0.6-2.9-0.6-4.7c0-3.3,0.7-5.9,2.2-7.7c1.5-1.8,3.5-2.7,6.1-2.7
		c2.7,0,4.7,0.9,6.2,2.7c1.5,1.8,2.2,4.2,2.2,7.2v1.4H298.4z M309.1,234.5c0-0.3-0.1-0.6-0.1-0.8c0-0.2-0.1-0.5-0.2-0.7
		c-0.1-0.2-0.2-0.5-0.3-0.8c-0.4-0.9-1-1.7-1.9-2.2c-0.9-0.6-1.8-0.8-2.9-0.8c-1.1,0-2,0.3-2.9,0.8c-0.9,0.6-1.5,1.3-1.9,2.2
		c-0.2,0.6-0.4,1.1-0.5,1.5c-0.1,0.4-0.1,1.1-0.2,1.9h10.8C309.1,235.2,309.1,234.8,309.1,234.5z"/>
	<path class="st0" d="M331.5,247.2v-12.6c0-1.8-0.4-3.2-1.3-4.1c-0.9-0.9-2.1-1.3-3.7-1.3c-1.5,0-2.8,0.5-3.7,1.4
		c-0.9,0.9-1.4,2.3-1.4,4.1v12.6h-3v-20.4h3v2.2c0.7-0.8,1.6-1.4,2.5-1.9c1-0.4,2-0.6,3.2-0.6c2.2,0,3.9,0.6,5.2,1.9
		c1.4,1.4,2.1,3.3,2.1,5.7v13H331.5z"/>
	<path class="st0" d="M347.5,247.2c-0.9,0-1.7-0.1-2.3-0.4c-0.6-0.3-1.2-0.7-1.6-1.2c-0.4-0.5-0.8-1.1-1-1.7
		c-0.2-0.7-0.3-1.4-0.3-2.1v-12.5h-2.6V227h2.6v-6.4h3v6.4h4.4v2.3h-4.4v12.4c0,0.9,0.2,1.7,0.7,2.2c0.4,0.5,1.1,0.8,2.1,0.8h1.6
		v2.6H347.5z"/>
</g>
</svg>
