<svg width="163" height="33" viewBox="0 0 163 33" fill="none" xmlns="http://www.w3.org/2000/svg"><path fill-rule="evenodd" clip-rule="evenodd" d="M42.7 6.15h11.292v3.667h-6.828v4.364h5.659v3.459h-5.66v7.547H42.7V6.15zM55.162 6.15h4.464v15.37h6.376v3.667h-10.84V6.15zM67.278 6.15h4.464v19.037h-4.465V6.15zM78.012 9.61v6.24h.877c2.152 0 3.242-1.04 3.242-3.146 0-2.028-1.09-3.095-3.242-3.095h-.877zm-4.464-3.46h5.554c4.808 0 7.492 2.445 7.492 6.476 0 4.161-2.684 6.71-7.493 6.71h-1.089v5.85h-4.464V6.152zM92.227 17.021v4.707h1.674c1.939 0 2.896-.885 2.896-2.419 0-1.482-1.063-2.288-2.87-2.288h-1.7zm0-7.412v4.135h1.249c1.86 0 2.71-.78 2.71-2.158 0-1.222-.797-1.977-2.63-1.977h-1.329zm-4.464-3.458h6.404c4.384 0 6.509 1.846 6.509 4.967 0 1.794-.903 3.406-3.161 3.952 2.444.417 3.745 2.263 3.745 4.473 0 3.251-2.338 5.644-6.722 5.644h-6.775V6.15zM109.524 21.754c1.78 0 2.896-1.795 2.896-6.085 0-4.291-1.115-6.085-2.896-6.086-1.78 0-2.869 1.795-2.869 6.086-.001 4.29 1.089 6.085 2.869 6.085zm0-15.916c4.677 0 7.36 3.355 7.36 9.83 0 6.45-2.684 9.83-7.36 9.83-4.677 0-7.36-3.354-7.36-9.83.001-6.475 2.684-9.83 7.36-9.83zM123.781 10.286l-1.621 7.593h3.322l-1.595-7.594h-.106zm-2.683-4.135h5.659l4.888 19.036h-4.676l-.823-3.823h-4.729l-.851 3.823h-4.49l5.022-19.036zM136.854 9.61v5.434h1.116c2.046 0 2.975-.962 2.975-2.808.001-1.768-.929-2.627-2.975-2.627h-1.116zm-4.464-3.46h5.58c4.862 0 7.44 2.003 7.44 6.034-.001 2.6-1.196 4.525-3.429 5.513l4.092 7.49h-4.809l-3.321-6.762h-1.089v6.762h-4.464V6.15zM151.813 9.817V21.52h1.062c2.923 0 3.959-2.731 3.959-5.851 0-3.303-1.036-5.852-3.959-5.852h-1.062zm-4.464-3.666h5.607c5.765 0 8.448 3.978 8.448 9.518 0 5.46-2.683 9.517-8.449 9.517h-5.606V6.151z" fill="#FFF"/><mask id="a" style="mask-type:alpha" maskUnits="userSpaceOnUse" x="0" y="0" width="33" height="33"><path fill-rule="evenodd" clip-rule="evenodd" d="M.793.5h32v32h-32V.5z" fill="#fff"/></mask><g mask="url(#a)"><path fill-rule="evenodd" clip-rule="evenodd" d="M26.392 13.3h-6.4v6.4h-6.4v6.4h-6.4V6.9h19.2v6.4zM.792 32.5h32V.5h-32v32z" fill="#FFF"/></g></svg>