<?xml version="1.0" standalone="no"?>
<!DOCTYPE svg PUBLIC "-//W3C//DTD SVG 20010904//EN"
 "http://www.w3.org/TR/2001/REC-SVG-20010904/DTD/svg10.dtd">
<svg version="1.0" xmlns="http://www.w3.org/2000/svg"
 width="898.000000pt" height="202.000000pt" viewBox="0 0 898.000000 202.000000"
 preserveAspectRatio="xMidYMid meet">

<g transform="translate(0.000000,202.000000) scale(0.100000,-0.100000)"
fill="#fff" stroke="none">
<path d="M0 1819 l0 -190 23 6 c197 59 432 199 566 339 l35 36 -312 0 -312 0
0 -191z"/>
<path d="M840 1939 c-173 -223 -469 -421 -750 -502 l-85 -25 -3 -146 c-2 -112
0 -147 10 -150 7 -2 47 -11 88 -20 94 -20 280 -77 280 -86 0 -11 -184 -66
-353 -104 l-28 -7 3 -145 3 -146 85 -25 c281 -81 577 -279 750 -502 l55 -71
168 0 c92 0 167 4 167 9 0 4 -29 52 -65 106 -154 230 -360 425 -593 560 -45
26 -81 49 -80 50 2 2 54 26 117 54 l114 51 34 -20 c96 -57 253 -187 369 -308
112 -116 259 -319 320 -444 l28 -58 158 0 c87 0 158 3 158 8 0 22 -138 277
-202 374 -147 224 -356 444 -563 595 -17 12 -28 23 -25 25 3 3 48 39 100 80
115 92 315 295 391 398 94 125 169 247 236 379 34 69 63 129 63 134 0 4 -71 7
-158 7 l-158 0 -28 -57 c-33 -69 -134 -224 -200 -307 -123 -158 -350 -364
-491 -448 l-32 -18 -114 51 c-63 28 -115 52 -117 54 -1 1 35 24 80 50 170 99
337 238 460 385 76 90 198 264 198 282 0 4 -75 8 -167 8 l-168 0 -55 -71z"/>
<path d="M4329 1525 c-267 -65 -447 -297 -426 -550 24 -277 244 -478 537 -492
245 -12 453 106 551 312 39 81 43 94 47 190 6 125 -16 207 -78 302 -128 195
-395 295 -631 238z m250 -232 c192 -78 244 -334 102 -496 -50 -56 -132 -92
-211 -91 -81 1 -143 27 -200 84 -55 55 -82 118 -88 205 -13 223 196 381 397
298z"/>
<path d="M2790 1010 l0 -500 135 0 135 0 0 155 0 154 63 61 c49 48 64 57 72
46 6 -8 83 -104 170 -215 l160 -201 163 0 c89 0 162 3 162 6 0 5 -106 138
-377 474 -51 63 -93 117 -93 121 0 4 62 65 137 136 75 70 169 158 207 195 l71
68 -170 0 -170 0 -166 -159 c-91 -87 -179 -171 -197 -186 l-32 -27 0 186 0
186 -135 0 -135 0 0 -500z"/>
<path d="M5144 1458 c13 -29 99 -215 191 -413 92 -198 185 -399 207 -447 l41
-88 111 0 112 0 186 403 c103 221 207 446 232 500 l46 98 -146 -3 -146 -3 -90
-215 c-49 -118 -109 -264 -134 -325 -25 -60 -49 -113 -53 -118 -6 -5 -210 475
-270 636 l-11 27 -150 0 -150 0 24 -52z"/>
<path d="M6470 1010 l0 -500 135 0 135 0 0 500 0 500 -135 0 -135 0 0 -500z"/>
<path d="M6960 1400 l0 -110 165 0 165 0 0 -390 0 -390 135 0 135 0 2 388 3
387 163 3 162 2 0 110 0 110 -465 0 -465 0 0 -110z"/>
<path d="M8100 1400 l0 -110 246 -2 247 -3 -262 -313 -261 -314 0 -74 0 -74
455 0 455 0 0 115 0 115 -255 2 -255 3 255 308 255 307 0 75 0 75 -440 0 -440
0 0 -110z"/>
<path d="M0 201 l0 -191 312 0 312 0 -35 36 c-134 140 -369 280 -566 339 l-23
6 0 -190z"/>
</g>
</svg>
