<svg width="1085" height="166" viewBox="0 0 1085 166" fill="none" xmlns="http://www.w3.org/2000/svg">
<path d="M76.8225 56.1746C70.0726 56.7253 63.6579 58.4234 57.5782 61.1771C51.4985 63.9308 45.9933 67.5105 41.0626 71.8705C36.1318 76.2305 31.967 81.1871 28.4724 86.7404C25.0257 92.3395 22.5842 98.1681 21.1481 104.272C22.9193 103.079 24.7863 101.932 26.7491 100.83C28.6639 99.7286 30.7224 98.8107 32.9245 98.0305C35.0787 97.2503 37.4244 96.6536 39.8658 96.1947C42.3072 95.7357 44.9402 95.5063 47.7167 95.5063C52.1687 95.5063 56.4293 96.3324 60.4026 98.0305C64.3759 99.7286 67.8705 102.023 70.8386 104.961C73.8066 107.852 76.1523 111.294 77.8757 115.195C79.599 119.096 80.4607 123.318 80.4607 127.77C80.4607 133.048 79.4075 137.959 77.3012 142.594C75.1949 147.229 72.3226 151.268 68.7322 154.71C65.1419 158.152 60.8813 160.906 56.0463 162.88C51.1634 164.899 45.9933 165.863 40.536 165.863C34.6957 165.863 29.3341 164.761 24.4991 162.512C19.6162 160.264 15.4514 157.235 11.9089 153.333C8.36645 149.432 5.63778 144.889 3.67506 139.703C1.71233 134.517 0.707031 128.918 0.707031 122.997C0.707031 116.71 1.52084 110.651 3.14847 104.777C4.7761 98.9025 7.12179 93.3951 10.2334 88.209C13.2972 83.0229 17.079 78.2958 21.4832 74.0735C25.8874 69.8512 30.9617 66.1337 36.6106 63.0588C42.2594 59.9838 48.4348 57.5973 55.1846 55.8992C61.9345 54.2011 69.1631 53.375 76.8225 53.375V56.1287V56.1746ZM20.9087 108.999C20.43 111.386 20.0949 113.864 19.8556 116.388C19.6641 118.913 19.5205 121.345 19.5205 123.686C19.5205 128.596 19.9992 133.278 20.9087 137.729C21.8183 142.181 23.2544 146.128 25.2172 149.478C27.132 152.875 29.5735 155.536 32.4936 157.556C35.4138 159.575 38.8605 160.539 42.8817 160.539C45.6104 160.539 48.1954 159.851 50.6847 158.52C53.1262 157.189 55.2804 155.353 57.1474 153.058C59.0143 150.763 60.4505 148.101 61.5037 144.981C62.5568 141.906 63.0834 138.601 63.0834 135.022C63.0834 130.524 62.4611 126.256 61.2164 122.309C59.9718 118.362 58.2484 114.92 56.0942 111.982C53.94 109.045 51.4507 106.705 48.5305 105.052C45.6582 103.354 42.5466 102.528 39.2914 102.528C37.9031 102.528 36.4191 102.666 34.8872 102.987C33.3074 103.308 31.6798 103.721 30.0522 104.272C28.4245 104.823 26.7969 105.465 25.2172 106.291C23.6374 107.072 22.2013 107.99 20.9566 108.953L20.9087 108.999Z" fill="#fff"/>
<path d="M133.831 53.4219C138.905 53.4219 143.548 54.0185 147.809 55.2118C152.069 56.405 155.756 58.1031 158.867 60.2143C161.979 62.3713 164.372 64.8955 166.096 67.8328C167.819 70.77 168.681 73.9827 168.681 77.4707C168.681 79.6736 167.963 82.106 166.479 84.6302C164.995 87.2003 163.08 89.6327 160.638 92.0651C158.245 94.4517 155.468 96.7005 152.309 98.7199C149.197 100.739 145.99 102.346 142.687 103.585C147.522 106.292 151.734 109.138 155.373 112.213C159.011 115.288 162.027 118.317 164.42 121.3C166.814 124.283 168.585 127.22 169.782 130.02C170.979 132.82 171.553 135.298 171.553 137.501C171.553 141.402 170.596 145.073 168.729 148.516C166.862 151.958 164.277 154.987 161.021 157.557C157.766 160.127 153.936 162.192 149.58 163.707C145.176 165.221 140.532 166.001 135.602 166.001C130.336 166.001 125.549 165.313 121.145 163.982C116.74 162.651 112.959 160.769 109.799 158.429C106.64 156.088 104.15 153.289 102.379 150.076C100.608 146.863 99.7461 143.375 99.7461 139.612C99.7461 136.17 100.321 133.049 101.469 130.249C102.618 127.45 104.246 124.834 106.352 122.447C108.459 120.061 111.044 117.766 114.06 115.563C117.076 113.406 120.474 111.203 124.208 109.046C120.139 106.109 116.693 103.493 113.772 101.106C110.852 98.7199 108.507 96.4251 106.687 94.1304C104.868 91.8357 103.528 89.495 102.666 87.0626C101.805 84.6302 101.374 81.9224 101.374 78.9393C101.374 75.4513 102.235 72.1469 103.911 69.0719C105.634 65.997 107.932 63.2892 110.852 60.9486C113.772 58.608 117.219 56.8181 121.145 55.4412C125.07 54.0644 129.283 53.4219 133.783 53.4219H133.831ZM128.469 111.983C125.836 114.003 123.634 116.114 121.815 118.363C119.996 120.612 118.512 122.906 117.363 125.247C116.214 127.542 115.352 129.836 114.826 132.085C114.299 134.288 114.012 136.353 114.012 138.281C114.012 141.356 114.586 144.247 115.735 147.001C116.884 149.709 118.512 152.095 120.522 154.069C122.533 156.088 124.879 157.649 127.559 158.842C130.192 160.035 133.065 160.586 136.08 160.586C139.096 160.586 142.064 160.173 144.793 159.393C147.522 158.612 149.915 157.465 151.974 156.042C154.032 154.62 155.66 152.967 156.857 151.132C158.053 149.296 158.628 147.276 158.628 145.073C158.628 143.513 158.293 141.907 157.623 140.163C156.952 138.419 156.091 136.675 154.99 134.885C153.889 133.095 152.596 131.443 151.208 129.882C149.772 128.322 148.24 126.945 146.66 125.706L128.517 112.075L128.469 111.983ZM138.666 100.556C141.107 98.7199 143.309 96.8382 145.32 94.8647C147.33 92.8912 149.054 90.826 150.442 88.623C151.878 86.466 152.979 84.1713 153.745 81.7389C154.511 79.3064 154.894 76.6904 154.894 73.8909C154.894 71.7797 154.415 69.8063 153.458 67.9705C152.5 66.1347 151.16 64.5284 149.389 63.1515C147.617 61.7747 145.463 60.6732 142.926 59.893C140.341 59.1128 137.469 58.6998 134.261 58.6998C131.389 58.6998 128.756 59.1587 126.41 60.0307C124.017 60.9027 122.006 62.096 120.283 63.5646C118.607 65.0332 117.267 66.6854 116.31 68.5671C115.352 70.4488 114.873 72.3764 114.873 74.3039C114.873 77.0117 115.592 79.5359 117.076 81.9224C118.56 84.309 120.427 86.6037 122.772 88.8066C125.118 90.9637 127.655 93.0289 130.48 95.0024C133.304 96.9759 136.033 98.8117 138.713 100.556H138.666Z" fill="#fff"/>
<path d="M213.455 8.58594L265.252 112.4L313.171 8.58594H337.968L267.454 161.094H249.358L173.77 8.58594H213.503H213.455Z" fill="white"/>
<path d="M375.93 161.039C368.462 161.039 361.425 159.708 354.818 157.046C348.26 154.384 342.515 150.805 337.585 146.261C332.702 141.717 328.824 136.485 325.952 130.473C323.128 124.461 321.691 118.128 321.691 111.427C321.691 103.487 322.984 96.0982 325.617 89.2599C328.25 82.4216 331.936 76.5471 336.723 71.5905C341.51 66.6339 347.303 62.7787 354.005 59.9332C360.707 57.0878 368.222 55.7109 376.504 55.7109C383.828 55.7109 390.578 56.8124 396.658 59.0612C402.785 61.3101 408.003 64.3391 412.36 68.2402C416.716 72.1412 420.115 76.7307 422.508 81.9168C424.902 87.1029 426.099 92.7938 426.099 98.8519H353.047C353.286 104.451 354.1 109.775 355.632 114.869C357.116 119.963 359.079 124.415 361.568 128.316C364.058 132.171 366.93 135.292 370.281 137.587C373.632 139.882 377.318 141.029 381.387 141.029C384.882 141.029 388.328 140.432 391.727 139.239C395.126 138.046 398.286 136.44 401.158 134.42C404.03 132.401 406.519 130.06 408.626 127.352C410.732 124.691 412.264 121.799 413.221 118.724L429.593 121.111C428.014 126.618 425.381 131.804 421.743 136.623C418.104 141.488 413.892 145.664 409.057 149.29C404.222 152.87 398.956 155.715 393.211 157.826C387.467 159.938 381.674 160.947 375.882 160.947L375.93 161.039ZM389.429 88.4797C389.19 85.4965 388.568 82.7429 387.515 80.2646C386.461 77.7862 385.073 75.6751 383.35 73.9311C381.626 72.1871 379.711 70.8103 377.509 69.8465C375.307 68.8827 372.962 68.3779 370.424 68.3779C368.462 68.3779 366.499 68.8368 364.584 69.8006C362.669 70.7644 360.946 72.0953 359.414 73.8852C357.882 75.6751 356.59 77.7862 355.489 80.2646C354.388 82.7429 353.669 85.4507 353.286 88.4797H389.382H389.429Z" fill="white"/>
<path d="M519.883 89.629C519.883 87.0589 519.596 84.7642 519.022 82.7907C518.447 80.8173 517.681 79.1192 516.676 77.7882C515.671 76.4573 514.57 75.4017 513.277 74.7133C511.985 74.0249 510.692 73.6577 509.304 73.6577C507.915 73.6577 506.336 73.9331 504.564 74.4379C502.793 74.9427 500.926 75.723 498.964 76.6867C497.001 77.6505 494.99 78.8438 492.98 80.2206C490.921 81.5975 488.958 83.1579 487.091 84.8101V158.7H454.922V57.7782H487.091V65.7179C491.974 62.2299 497.192 59.7057 502.841 58.1453C508.49 56.5849 514.091 55.8047 519.692 55.8047C524.048 55.8047 528.165 56.6308 532.043 58.1912C535.92 59.7516 539.367 61.9546 542.287 64.7082C545.207 67.4619 547.553 70.7204 549.276 74.4838C551 78.2472 551.861 82.24 551.861 86.5082V158.746H519.931V89.6749L519.883 89.629Z" fill="white"/>
<path d="M568.845 70.1174V59.9747C572.627 59.9747 576.217 59.0568 579.568 57.2669C582.967 55.477 585.983 52.9987 588.711 49.8779C591.44 46.757 593.738 43.1773 595.701 39.0008C597.615 34.8703 599.052 30.4186 600.009 25.6914H617.674V57.7717H643.716V70.1174H617.674V135.334C617.674 137.353 618.2 139.097 619.301 140.612C620.402 142.126 621.886 142.86 623.753 142.86C624.854 142.86 626.051 142.493 627.344 141.805C628.636 141.116 629.929 140.29 631.125 139.281C632.322 138.317 633.375 137.353 634.333 136.389C635.29 135.425 635.913 134.691 636.295 134.14L647.306 142.401C645.487 145.063 643.524 147.496 641.418 149.79C639.311 152.039 636.87 154.013 634.093 155.711C631.317 157.363 628.157 158.694 624.615 159.612C621.072 160.576 616.955 161.035 612.312 161.035C607.668 161.035 604.03 160.438 600.679 159.199C597.376 157.96 594.6 156.262 592.397 154.059C590.195 151.856 588.52 149.24 587.371 146.211C586.222 143.182 585.695 139.831 585.695 136.114V70.0715H568.797L568.845 70.1174Z" fill="white"/>
<path d="M697.382 57.7734V128.956C697.382 130.884 697.765 132.765 698.579 134.509C699.393 136.253 700.494 137.768 701.882 139.053C703.271 140.338 704.946 141.348 706.813 142.082C708.68 142.816 710.643 143.183 712.749 143.183C713.898 143.183 715.238 142.862 716.77 142.265C718.302 141.623 719.834 140.751 721.366 139.604C722.898 138.456 724.382 137.125 725.914 135.611C727.398 134.096 728.738 132.444 729.887 130.654V57.8193H761.817V158.787H729.887V149.379C725.674 152.867 721.174 155.621 716.483 157.64C711.744 159.659 707.148 160.669 702.648 160.669C697.43 160.669 692.547 159.843 688.047 158.145C683.548 156.493 679.622 154.198 676.271 151.353C672.92 148.507 670.287 145.157 668.372 141.302C666.457 137.446 665.5 133.362 665.5 128.956V57.7734H697.43H697.382Z" fill="white"/>
<path d="M822.766 158.751H790.836V57.7829H822.766V65.3096C826.309 61.9134 830.234 59.1138 834.447 57.0027C838.659 54.8915 843.159 53.8359 847.946 53.8359C850.867 53.8359 853.547 54.2031 856.085 54.9374C858.574 55.6717 860.776 56.6355 862.643 57.8747C864.51 59.1138 865.946 60.5365 867.047 62.1429C868.148 63.7951 868.675 65.5391 868.675 67.4207C868.675 69.3024 868.292 70.9087 867.574 72.3774C866.856 73.8919 865.85 75.131 864.558 76.1866C863.265 77.2422 861.829 78.0683 860.154 78.6649C858.478 79.2616 856.707 79.5369 854.792 79.5369C852.255 79.5369 850.196 79.1698 848.569 78.3896C846.989 77.6093 845.505 76.7832 844.165 75.8654C842.824 74.9475 841.436 74.1214 840.096 73.3412C838.707 72.5609 836.984 72.1938 834.973 72.1938C833.968 72.1938 832.915 72.5609 831.814 73.3412C830.713 74.1214 829.66 75.1769 828.606 76.462C827.553 77.7929 826.548 79.2616 825.543 80.9597C824.537 82.6119 823.628 84.3559 822.766 86.0999V158.751Z" fill="white"/>
<path d="M930.18 161.039C922.712 161.039 915.675 159.708 909.068 157.046C902.51 154.384 896.765 150.805 891.835 146.261C886.904 141.717 883.074 136.485 880.202 130.473C877.378 124.461 875.941 118.128 875.941 111.427C875.941 103.487 877.234 96.0982 879.867 89.2599C882.5 82.4216 886.186 76.5471 890.973 71.5905C895.76 66.6339 901.553 62.7787 908.255 59.9332C914.957 57.0878 922.472 55.7109 930.754 55.7109C938.078 55.7109 944.828 56.8124 950.908 59.0612C957.035 61.3101 962.253 64.3391 966.61 68.2402C970.966 72.1412 974.365 76.7307 976.758 81.9168C979.152 87.1029 980.349 92.7938 980.349 98.8519H907.297C907.537 104.451 908.35 109.775 909.882 114.869C911.366 119.963 913.377 124.415 915.818 128.316C918.308 132.171 921.18 135.292 924.531 137.587C927.882 139.882 931.568 141.029 935.637 141.029C939.132 141.029 942.578 140.432 945.977 139.239C949.376 138.046 952.536 136.44 955.408 134.42C958.28 132.401 960.769 130.06 962.876 127.352C964.982 124.691 966.514 121.799 967.471 118.724L983.843 121.111C982.264 126.618 979.631 131.804 975.992 136.623C972.354 141.442 968.142 145.664 963.307 149.29C958.472 152.87 953.206 155.715 947.461 157.826C941.717 159.938 935.924 160.947 930.132 160.947L930.18 161.039ZM943.679 88.4797C943.44 85.4965 942.818 82.7429 941.765 80.2646C940.711 77.7862 939.323 75.6751 937.6 73.9311C935.876 72.1871 933.961 70.8103 931.759 69.8465C929.557 68.8827 927.212 68.3779 924.674 68.3779C922.712 68.3779 920.749 68.8368 918.834 69.8006C916.919 70.7644 915.196 72.0953 913.664 73.8852C912.132 75.6751 910.84 77.7862 909.739 80.2646C908.638 82.7429 907.919 85.4507 907.536 88.4797H943.631H943.679Z" fill="white"/>
<path d="M1019.08 130.518C1020.95 135.98 1023.63 140.202 1027.08 143.323C1030.52 146.444 1034.88 147.958 1040.1 147.958C1042.3 147.958 1044.31 147.683 1046.13 147.132C1048 146.581 1049.57 145.801 1050.87 144.883C1052.16 143.919 1053.21 142.864 1053.93 141.579C1054.65 140.34 1055.03 139.009 1055.03 137.586C1055.03 135.199 1054.55 133.088 1053.6 131.207C1052.64 129.325 1051.35 127.627 1049.72 126.066C1048.09 124.552 1046.13 123.129 1043.83 121.89C1041.53 120.651 1039.09 119.412 1036.46 118.218C1032.29 116.474 1028.18 114.593 1024.06 112.528C1019.94 110.462 1016.26 108.122 1012.95 105.414C1009.65 102.752 1006.97 99.677 1004.96 96.2808C1002.95 92.8846 1001.9 88.8918 1001.9 84.3482C1001.9 80.08 1002.8 76.2249 1004.67 72.691C1006.54 69.1571 1009.12 66.1739 1012.52 63.6497C1015.92 61.1255 1019.89 59.1979 1024.59 57.7752C1029.28 56.3525 1034.4 55.6641 1040.05 55.6641C1045.22 55.6641 1049.77 56.123 1053.74 57.0409C1057.71 57.9588 1061.21 59.2438 1064.27 60.9419C1067.34 62.64 1070.02 64.7512 1072.27 67.2295C1074.56 69.7078 1076.62 72.4615 1078.54 75.5364L1060.11 81.824C1059.1 78.6114 1057.9 76.0872 1056.52 74.2973C1055.13 72.5074 1053.69 71.1306 1052.21 70.2127C1050.72 69.2948 1049.24 68.744 1047.8 68.6063C1046.37 68.4228 1045.07 68.331 1043.97 68.331C1042.01 68.331 1040.14 68.5605 1038.37 68.9735C1036.6 69.3866 1035.02 69.9832 1033.63 70.8093C1032.25 71.6354 1031.14 72.5992 1030.38 73.7465C1029.56 74.8939 1029.18 76.2249 1029.18 77.7853C1029.18 79.7128 1029.71 81.5486 1030.76 83.2008C1031.81 84.853 1033.25 86.4594 1035.07 87.9739C1036.89 89.4884 1039.04 90.8652 1041.53 92.1962C1044.02 93.5271 1046.8 94.7663 1049.77 95.9595C1054.22 97.7035 1058.53 99.6311 1062.79 101.834C1067.05 103.991 1070.78 106.424 1074.09 109.131C1077.34 111.839 1079.97 114.868 1081.98 118.218C1083.99 121.569 1085 125.286 1085 129.417C1085 133.823 1084.23 137.907 1082.7 141.762C1081.17 145.618 1078.73 148.922 1075.33 151.813C1071.93 154.659 1067.57 156.908 1062.12 158.56C1056.71 160.212 1050.15 161.038 1042.44 161.038C1035.88 161.038 1030.33 160.304 1025.73 158.881C1021.14 157.458 1017.31 155.577 1014.1 153.282C1010.94 150.987 1008.31 148.417 1006.2 145.618C1004.1 142.772 1002.28 139.972 1000.75 137.219L1018.94 130.518H1019.08Z" fill="white"/>
<path d="M959.095 13.2117C957.611 16.103 956.366 18.6731 954.93 21.1973C952.776 24.9148 949.09 26.2916 944.973 26.6588C941.095 27.0259 937.505 24.8689 936.452 21.4268C935.111 17.0668 934.824 12.615 936.452 8.25503C938.271 3.25252 942.292 0.452946 947.606 0.223473C952.058 0.0398947 954.307 1.37084 956.127 5.36367C957.18 7.7043 957.946 10.1367 959.142 13.2117" fill="white"/>
<path d="M1035.02 15.6172C1035.02 6.71364 1041.34 0.793229 1049.57 0.976808C1055.13 1.0686 1060.01 6.1629 1058.67 11.2113C1057.38 16.1679 1054.94 20.7574 1049.62 23.1898C1045.98 24.842 1042.39 24.4749 1039.04 22.8226C1035.79 21.2163 1034.54 18.2332 1035.07 15.6172" fill="white"/>
<path d="M897.192 0.0458946C898.054 0.367157 899.346 0.688419 900.495 1.19326C907.293 4.08462 911.314 10.1886 904.325 19.184C901.788 22.4425 896.33 23.6816 891.687 22.1671C888.049 20.9738 885.894 17.44 885.942 13.08C885.99 6.05809 889.82 1.92757 897.144 0" fill="white"/>
<path d="M983.837 21.3523C983.071 14.7434 985.8 10.0622 989.055 5.70219C991.257 2.76494 997.193 2.07652 1000.88 4.09588C1003.18 5.33503 1005.19 7.03314 1007.2 8.40997C1007.39 18.0937 1003.46 22.4078 994.225 22.6832C992.263 22.7291 990.252 22.5914 988.241 22.4078C986.949 22.2701 985.704 21.8112 983.789 21.3523" fill="white"/>
<path d="M845.923 23.5824C838.407 23.6283 834.147 16.9736 837.498 10.4106C837.929 9.58452 838.503 8.75842 839.03 7.97821C843.721 0.910438 849.753 0.864543 854.349 7.97821C856.838 11.8334 856.503 15.8262 854.349 19.7272C852.577 22.9858 849.322 23.5365 845.875 23.6283" fill="white"/>
</svg>
