<svg width="380" height="44" viewBox="0 0 380 44" fill="none" xmlns="http://www.w3.org/2000/svg">
<g clip-path="url(#clip0_34_3939)">
<path d="M0.179688 36.2335V9.9668H5.67756V31.3668H17.2554V36.2501H0.179688V36.2335Z" fill="#FFF"/>
<path d="M17.8047 26.7832C17.8047 21.1499 21.8472 17.0332 27.4906 17.0332C33.134 17.0332 37.1766 21.1665 37.1766 26.7832C37.1766 32.3999 33.134 36.5332 27.4906 36.5332C21.8472 36.5332 17.8047 32.3999 17.8047 26.7832ZM32.083 26.7832C32.083 23.6332 30.2234 21.4999 27.4906 21.4999C24.7579 21.4999 22.8983 23.6332 22.8983 26.7832C22.8983 29.9332 24.7579 32.0332 27.4906 32.0332C30.2234 32.0332 32.083 29.8999 32.083 26.7832Z" fill="#FFF"/>
<path d="M39.4258 36.2342V17.3176H44.5194V19.9509C45.5381 18.1176 47.5756 17.0176 50.0981 17.0176C54.2539 17.0176 56.9381 20.1009 56.9381 24.4509V36.2342H51.8445V25.6176C51.8445 23.3342 50.4215 21.6842 48.3194 21.6842C46.1041 21.6842 44.5356 23.4509 44.5356 25.8842V36.2509H39.442L39.4258 36.2342Z" fill="#FFF"/>
<path d="M72.9456 17.3165H78.0392V37.3499C78.0392 41.2832 75.2741 43.8832 71.1184 43.8832H61.869V39.7999H70.3099C71.846 39.7999 72.9618 38.5665 72.9618 36.7999V34.3165C72.0077 35.6999 70.0835 36.5332 67.9329 36.5332C62.4997 36.5332 59.2656 32.6665 59.2656 26.7832C59.2656 20.8999 62.4997 17.0332 67.852 17.0332C70.0673 17.0332 71.8946 17.8999 72.9133 19.2165V17.3332L72.9456 17.3165ZM73.269 26.7665C73.269 23.5832 71.4903 21.4832 68.7575 21.4832C66.0248 21.4832 64.2784 23.5832 64.2784 26.7665C64.2784 29.9499 66.0571 32.0165 68.7575 32.0165C71.458 32.0165 73.269 29.9499 73.269 26.7665Z" fill="#FFF"/>
<path d="M86.5929 36.2331L79.8984 17.3164H85.0729L88.9376 29.5497L92.7538 17.3164H97.9606L91.2661 36.2331H86.6091H86.5929Z" fill="#FFF"/>
<path d="M99.2227 9.9668H104.607V14.7668H99.2227V9.9668ZM99.3682 36.2335V17.3168H104.462V36.2335H99.3682Z" fill="#FFF"/>
<path d="M124.788 29.8176C124.06 33.9009 120.568 36.5342 116.056 36.5342C109.831 36.5342 106.629 31.5009 106.629 26.7342C106.629 21.9676 109.475 17.0176 115.7 17.0176C121.926 17.0176 124.772 21.9342 124.772 26.2509C124.772 26.9676 124.74 27.5342 124.691 27.9342H111.512C111.884 30.6009 113.517 32.2509 116.056 32.2509C118.094 32.2509 119.436 31.4176 119.84 29.8176H124.788ZM111.577 24.6342H119.694C119.549 22.5342 118.126 20.8509 115.684 20.8509C113.388 20.8509 112.014 22.0176 111.577 24.6342Z" fill="#FFF"/>
<path d="M130.674 36.2331L124.707 17.3164H129.801L132.889 28.9831L136.123 17.3164H140.748L144.03 28.9831L147.119 17.3164H152.18L146.246 36.2331H141.799L138.452 24.4497L135.072 36.2331H130.674Z" fill="#FFF"/>
<path d="M213.125 36.2335V9.9668H218.623V36.2335H213.125Z" fill="#FFF"/>
<path d="M222.293 36.2342V17.3176H227.387V19.9509C228.405 18.1176 230.443 17.0176 232.965 17.0176C237.121 17.0176 239.805 20.1009 239.805 24.4509V36.2342H234.712V25.6176C234.712 23.3342 233.289 21.6842 231.187 21.6842C228.971 21.6842 227.403 23.4509 227.403 25.8842V36.2509H222.309L222.293 36.2342Z" fill="#FFF"/>
<path d="M243.07 36.2342V17.3176H248.164V19.9509C249.183 18.1176 251.22 17.0176 253.743 17.0176C257.898 17.0176 260.583 20.1009 260.583 24.4509V36.2342H255.489V25.6176C255.489 23.3342 254.066 21.6842 251.964 21.6842C249.749 21.6842 248.18 23.4509 248.18 25.8842V36.2509H243.086L243.07 36.2342Z" fill="#FFF"/>
<path d="M262.766 26.7832C262.766 21.1499 266.808 17.0332 272.452 17.0332C278.095 17.0332 282.138 21.1665 282.138 26.7832C282.138 32.3999 278.095 36.5332 272.452 36.5332C266.808 36.5332 262.766 32.3999 262.766 26.7832ZM277.044 26.7832C277.044 23.6332 275.184 21.4999 272.452 21.4999C269.719 21.4999 267.859 23.6332 267.859 26.7832C267.859 29.9332 269.719 32.0332 272.452 32.0332C275.184 32.0332 277.044 29.8999 277.044 26.7832Z" fill="#FFF"/>
<path d="M288.511 36.2331L281.816 17.3164H286.991L290.856 29.5497L294.672 17.3164H299.879L293.184 36.2331H288.527H288.511Z" fill="#FFF"/>
<path d="M316.321 24.0832V36.2499H311.292V33.6165C310.678 35.3832 308.641 36.5499 306.118 36.5499C302.544 36.5499 300.119 34.1165 300.119 30.8832C300.119 27.1665 302.819 24.9165 306.813 24.9165H309.902C310.807 24.9165 311.292 24.3165 311.292 23.5332C311.292 21.9499 310.096 20.8665 308.01 20.8665C305.795 20.8665 304.663 22.2999 304.582 23.8665H300.07C300.281 20.0832 303.272 17.0332 308.301 17.0332C312.926 17.0332 316.305 19.8165 316.305 24.0832H316.321ZM311.292 28.4665V28.1999H307.573C306.037 28.1999 304.954 29.1832 304.954 30.6332C304.954 31.8665 305.972 32.7332 307.395 32.7332C309.869 32.7332 311.292 30.8499 311.292 28.4499V28.4665Z" fill="#FFF"/>
<path d="M321.482 11.7344H326.543V17.3344H331.459V21.6844H326.543V28.8177C326.543 30.651 327.497 31.5177 329.131 31.5177H331.459V36.251H328.435C324.215 36.251 321.482 33.7677 321.482 29.3844V21.6844H317.957V17.3344H321.482V11.7344Z" fill="#FFF"/>
<path d="M333.383 9.9668H338.767V14.7668H333.383V9.9668ZM333.528 36.2335V17.3168H338.622V36.2335H333.528Z" fill="#FFF"/>
<path d="M340.805 26.7832C340.805 21.1499 344.847 17.0332 350.491 17.0332C356.134 17.0332 360.177 21.1665 360.177 26.7832C360.177 32.3999 356.134 36.5332 350.491 36.5332C344.847 36.5332 340.805 32.3999 340.805 26.7832ZM355.083 26.7832C355.083 23.6332 353.223 21.4999 350.491 21.4999C347.758 21.4999 345.898 23.6332 345.898 26.7832C345.898 29.9332 347.758 32.0332 350.491 32.0332C353.223 32.0332 355.083 29.8999 355.083 26.7832Z" fill="#FFF"/>
<path d="M362.277 36.2342V17.3176H367.371V19.9509C368.39 18.1176 370.427 17.0176 372.95 17.0176C377.105 17.0176 379.79 20.1009 379.79 24.4509V36.2342H374.696V25.6176C374.696 23.3342 373.273 21.6842 371.171 21.6842C368.956 21.6842 367.387 23.4509 367.387 25.8842V36.2509H362.294L362.277 36.2342Z" fill="#FFF"/>
<path d="M177.888 15.8508C176.514 15.8508 175.414 14.7008 175.414 13.3008V3.10078C175.414 1.68411 176.53 0.550781 177.888 0.550781C179.246 0.550781 180.362 1.70078 180.362 3.10078V13.3008C180.362 14.7174 179.246 15.8508 177.888 15.8508Z" fill="#FFF"/>
<path d="M200.155 28.6H190.259C188.885 28.6 187.785 27.4667 187.785 26.05C187.785 24.6333 188.901 23.5 190.259 23.5H200.155C201.53 23.5 202.629 24.65 202.629 26.05C202.629 27.45 201.514 28.6 200.155 28.6Z" fill="#FFF"/>
<path d="M165.518 28.6H163.044C161.67 28.6 160.57 27.4667 160.57 26.05C160.57 24.6333 161.686 23.5 163.044 23.5H165.518C166.893 23.5 167.992 24.65 167.992 26.05C167.992 27.45 166.877 28.6 165.518 28.6Z" fill="#FFF"/>
<path d="M169.155 19.6016C168.525 19.6016 167.894 19.3516 167.409 18.8516L163.771 15.1016C162.8 14.1016 162.8 12.4849 163.771 11.5016C164.741 10.5182 166.309 10.5016 167.263 11.5016L170.902 15.2516C171.872 16.2516 171.872 17.8682 170.902 18.8516C170.417 19.3516 169.786 19.6016 169.155 19.6016Z" fill="#FFF"/>
<path d="M177.888 43.9C176.514 43.9 175.414 42.7667 175.414 41.35V38.8C175.414 37.3833 176.53 36.25 177.888 36.25C179.246 36.25 180.362 37.3833 180.362 38.8V41.35C180.362 42.7667 179.246 43.9 177.888 43.9Z" fill="#FFF"/>
<path d="M190.26 41.3505C189.63 41.3505 188.999 41.1005 188.514 40.6005L184.892 36.8672C183.922 35.8672 183.922 34.2505 184.892 33.2672C185.862 32.2839 187.43 32.2672 188.384 33.2672L192.007 37.0005C192.977 38.0005 192.977 39.6172 192.007 40.6005C191.522 41.1005 190.891 41.3505 190.26 41.3505Z" fill="#FFF"/>
<path d="M186.638 19.5681C186.007 19.5681 185.377 19.3181 184.892 18.8181C183.922 17.8181 183.922 16.2014 184.892 15.2181L193.462 6.38477C194.432 5.38477 196.001 5.38477 196.955 6.38477C197.909 7.38477 197.925 9.00143 196.955 9.98477L188.384 18.8181C187.899 19.3181 187.269 19.5681 186.638 19.5681Z" fill="#FFF"/>
<path d="M176.642 29.8668C176.011 29.8668 175.381 29.6168 174.896 29.1168C173.925 28.1168 173.925 26.5001 174.896 25.5168L177.37 22.9668C178.34 21.9668 179.908 21.9668 180.862 22.9668C181.833 23.9668 181.833 25.5835 180.862 26.5668L178.388 29.1168C177.903 29.6168 177.273 29.8668 176.642 29.8668Z" fill="#FFF"/>
</g>
<defs>
<clipPath id="clip0_34_3939">
<rect width="380" height="44" fill="white"/>
</clipPath>
</defs>
</svg>
