<?xml version="1.0" encoding="UTF-8"?>
<svg version="1.1" xmlns="http://www.w3.org/2000/svg" width="352" height="80">
<path d="M0 0 C7.92 0 15.84 0 24 0 C24 0.66 24 1.32 24 2 C25.17755859 2.22042969 25.17755859 2.22042969 26.37890625 2.4453125 C33.16040511 3.89314171 38.63620454 5.33811348 43 11 C44.4375 13.9375 44.4375 13.9375 44 17 C39.55296933 22.70194617 33.88086992 25.32756634 27 27 C35.63259697 37.49060626 47.85233895 50.49105518 62 53 C61.67 53.99 61.34 54.98 61 56 C45.0681067 53.26211326 34.19330888 46.15777457 23 35 C22.09121094 34.09507813 22.09121094 34.09507813 21.1640625 33.171875 C20.77992188 32.78515625 20.39578125 32.3984375 20 32 C19.98582031 32.87140625 19.97164062 33.7428125 19.95703125 34.640625 C19.60663862 43.39097061 17.88945234 50.16368644 14 58 C12.68 58 11.36 58 10 58 C5.90438353 49.61229838 4.16556923 42.33208369 4 33 C3.34 33 2.68 33 2 33 C0.97350723 34.12525155 0.00412304 35.30282645 -0.9375 36.5 C-10.60391046 47.80749878 -23.40473844 54.10854444 -38 56 C-38 55.01 -38 54.02 -38 53 C-37.42894531 52.81566406 -36.85789063 52.63132813 -36.26953125 52.44140625 C-24.74530587 48.31906808 -8.74649754 38.49299508 -3 27 C-3.6290625 26.79246094 -4.258125 26.58492187 -4.90625 26.37109375 C-11.48659414 24.00256626 -16.05251669 20.91984374 -21 16 C-19.61876296 10.7819934 -16.537447 7.69919924 -12 5 C-8.05256758 3.67926106 -4.08876767 2.76538508 0 2 C0 1.34 0 0.68 0 0 Z M11 2 C11 19.82 11 37.64 11 56 C11.66 56 12.32 56 13 56 C13 38.18 13 20.36 13 2 C12.34 2 11.68 2 11 2 Z M21 8 C20.67 12.29 20.34 16.58 20 21 C25.12991866 20.56526113 28.79792044 20.21335496 33 17 C33.66 16.01 34.32 15.02 35 14 C30.63139341 9.7723162 26.81847474 9.04211488 21 8 Z M-8 11 C-9.99416403 13.00959562 -9.99416403 13.00959562 -11 15 C-7.7683806 18.87794328 -4.89253251 19.95160018 0 21 C1.32 21 2.64 21 4 21 C3.67 16.71 3.34 12.42 3 8 C-1.07343741 8 -4.36642767 9.19078378 -8 11 Z " fill="#FFFFFF" transform="translate(172,3)"/>
<path d="M0 0 C4.53787055 9.5859159 8.88747441 19.22333661 13 29 C15.52254447 25.90429716 17.11294509 22.79838545 18.69921875 19.140625 C19.18583984 18.02558594 19.67246094 16.91054688 20.17382812 15.76171875 C20.67333984 14.60285156 21.17285156 13.44398437 21.6875 12.25 C22.19861328 11.07566406 22.70972656 9.90132812 23.23632812 8.69140625 C24.4955925 5.79627508 25.74995275 2.89911998 27 0 C28.4152556 -0.02724921 29.83066619 -0.04650808 31.24609375 -0.0625 C32.0342749 -0.07410156 32.82245605 -0.08570313 33.63452148 -0.09765625 C37.01159576 0.04176265 39.80970121 0.91394084 43 2 C43 2.66 43 3.32 43 4 C39.7 4.33 36.4 4.66 33 5 C33 7.64 33 10.28 33 13 C35.97 13.33 38.94 13.66 42 14 C42 14.66 42 15.32 42 16 C39.03 16.33 36.06 16.66 33 17 C33.33 27.23 33.66 37.46 34 48 C36.31 48.66 38.62 49.32 41 50 C41 50.66 41 51.32 41 52 C34.73 52 28.46 52 22 52 C22.33 51.01 22.66 50.02 23 49 C23.08178114 47.29983156 23.10749501 45.59663703 23.09765625 43.89453125 C23.09443359 42.91162109 23.09121094 41.92871094 23.08789062 40.91601562 C23.07951172 39.89185547 23.07113281 38.86769531 23.0625 37.8125 C23.05798828 36.77673828 23.05347656 35.74097656 23.04882812 34.67382812 C23.0370401 32.11582734 23.02058515 29.55794267 23 27 C22.7733667 27.57032959 22.5467334 28.14065918 22.31323242 28.72827148 C21.28275253 31.30276381 20.23540049 33.87005205 19.1875 36.4375 C18.83107422 37.33533203 18.47464844 38.23316406 18.10742188 39.15820312 C17.75615234 40.01220703 17.40488281 40.86621094 17.04296875 41.74609375 C16.72352295 42.53685303 16.40407715 43.3276123 16.07495117 44.14233398 C15 46 15 46 12 47 C8.535 38.09 8.535 38.09 5 29 C3.54901243 31.90197514 3.68794466 34.64637919 3.5 37.875 C3.01058547 46.24748432 3.01058547 46.24748432 2 49 C-3.33816149 51.66908074 -9.58431011 49.52019365 -15 48 C-15 47.34 -15 46.68 -15 46 C-10.05 45.505 -10.05 45.505 -5 45 C-5.33 32.13 -5.66 19.26 -6 6 C-9.3 5.34 -12.6 4.68 -16 4 C-16 3.34 -16 2.68 -16 2 C-10.51324804 0.13216954 -5.77807024 -0.2358396 0 0 Z " fill="#FFFFFF" transform="translate(309,0)"/>
<path d="M0 0 C2.6500046 -0.34684365 4.35281645 -0.32018372 6.91137695 0.50854492 C10.24375345 3.98258351 12.44952303 8.01038374 14.78637695 12.19604492 C15.43606445 13.29883789 16.08575195 14.40163086 16.75512695 15.5378418 C17.96381646 17.59584708 19.15920181 19.66176674 20.33666992 21.73779297 C21.82185122 24.35102126 23.36491486 26.9311081 24.91137695 29.50854492 C24.91137695 19.93854492 24.91137695 10.36854492 24.91137695 0.50854492 C39.53637695 0.50854492 39.53637695 0.50854492 44.91137695 2.50854492 C44.91137695 3.16854492 44.91137695 3.82854492 44.91137695 4.50854492 C41.61137695 5.16854492 38.31137695 5.82854492 34.91137695 6.50854492 C34.91137695 19.04854492 34.91137695 31.58854492 34.91137695 44.50854492 C38.21137695 45.16854492 41.51137695 45.82854492 44.91137695 46.50854492 C44.91137695 47.16854492 44.91137695 47.82854492 44.91137695 48.50854492 C43.55969839 48.85182837 42.2048342 49.18257189 40.84887695 49.50854492 C40.09477539 49.69416992 39.34067383 49.87979492 38.5637207 50.07104492 C37.68844727 50.21541992 36.81317383 50.35979492 35.91137695 50.50854492 C34.7718457 50.69674805 33.63231445 50.88495117 32.45825195 51.07885742 C28.91137695 50.50854492 28.91137695 50.50854492 27.38623047 49.00756836 C25.86259898 46.86043124 24.53025577 44.66923793 23.22387695 42.38354492 C22.30334445 40.860083 21.38277223 39.33664508 20.4621582 37.81323242 C20.03241699 37.08201172 19.60267578 36.35079102 19.15991211 35.59741211 C17.50629234 32.83081635 15.7273189 30.17079237 13.91137695 27.50854492 C13.82049805 29.26231445 13.82049805 29.26231445 13.7277832 31.05151367 C13.64333662 32.59970107 13.5586907 34.1478776 13.47387695 35.69604492 C13.43456055 36.4649707 13.39524414 37.23389648 13.35473633 38.02612305 C13.13630661 41.94105568 12.82445587 45.6797518 11.91137695 49.50854492 C13.39637695 50.00354492 13.39637695 50.00354492 14.91137695 50.50854492 C14.91137695 51.16854492 14.91137695 51.82854492 14.91137695 52.50854492 C8.64137695 52.50854492 2.37137695 52.50854492 -4.08862305 52.50854492 C-3.75862305 51.51854492 -3.42862305 50.52854492 -3.08862305 49.50854492 C-1.10862305 48.84854492 0.87137695 48.18854492 2.91137695 47.50854492 C2.91137695 37.93854492 2.91137695 28.36854492 2.91137695 18.50854492 C0.27137695 17.84854492 -2.36862305 17.18854492 -5.08862305 16.50854492 C-5.08862305 15.84854492 -5.08862305 15.18854492 -5.08862305 14.50854492 C-2.44862305 13.84854492 0.19137695 13.18854492 2.91137695 12.50854492 C2.64103061 10.07137234 2.64103061 10.07137234 1.91137695 7.50854492 C-0.98954807 5.57459491 -1.98537042 5.20722551 -5.27612305 4.88354492 C-6.53424805 4.75979492 -7.79237305 4.63604492 -9.08862305 4.50854492 C-9.08862305 3.84854492 -9.08862305 3.18854492 -9.08862305 2.50854492 C-6.07897738 1.48398469 -3.08425703 0.75096521 0 0 Z M25.91137695 30.50854492 C26.91137695 32.50854492 26.91137695 32.50854492 26.91137695 32.50854492 Z " fill="#FFFFFF" transform="translate(9.088623046875,-0.508544921875)"/>
<path d="M0 0 C-0.33 0.99 -0.66 1.98 -1 3 C-1.99 3 -2.98 3 -4 3 C-4.33 11.58 -4.66 20.16 -5 29 C1.48099834 32.2678726 1.48099834 32.2678726 8 31 C11.33443944 29.54276115 11.33443944 29.54276115 14 28 C12.62344977 31.07180914 11.03936308 33.28348918 8.6875 35.6875 C8.11386719 36.28949219 7.54023438 36.89148437 6.94921875 37.51171875 C5 39 5 39 0 40 C-4.62 38.02 -9.24 36.04 -14 34 C-14 23.77 -14 13.54 -14 3 C-15.98 3 -17.96 3 -20 3 C-19.67 12.9 -19.34 22.8 -19 33 C-16.69 33.99 -14.38 34.98 -12 36 C-12 36.66 -12 37.32 -12 38 C-17.94 38 -23.88 38 -30 38 C-29.34 36.35 -28.68 34.7 -28 33 C-27.75917126 29.41569055 -27.75917126 29.41569055 -27.875 25.6875 C-27.89304687 24.43324219 -27.91109375 23.17898437 -27.9296875 21.88671875 C-27.95289063 20.93410156 -27.97609375 19.98148438 -28 19 C-28.5775 19.33 -29.155 19.66 -29.75 20 C-32 21 -32 21 -36 21 C-35.98839844 21.84304687 -35.97679687 22.68609375 -35.96484375 23.5546875 C-35.95130859 25.19824219 -35.95130859 25.19824219 -35.9375 26.875 C-35.92589844 27.96554688 -35.91429687 29.05609375 -35.90234375 30.1796875 C-36 33 -36 33 -37 35 C-36.01 35 -35.02 35 -34 35 C-34 35.99 -34 36.98 -34 38 C-38.29 38 -42.58 38 -47 38 C-46.67 37.01 -46.34 36.02 -46 35 C-45.34 35 -44.68 35 -44 35 C-44 30.38 -44 25.76 -44 21 C-45.32 21.33 -46.64 21.66 -48 22 C-47.42655063 19.13275314 -47.1385485 18.1385485 -45 16 C-44.72423013 13.6545346 -44.55028694 11.29642689 -44.4375 8.9375 C-44.09722222 2.09722222 -44.09722222 2.09722222 -43 1 C-41.44459564 0.84151986 -39.88241289 0.74871705 -38.3203125 0.68359375 C-36.84498047 0.6206311 -36.84498047 0.6206311 -35.33984375 0.55639648 C-34.27894531 0.51716064 -33.21804687 0.4779248 -32.125 0.4375 C-31.05121094 0.3950415 -29.97742188 0.35258301 -28.87109375 0.30883789 C-19.24444047 -0.0450413 -9.63150911 -0.10222121 0 0 Z M-35 9 C-35.33 11.31 -35.66 13.62 -36 16 C-33.36 16 -30.72 16 -28 16 C-28.33 13.69 -28.66 11.38 -29 9 C-30.98 9 -32.96 9 -35 9 Z " fill="#FFFFFF" transform="translate(289,6)"/>
<path d="M0 0 C3.47852775 -0.02329192 6.95522386 -0.00382546 10.43359375 0.04296875 C10.43359375 1.03296875 10.43359375 2.02296875 10.43359375 3.04296875 C9.77359375 3.04296875 9.11359375 3.04296875 8.43359375 3.04296875 C8.10359375 7.33296875 7.77359375 11.62296875 7.43359375 16.04296875 C9.74359375 16.04296875 12.05359375 16.04296875 14.43359375 16.04296875 C14.10359375 11.75296875 13.77359375 7.46296875 13.43359375 3.04296875 C12.77359375 3.04296875 12.11359375 3.04296875 11.43359375 3.04296875 C11.76359375 2.05296875 12.09359375 1.06296875 12.43359375 0.04296875 C16.72359375 0.04296875 21.01359375 0.04296875 25.43359375 0.04296875 C25.43359375 1.03296875 25.43359375 2.02296875 25.43359375 3.04296875 C24.77359375 3.04296875 24.11359375 3.04296875 23.43359375 3.04296875 C23.43359375 13.27296875 23.43359375 23.50296875 23.43359375 34.04296875 C26.40359375 34.53796875 26.40359375 34.53796875 29.43359375 35.04296875 C29.76359375 36.03296875 30.09359375 37.02296875 30.43359375 38.04296875 C24.49359375 38.04296875 18.55359375 38.04296875 12.43359375 38.04296875 C12.76359375 37.05296875 13.09359375 36.06296875 13.43359375 35.04296875 C14.09359375 35.04296875 14.75359375 35.04296875 15.43359375 35.04296875 C14.44359375 27.61796875 14.44359375 27.61796875 13.43359375 20.04296875 C11.45359375 20.70296875 9.47359375 21.36296875 7.43359375 22.04296875 C7.10359375 26.33296875 6.77359375 30.62296875 6.43359375 35.04296875 C7.09359375 35.04296875 7.75359375 35.04296875 8.43359375 35.04296875 C8.10359375 36.03296875 7.77359375 37.02296875 7.43359375 38.04296875 C3.47359375 38.04296875 -0.48640625 38.04296875 -4.56640625 38.04296875 C-4.23640625 37.05296875 -3.90640625 36.06296875 -3.56640625 35.04296875 C-2.90640625 35.04296875 -2.24640625 35.04296875 -1.56640625 35.04296875 C-2.06140625 28.60796875 -2.06140625 28.60796875 -2.56640625 22.04296875 C-3.22640625 22.04296875 -3.88640625 22.04296875 -4.56640625 22.04296875 C-3.69140625 18.16796875 -3.69140625 18.16796875 -2.56640625 17.04296875 C-2.49368884 14.6898332 -2.48269757 12.33463207 -2.50390625 9.98046875 C-2.51292969 8.69011719 -2.52195312 7.39976563 -2.53125 6.0703125 C-2.54285156 5.07128906 -2.55445312 4.07226562 -2.56640625 3.04296875 C-5.53640625 4.03296875 -8.50640625 5.02296875 -11.56640625 6.04296875 C-11.56640625 15.61296875 -11.56640625 25.18296875 -11.56640625 35.04296875 C-10.90640625 35.04296875 -10.24640625 35.04296875 -9.56640625 35.04296875 C-9.89640625 36.03296875 -10.22640625 37.02296875 -10.56640625 38.04296875 C-14.52640625 38.04296875 -18.48640625 38.04296875 -22.56640625 38.04296875 C-22.56640625 37.05296875 -22.56640625 36.06296875 -22.56640625 35.04296875 C-21.90640625 35.04296875 -21.24640625 35.04296875 -20.56640625 35.04296875 C-20.56640625 26.46296875 -20.56640625 17.88296875 -20.56640625 9.04296875 C-24.52640625 9.04296875 -28.48640625 9.04296875 -32.56640625 9.04296875 C-32.56640625 7.04296875 -32.56640625 7.04296875 -31.265625 5.5703125 C-22.27302588 -1.53646001 -10.85878806 0.10680775 0 0 Z " fill="#FFFFFF" transform="translate(100.56640625,5.95703125)"/>
<path d="M0 0 C9.57 0 19.14 0 29 0 C27.52611821 4.42164536 24.50144582 5.49664913 20.58984375 7.76953125 C17.56501241 9.20666831 15.31195862 9.52294083 12 9 C11.67 11.31 11.34 13.62 11 16 C14.96 16 18.92 16 23 16 C23 16.66 23 17.32 23 18 C15.71428571 21.42857143 15.71428571 21.42857143 11 21 C10.58274322 24.37400578 10.58274322 24.37400578 11 28 C13.81492984 30.64432803 15.73057695 30.97163968 19.5625 31.375 C23.17111421 30.981333 24.35814271 30.34831759 27 28 C27.66 28 28.32 28 29 28 C27.54163159 31.29621023 25.72036808 33.69371834 23.25 36.3125 C22.59515625 37.03050781 21.9403125 37.74851563 21.265625 38.48828125 C19 40 19 40 16.09765625 39.87890625 C10.84397518 38.38826534 6.14179994 36.65039994 2 33 C0.77861202 29.2639897 0.70167594 25.89902607 1 22 C0.34 22 -0.32 22 -1 22 C-0.68289062 21.49984375 -0.36578125 20.9996875 -0.0390625 20.484375 C1.3648765 17.12758852 1.46225654 13.83713706 1.625 10.25 C1.66367187 9.55261719 1.70234375 8.85523438 1.7421875 8.13671875 C1.83598624 6.42489182 1.91906174 4.71248318 2 3 C1.34 3 0.68 3 0 3 C0 2.01 0 1.02 0 0 Z " fill="#FFFFFF" transform="translate(47,6)"/>
<path d="M0 0 C10.23 0 20.46 0 31 0 C30 3 30 3 27.125 4.5 C25.578125 5.2425 25.578125 5.2425 24 6 C23.53722656 6.52207031 23.07445312 7.04414063 22.59765625 7.58203125 C20.44392371 9.4935347 19.14295518 9.31056327 16.3125 9.1875 C15.10013672 9.14689453 15.10013672 9.14689453 13.86328125 9.10546875 C13.24839844 9.07066406 12.63351563 9.03585937 12 9 C12 10.98 12 12.96 12 15 C15.96 15.33 19.92 15.66 24 16 C20.50972412 19.49027588 18.12973033 20.90534532 13.1875 21.125 C12.465625 21.08375 11.74375 21.0425 11 21 C10.58274322 24.37400578 10.58274322 24.37400578 11 28 C13.81492984 30.64432803 15.73057695 30.97163968 19.5625 31.375 C23.17111421 30.981333 24.35814271 30.34831759 27 28 C27.66 28 28.32 28 29 28 C26.79034585 32.99426933 23.29972725 36.6819086 19 40 C16.125 40.375 16.125 40.375 13 39 C12.1440625 38.66613281 11.288125 38.33226562 10.40625 37.98828125 C7.40992393 36.58690965 5.29793437 35.39145495 3 33 C2.13870584 28.87734199 2.39586815 25.14837206 3 21 C1.68 21.33 0.36 21.66 -1 22 C0.875 18.125 0.875 18.125 2 17 C2.12602054 14.89868079 2.1757922 12.79256212 2.1875 10.6875 C2.20167969 9.53636719 2.21585938 8.38523437 2.23046875 7.19921875 C2.18551767 3.73471784 2.18551767 3.73471784 0 0 Z " fill="#FFFFFF" transform="translate(127,6)"/>
<path d="M0 0 C9.57 0 19.14 0 29 0 C27.40459489 4.78621532 23.38509217 6.78281856 19 9 C16.4216753 9.46325616 14.62857834 9.33556319 12 9 C12 11.31 12 13.62 12 16 C15.96 16 19.92 16 24 16 C24 16.66 24 17.32 24 18 C19.37802694 20.21854707 16.23175837 21.38281159 11 21 C11 23.64 11 26.28 11 29 C15.14327024 31.0088583 18.41538356 31.40215934 23 31 C26.35161246 29.61785878 26.35161246 29.61785878 29 28 C27.66972225 30.85599915 26.18844741 33.25362994 24.1875 35.6875 C23.70667969 36.28949219 23.22585937 36.89148437 22.73046875 37.51171875 C20.4561477 39.46773753 18.98809565 39.83077849 16 40 C13.4296875 39.07421875 13.4296875 39.07421875 10.875 37.6875 C10.02679688 37.23761719 9.17859375 36.78773437 8.3046875 36.32421875 C6.49535319 35.28461819 4.73626788 34.15751192 3 33 C2.48828125 30.3984375 2.48828125 30.3984375 2.3125 27.375 C2.24675781 26.37210938 2.18101562 25.36921875 2.11328125 24.3359375 C2.07589844 23.56507812 2.03851563 22.79421875 2 22 C1.34 22 0.68 22 0 22 C0.875 18.125 0.875 18.125 2 17 C2.23527773 14.65012738 2.41386417 12.29443961 2.5625 9.9375 C2.64628906 8.64714844 2.73007813 7.35679688 2.81640625 6.02734375 C2.87699219 5.02832031 2.93757812 4.02929688 3 3 C2.01 2.67 1.02 2.34 0 2 C0 1.34 0 0.68 0 0 Z " fill="#FFFFFF" transform="translate(214,6)"/>
<path d="M0 0 C9.6092603 -0.43026539 9.6092603 -0.43026539 14 3 C15 4 15 4 15.3125 7.3125 C15 11 15 11 13.6875 13.4375 C9.27648594 16.00204306 5.03163219 15.23960153 0 15 C0 10.05 0 5.1 0 0 Z M5 3 C5 6.3 5 9.6 5 13 C6.65 13 8.3 13 10 13 C12.36692966 10.15173402 12.36692966 10.15173402 11.625 6.8125 C11.41875 5.884375 11.2125 4.95625 11 4 C8.03 3.505 8.03 3.505 5 3 Z " fill="#FFFFFF" transform="translate(177,65)"/>
<path d="M0 0 C2.0625 1.625 2.0625 1.625 3 4 C2.88081199 7.39685818 2.58128695 9.94000615 0.9375 12.9375 C-2.27905997 14.70141999 -5.49385409 14.73924763 -9 14 C-11.5625 11.9375 -11.5625 11.9375 -13 9 C-13 5.23078147 -12.77884224 2.99691807 -10.4375 0 C-6.79855457 -1.49290069 -3.7261529 -1.1446868 0 0 Z M-7 1 C-9.37994368 2.94332332 -9.37994368 2.94332332 -9.25 6.5 C-9.37994368 10.05667668 -9.37994368 10.05667668 -7 12 C-4.45809998 12.2500773 -4.45809998 12.2500773 -2 12 C-0.61857444 10.83622098 -0.61857444 10.83622098 -0.75 7.625 C-0.68718456 4.11227898 -0.68718456 4.11227898 -2.3125 2.0625 C-4.09076108 0.73359337 -4.09076108 0.73359337 -7 1 Z " fill="#FFFFFF" transform="translate(217,66)"/>
<path d="M0 0 C2.31 0 4.62 0 7 0 C7 0.66 7 1.32 7 2 C6.34 2 5.68 2 5 2 C5.33 5.63 5.66 9.26 6 13 C7.32 12.67 8.64 12.34 10 12 C10.33 8.7 10.66 5.4 11 2 C10.34 2 9.68 2 9 2 C9 1.34 9 0.68 9 0 C10.98 0 12.96 0 15 0 C14.91284983 1.93833996 14.80467036 3.8757429 14.6875 5.8125 C14.62949219 6.89144531 14.57148438 7.97039062 14.51171875 9.08203125 C14 12 14 12 12.6796875 13.8671875 C9.87540327 15.75844896 7.26231237 15.29657385 4 15 C2 13 2 13 1.8046875 10.3984375 C1.82789063 9.40070313 1.85109375 8.40296875 1.875 7.375 C1.89304688 6.37210937 1.91109375 5.36921875 1.9296875 4.3359375 C1.95289063 3.56507812 1.97609375 2.79421875 2 2 C1.34 2 0.68 2 0 2 C0 1.34 0 0.68 0 0 Z " fill="#FFFFFF" transform="translate(159,65)"/>
<path d="M0 0 C4.29 0 8.58 0 13 0 C13 1.32 13 2.64 13 4 C11.35 3.67 9.7 3.34 8 3 C8 6.3 8 9.6 8 13 C8.66 13 9.32 13 10 13 C10 13.66 10 14.32 10 15 C7.69 15 5.38 15 3 15 C3 14.34 3 13.68 3 13 C3.66 13 4.32 13 5 13 C5 9.7 5 6.4 5 3 C3.02 3.33 1.04 3.66 -1 4 C-0.67 2.68 -0.34 1.36 0 0 Z " fill="#FFFFFF" transform="translate(145,65)"/>
<path d="M0 0 C2.625 0.375 2.625 0.375 5 1 C5 1.99 5 2.98 5 4 C4.34 4 3.68 4 3 4 C3 3.34 3 2.68 3 2 C2.34 2.66 1.68 3.32 1 4 C3.475 6.97 3.475 6.97 6 10 C5.34 11.65 4.68 13.3 4 15 C1.69 15 -0.62 15 -3 15 C-3 13.35 -3 11.7 -3 10 C-2.34 10 -1.68 10 -1 10 C-1 10.99 -1 11.98 -1 13 C-0.01 12.34 0.98 11.68 2 11 C1.154375 10.2575 0.30875 9.515 -0.5625 8.75 C-3 6 -3 6 -2.9375 3.8125 C-2 2 -2 2 0 0 Z " fill="#FFFFFF" transform="translate(137,65)"/>
<path d="M0 0 C0 0.99 0 1.98 0 3 C-0.66 3 -1.32 3 -2 3 C-2 2.34 -2 1.68 -2 1 C-2.66 1.66 -3.32 2.32 -4 3 C-3.34 3.53625 -2.68 4.0725 -2 4.625 C0 7 0 7 0.3125 10.1875 C0 13 0 13 -1 14 C-3.33297433 14.04092937 -5.66705225 14.04241723 -8 14 C-8 12.35 -8 10.7 -8 9 C-7.34 9 -6.68 9 -6 9 C-6 9.99 -6 10.98 -6 12 C-5.01 11.34 -4.02 10.68 -3 10 C-3.845625 9.278125 -4.69125 8.55625 -5.5625 7.8125 C-8 5 -8 5 -7.9375 2.25 C-6.18883514 -1.94679566 -3.87588852 -0.9179736 0 0 Z " fill="#FFFFFF" transform="translate(231,66)"/>
<path d="M0 0 C1.98 0 3.96 0 6 0 C5.67 4.29 5.34 8.58 5 13 C5.66 13 6.32 13 7 13 C7 13.66 7 14.32 7 15 C4.69 15 2.38 15 0 15 C0.33 14.01 0.66 13.02 1 12 C1.09225211 10.50225982 1.1300019 9.00057026 1.125 7.5 C1.12757813 6.7265625 1.13015625 5.953125 1.1328125 5.15625 C1.08145813 2.81552983 1.08145813 2.81552983 0 0 Z " fill="#FFFFFF" transform="translate(195,65)"/>
</svg>
