<?xml version="1.0" standalone="no"?>
<!DOCTYPE svg PUBLIC "-//W3C//DTD SVG 20010904//EN"
 "http://www.w3.org/TR/2001/REC-SVG-20010904/DTD/svg10.dtd">
<svg version="1.0" xmlns="http://www.w3.org/2000/svg"
 width="2098.000000pt" height="1240.000000pt" viewBox="0 0 2098.000000 1240.000000"
 preserveAspectRatio="xMidYMid meet">

<g transform="translate(0.000000,1240.000000) scale(0.100000,-0.100000)"
fill="#000000" stroke="none">
<path d="M15890 10390 c-387 -41 -791 -56 -1785 -65 -1025 -9 -1408 -23 -1850
-66 -548 -53 -978 -142 -1338 -276 -77 -28 -97 -40 -93 -52 29 -92 97 -247
170 -386 48 -94 91 -173 95 -177 3 -4 78 18 166 48 472 163 978 248 1745 294
91 5 597 14 1125 20 1476 15 1864 33 2396 111 l146 22 -38 54 c-20 30 -41 54
-46 54 -4 0 -16 16 -26 35 -10 19 -25 38 -32 41 -8 3 -33 28 -55 56 -45 56
-278 273 -290 270 -4 -1 -16 7 -25 17 -22 24 -37 24 -265 0z"/>
<path d="M5556 9150 c-339 -53 -615 -252 -751 -543 -44 -92 -82 -224 -95 -329
-6 -53 -10 -537 -10 -1343 0 -1368 0 -1358 56 -1535 116 -370 414 -613 823
-671 125 -18 332 -6 452 24 305 79 512 265 615 552 57 159 64 233 64 653 l0
372 -305 0 -304 0 -3 -377 c-3 -374 -3 -379 -27 -431 -30 -67 -105 -135 -174
-159 -37 -13 -81 -18 -152 -18 -93 0 -105 2 -167 33 -75 37 -110 72 -147 152
l-26 55 0 1355 0 1355 33 67 c37 75 72 110 152 147 48 22 69 26 155 26 71 0
115 -5 152 -18 69 -24 144 -92 174 -159 24 -52 24 -57 27 -425 l3 -373 304 0
305 0 0 374 c0 418 -6 478 -64 641 -103 286 -308 472 -611 551 -83 22 -127 27
-260 30 -88 1 -187 -1 -219 -6z"/>
<path d="M10 6940 l0 -2140 310 0 310 0 0 1288 1 1287 168 -460 c129 -351 738
-1997 776 -2097 7 -17 29 -18 271 -18 l264 0 0 2140 0 2140 -305 0 -305 0 -1
-1302 -1 -1303 -147 440 c-81 242 -279 828 -441 1303 l-295 862 -302 0 -303 0
0 -2140z"/>
<path d="M2370 8988 c15 -51 188 -624 384 -1274 l356 -1181 0 -866 0 -867 345
0 345 0 0 863 0 863 400 1254 c220 690 403 1265 406 1278 l6 22 -338 0 -339 0
-220 -890 c-120 -489 -220 -888 -221 -887 -1 1 -102 394 -223 872 -122 479
-224 878 -227 888 -5 16 -31 17 -354 17 l-348 0 28 -92z"/>
<path d="M17195 8444 c-483 -149 -1041 -261 -2185 -439 -899 -140 -1254 -203
-1640 -290 -441 -100 -730 -185 -1068 -317 l-152 -60 19 -26 c11 -15 52 -63
91 -107 103 -114 144 -165 146 -182 2 -9 8 -21 15 -27 9 -8 10 -7 4 4 -6 10
-1 8 13 -4 12 -10 19 -22 17 -27 -3 -4 24 -42 60 -83 l65 -75 35 15 c57 23
317 111 443 148 524 157 1026 257 2192 436 1111 171 1606 269 2093 412 l107
31 0 34 c0 20 -4 32 -10 28 -6 -4 -10 17 -10 54 0 34 -4 61 -10 61 -5 0 -10
20 -10 44 0 25 -4 47 -10 51 -5 3 -7 12 -4 19 3 8 1 17 -5 21 -6 3 -11 29 -11
56 0 31 -4 48 -10 44 -6 -4 -10 5 -10 20 0 14 -7 51 -15 83 -8 31 -17 69 -20
85 -3 15 -9 27 -13 26 -4 -1 -56 -16 -117 -35z"/>
<path d="M17360 7334 c-424 -114 -939 -211 -1985 -374 -1250 -194 -1762 -301
-2315 -482 -180 -59 -174 -56 -161 -72 6 -7 8 -15 5 -18 -3 -3 8 -20 25 -37
17 -18 31 -37 31 -44 0 -8 14 -26 30 -42 17 -16 30 -34 30 -40 0 -7 9 -20 20
-30 11 -10 17 -22 14 -27 -3 -5 4 -20 17 -34 12 -13 19 -24 15 -24 -4 0 2 -13
13 -29 12 -16 21 -33 21 -39 0 -5 7 -15 15 -22 9 -7 14 -19 11 -26 -2 -6 6
-22 19 -34 13 -12 21 -28 19 -34 -3 -7 4 -21 16 -31 11 -10 20 -24 20 -32 0
-10 5 -11 18 -4 25 13 320 102 477 144 481 128 926 213 1960 372 930 143 1499
249 1857 345 l39 11 -3 135 c-2 73 -7 134 -11 134 -4 0 -5 27 -1 60 5 43 3 60
-5 60 -8 0 -10 17 -6 56 3 36 2 53 -5 49 -6 -4 -10 11 -10 38 0 70 -10 107
-29 106 -9 -1 -72 -17 -141 -35z"/>
<path d="M17559 6026 c-2 -3 -128 -30 -280 -60 -305 -62 -721 -132 -1359 -231
-1213 -187 -1749 -298 -2292 -472 -191 -61 -192 -61 -159 -122 10 -17 10 -21
1 -16 -9 5 -9 3 -2 -11 11 -21 29 -121 37 -203 3 -29 10 -62 16 -72 7 -13 6
-19 -1 -19 -6 0 -8 -5 -5 -11 10 -16 22 -108 27 -222 2 -29 6 -36 18 -31 59
25 323 114 460 155 486 147 1051 261 2105 424 727 113 1366 222 1455 250 12 4
15 24 15 95 0 49 -2 90 -6 90 -3 0 -3 19 1 43 3 23 1 99 -5 167 -6 69 -10 153
-9 188 2 55 -3 72 -17 58z"/>
<path d="M17470 4585 c-129 -24 -397 -69 -595 -100 -1029 -161 -1210 -190
-1459 -236 -665 -122 -1200 -264 -1606 -427 -207 -83 -280 -119 -281 -139 -4
-59 2 -429 6 -444 4 -11 3 -19 -2 -19 -4 0 -7 -45 -6 -100 1 -55 -3 -102 -8
-105 -5 -4 -9 -17 -9 -31 0 -24 2 -24 113 35 464 246 1070 442 1867 601 342
68 589 110 1260 215 719 112 1203 195 1217 209 8 8 -16 68 -36 91 -11 11 -36
65 -56 120 -21 55 -46 109 -56 121 -10 11 -23 43 -29 72 -5 29 -16 62 -24 74
-8 13 -17 42 -21 66 -5 30 -11 42 -23 41 -10 -1 -123 -20 -252 -44z"/>
<path d="M10 2150 l0 -2140 340 0 340 0 0 844 0 844 303 4 c343 5 387 13 547
91 68 33 102 58 170 127 92 91 140 170 178 290 47 147 47 154 47 795 l0 610
-27 100 c-43 158 -97 254 -198 356 -70 70 -102 94 -171 128 -47 22 -121 51
-165 63 -77 22 -92 23 -721 26 l-643 3 0 -2141z m1146 1531 c23 -10 51 -33 64
-51 49 -68 50 -87 50 -655 0 -591 -1 -606 -64 -668 -50 -50 -89 -57 -315 -57
l-201 0 0 725 0 725 213 0 c185 0 217 -3 253 -19z"/>
<path d="M2300 2150 l0 -2140 345 0 345 0 0 901 0 900 213 -3 c209 -3 213 -3
258 -30 50 -29 89 -79 116 -148 15 -41 18 -113 23 -745 7 -732 6 -714 50 -837
l14 -38 357 0 358 0 -33 54 c-18 30 -43 85 -57 123 l-24 68 -6 675 c-6 744 -4
718 -72 859 -45 93 -158 205 -259 257 l-76 39 76 40 c105 56 199 149 245 246
67 140 69 162 65 750 -4 508 -5 526 -26 604 -66 231 -217 411 -416 493 -167
68 -135 66 -848 69 l-648 4 0 -2141z m1161 1527 c34 -18 51 -36 74 -82 l30
-59 3 -463 c2 -296 -1 -484 -8 -521 -15 -81 -54 -140 -115 -171 -47 -25 -57
-26 -252 -29 l-203 -3 0 675 0 676 213 0 c205 0 216 -1 258 -23z"/>
<path d="M4690 2150 l0 -2140 345 0 345 0 0 2140 0 2140 -345 0 -345 0 0
-2140z"/>
<path d="M5860 2150 l0 -2141 633 3 632 4 99 27 c366 100 577 341 641 732 22
135 22 2601 0 2728 -66 378 -262 622 -590 734 -147 50 -194 53 -826 53 l-589
0 0 -2140z m1158 1501 c71 -32 126 -96 155 -180 l22 -66 3 -1205 c2 -789 -1
-1233 -7 -1285 -20 -150 -93 -250 -209 -286 -20 -6 -126 -13 -234 -16 l-198
-6 0 1538 0 1537 208 -4 c191 -4 211 -6 260 -27z"/>
<path d="M8320 2150 l0 -2140 855 0 855 0 0 310 0 310 -515 0 -515 0 0 650 0
650 358 2 357 3 0 285 0 285 -357 3 -358 2 0 585 0 585 515 0 515 0 0 305 0
305 -855 0 -855 0 0 -2140z"/>
<path d="M13245 1842 c-109 -98 -219 -213 -317 -330 l-36 -44 36 -86 c20 -48
158 -375 308 -727 l272 -640 351 -3 351 -2 -13 32 c-12 29 -174 407 -689 1612
-68 159 -128 291 -133 293 -6 1 -64 -46 -130 -105z"/>
<path d="M14463 369 c-109 -54 -137 -201 -55 -291 44 -49 85 -68 147 -68 121
0 210 114 183 232 -27 121 -161 183 -275 127z m164 -16 c19 -9 48 -34 64 -56
24 -33 29 -50 29 -97 0 -47 -5 -64 -29 -97 -68 -94 -191 -98 -268 -10 -119
136 40 338 204 260z"/>
<path d="M14482 203 c3 -84 6 -98 21 -101 14 -3 17 4 17 32 0 48 27 48 58 1
12 -19 29 -35 37 -35 20 0 19 9 -4 47 -19 31 -19 31 0 49 10 9 19 29 19 44 0
42 -28 60 -94 60 l-57 0 3 -97z m108 48 c13 -25 -11 -51 -46 -51 -21 0 -24 5
-24 35 0 32 2 35 30 35 19 0 33 -7 40 -19z"/>
</g>
</svg>
