<?xml version="1.0" encoding="UTF-8"?>
<svg width="125px" height="70px" viewBox="0 0 125 70" version="1.1" xmlns="http://www.w3.org/2000/svg" xmlns:xlink="http://www.w3.org/1999/xlink">
    <!-- Generator: sketchtool 58 (101010) - https://sketch.com -->
    <title>8F7A24FC-6571-4A00-849E-E33E9533B715</title>
    <desc>Created with sketchtool.</desc>
    <defs>
        <polygon id="path-1" points="0 0.414117912 124.204289 0.414117912 124.204289 30.0231658 0 30.0231658"></polygon>
    </defs>
    <g id="Batch-6" stroke="none" stroke-width="1" fill="none" fill-rule="evenodd">
        <g id="Rivers-Simple-LP" transform="translate(-738.000000, -75.000000)">
            <g id="Rivers-Casino-Logo-Logo-/-City-Name" transform="translate(738.000000, 75.000000)">
                <g id="Rivers-Casino-___">
                    <g id="Group-41">
                        <path d="M35.9707192,67.0822277 C35.417637,67.604685 34.5666096,68.0972142 32.5537671,68.1031998 C30.1359589,68.0707066 28.9561644,67.2438389 28.9347603,65.4122457 C28.9535959,63.6311026 30.1385274,62.764901 32.5537671,62.7332628 L32.5537671,62.7341179 C34.407363,62.7401035 35.1839041,63.1018047 35.860274,63.6567552 L36.0597603,63.8217867 L37.0828767,62.5870432 L36.8825342,62.424577 C35.8696918,61.5797525 34.4878425,61.235153 32.5768836,61.2377041 C29.5700342,61.2411386 27.115411,62.6306526 27.1085616,65.4370432 C27.115411,68.2896085 29.552911,69.595324 32.5768836,69.5995995 C34.5871575,69.5995995 36.0126712,69.1925788 37.0135274,68.2827678 L37.1976027,68.1177363 L36.1684932,66.8923987 L35.9707192,67.0822277 Z" id="Fill-1" fill="#FFF"></path>
                        <path d="M45.0523973,61.1400675 L44.9128425,61.1400675 L39.3238014,69.4523537 L41.2313356,69.4523537 L42.2142123,67.9875923 L48.014726,67.9875923 L49.0215753,69.4523537 L50.9958904,69.4523537 L45.2844178,61.1400675 L45.0523973,61.1400675 Z M46.9547945,66.4535689 L43.2424658,66.4535689 L45.0806507,63.7224257 L46.9547945,66.4535689 Z" id="Fill-3" fill="#FFF"></path>
                        <path d="M61.9800514,65.0422502 C61.3353596,64.7036364 60.478339,64.5890549 59.4637842,64.5351845 L57.0725171,64.4265887 C56.3833048,64.3983708 55.8918664,64.3239784 55.613613,64.199991 C55.3396404,64.0623222 55.2771404,63.9691179 55.2642979,63.7014761 C55.2711473,63.4287039 55.3944349,63.2363096 55.8242295,63.040495 C56.248887,62.8566517 56.9492295,62.7446355 57.920976,62.7472007 C59.920976,62.7480558 60.8721747,63.120018 61.6726884,63.5509811 L61.8995719,63.6749685 L62.6547089,62.2751935 L62.4295377,62.1537714 C61.4321062,61.609937 60.1786815,61.2336994 57.920976,61.2379387 C55.3130993,61.2405401 53.5305651,62.0682628 53.5100171,63.7981008 C53.5100171,65.3757336 54.8833048,65.9375248 56.8507705,66.0221782 L59.2446062,66.1307741 C60.0117295,66.1641224 60.5553938,66.2393699 60.8516267,66.3744734 C61.1470034,66.5241134 61.2189212,66.6275788 61.233476,66.9533663 C61.2274829,67.2620522 61.0896404,67.499766 60.6384418,67.7272187 C60.1838185,67.9469757 59.4166952,68.0923402 58.3071062,68.089775 C56.1923801,68.0889199 54.9629281,67.5467957 54.2865582,67.100441 L54.0750856,66.9636274 L53.1504281,68.2967057 L53.3713185,68.4420702 C54.4663527,69.1560666 55.9372432,69.6007111 58.3071062,69.5990058 C60.7857021,69.5981458 62.9928938,68.8944104 63.0245719,66.8558866 C63.0348459,65.9956706 62.6324486,65.3740234 61.9800514,65.0422502" id="Fill-4" fill="#FFF"></path>
                        <polygon id="Fill-6" fill="#FFF" points="66.8402397 61.6272952 66.8402397 69.4530378 68.6065068 69.4530378 68.6065068 61.3707696 66.8402397 61.3707696"></polygon>
                        <polygon id="Fill-7" fill="#FFF" points="80.7353596 66.5766157 73.461387 61.2494329 73.378339 61.2494329 73.26875 61.2494329 73.0093322 61.2494329 73.0093322 69.4522682 74.7781678 69.4522682 74.7781678 64.2131593 82.0726884 69.6335464 82.2439212 69.6335464 82.5016267 69.6335464 82.5016267 61.3691449 80.7353596 61.3691449"></polygon>
                        <g id="Group-15" transform="translate(0.000000, 0.440882)">
                            <path d="M91.5545377,60.7960666 C88.6101884,60.7994869 85.9714897,62.1736094 85.9663527,64.9953915 C85.9689212,67.8616382 88.5904966,69.1545275 91.5545377,69.1579478 C94.5194349,69.1545275 97.0956336,67.8342754 97.0956336,64.9714491 C97.0922089,62.1530873 94.4894692,60.7994869 91.5545377,60.7960666 M95.2694349,64.9953915 C95.2583048,66.7842304 93.9269692,67.6350405 91.5305651,67.6632583 C89.1392979,67.6350405 87.8028253,66.7594329 87.7916952,64.9714491 C87.8002568,63.230495 89.1401541,62.3181188 91.5305651,62.2933213 C93.915839,62.3164086 95.2600171,63.2535824 95.2694349,64.9953915" id="Fill-8" fill="#FFF"></path>
                            <g id="Group-12">
                                <mask id="mask-2" fill="white">
                                    <use xlink:href="#path-1"></use>
                                </mask>
                                <g id="Clip-11"></g>
                                <path d="M52.1157534,23.1371602 C49.4,22.3342349 47.0044521,21.4962511 45.702226,20.4735689 C45.2827055,20.1238389 44.8726027,19.6937309 44.8537671,19.0327498 C44.8460616,18.5179883 45.1816781,18.0630828 45.5695205,17.7920207 C45.9642123,17.5064221 46.4402397,17.3088974 47.0429795,17.1284743 C49.3280822,16.4538119 51.7690068,16.0886904 53.8880137,15.6089874 C56.0121575,15.1395455 57.7681507,14.5332898 58.7184932,13.6072322 C59.3520548,12.9907156 59.7304795,12.2510666 59.7561644,11.0710486 L59.7561644,11.0325698 C59.7553082,10.2287894 59.2518836,9.46263276 58.0181507,8.64944644 C56.7981164,7.85165167 54.9162671,7.11371287 52.5875,6.48779028 C47.9248288,5.22910441 41.4830479,4.38513501 34.707363,3.83788029 C21.1705479,2.7399505 6.29126712,2.78869037 0.979623288,2.73738524 L0.950513699,2.73738524 C0.836643836,2.73567507 0.727910959,2.71857336 0.627739726,2.68351485 L0.626883562,2.68351485 C0.620890411,2.68094959 0.615753425,2.67923942 0.60890411,2.67752925 C0.607191781,2.67667417 0.606335616,2.67667417 0.605479452,2.674964 C0.599486301,2.67410891 0.593493151,2.67154365 0.588356164,2.67068857 C0.586643836,2.66983348 0.584931507,2.66812331 0.584931507,2.66726823 C0.580650685,2.66555806 0.57380137,2.66555806 0.569520548,2.66213771 C0.566952055,2.66042754 0.562671233,2.65957246 0.560958904,2.65957246 C0.557534247,2.65786229 0.553253425,2.65529703 0.550684932,2.65444194 C0.548116438,2.65273177 0.543835616,2.6510216 0.540410959,2.65016652 C0.537842466,2.64845635 0.532705479,2.64674617 0.530993151,2.64674617 C0.526712329,2.64418092 0.521575342,2.64247075 0.517294521,2.63990549 C0.515582192,2.63905041 0.513869863,2.63905041 0.513013699,2.63734023 C0.507876712,2.63477498 0.500171233,2.63135464 0.495034247,2.62878938 L0.493321918,2.62793429 C0.223630137,2.49283078 0.0292808219,2.24229073 0.00273972603,1.94472097 C-0.0383561644,1.47014851 0.353767123,1.05714221 0.884589041,1.01951845 C6.45565068,0.62190369 13.0549658,0.414117912 20.0464041,0.414117912 C38.1876712,0.417538254 58.9256849,1.80534203 71.2210616,5.03072457 C75.3289384,6.11753825 78.509589,7.37878938 80.4393836,9.02653915 C81.5361301,9.96371287 82.2390411,11.1069622 82.2364726,12.3784743 C82.2364726,12.4229388 82.2364726,12.4725338 82.2321918,12.5289694 C82.1714041,14.1904005 81.1200342,15.4858551 79.7493151,16.3503465 C78.3751712,17.2302295 76.6577055,17.7817597 74.9188356,18.1622727 C73.1131849,18.554757 71.2741438,18.7557021 69.7895548,18.8591674 C83.7244863,26.014523 104.195377,27.4271242 115.796404,27.4125878 C119.078082,27.4125878 121.660274,27.3031368 123.162842,27.1902655 C123.685959,27.1500765 124.147432,27.4963861 124.199658,27.9632628 C124.251027,28.4327048 123.869178,28.8499865 123.34863,28.9021467 C115.338356,29.6922457 107.963356,30.0231658 101.215925,30.0231658 C76.6910959,30.0265842 60.4419521,25.6468362 52.1157534,23.1371602" id="Fill-10" fill="#FFF" mask="url(#mask-2)"></path>
                            </g>
                            <path d="M17.5832192,45.4717372 C17.597774,43.9112061 16.9205479,42.6730423 15.6791096,41.9462196 C14.4479452,41.220252 12.722774,40.9218272 10.5164384,40.9192619 L0.454794521,40.9192619 L0.454794521,55.5583258 L3.65599315,55.5583258 L3.65770548,50.1105761 L9.60547945,50.1105761 L14.5532534,55.5583258 L14.7604452,55.5583258 L18.519863,55.5583258 L13.3597603,49.8685869 C15.9958904,49.3435644 17.602911,47.8206571 17.5832192,45.4717372 L17.5832192,45.4717372 Z M3.65770548,43.7171017 L10.2724315,43.7171017 C11.8186644,43.7128263 12.9025685,43.8547705 13.5053082,44.1514851 C14.0943493,44.4576058 14.290411,44.7680018 14.3178082,45.5589559 C14.2921233,46.3310981 14.0678082,46.6620162 13.4505137,46.9783978 C12.8212329,47.2845185 11.7407534,47.4273177 10.2724315,47.4247864 L3.65770548,47.4247864 L3.65770548,43.7171017 Z" id="Fill-13" fill="#FFF"></path>
                        </g>
                        <polygon id="Fill-16" fill="#FFF" points="27.8714041 41.360315 24.6736301 41.360315 24.6736301 41.8280468 24.6736301 55.9993789 27.8705479 55.9993789"></polygon>
                        <polygon id="Fill-17" fill="#FFF" points="44.7982021 56.4191404 45.0482021 56.4191404 55.1766267 41.3576643 51.6141267 41.3576643 51.4728596 41.5663051 44.7528253 51.6238209 37.8324486 41.3576643 34.0370719 41.3576643 44.3769692 56.4191404"></polygon>
                        <polygon id="Fill-18" fill="#FFF" points="76.7739726 53.1123537 64.4306507 53.1123537 64.4306507 49.8921017 72.9229452 49.8921017 72.9229452 47.0925518 72.4589041 47.0925518 64.4306507 47.0925518 64.4306507 44.2476823 76.2011986 44.2476823 76.2011986 41.3600585 61.2337329 41.3600585 61.2337329 55.9991224 76.7739726 55.9991224"></polygon>
                        <g id="Group-25" transform="translate(83.047945, 40.629901)" fill="#FFF">
                            <path d="M14.4110445,15.369649 L14.6148116,15.369649 L18.3767979,15.369649 L13.215839,9.67990999 C15.8494007,9.15488749 17.4615582,7.6319802 17.4375856,5.28306031 C17.4547089,3.72167417 16.7766267,2.48436544 15.5351884,1.75754275 C14.3014555,1.03072007 12.5797089,0.733150315 10.3690925,0.730585059 L0.309160959,0.730585059 L0.309160959,15.369649 L3.51292808,15.369649 L3.51292808,9.92189919 L9.46070205,9.92189919 L14.4110445,15.369649 Z M3.51207192,3.52842484 L10.1276541,3.52842484 C11.6755993,3.52414941 12.7560788,3.66609361 13.3605308,3.96280828 C13.9461473,4.26892889 14.1439212,4.57932493 14.1696062,5.37027903 C14.1473459,6.14156616 13.9247432,6.47333933 13.3048801,6.78972097 C12.6764555,7.09584158 11.5968322,7.23778578 10.1276541,7.23609087 L3.51207192,7.23609087 L3.51207192,3.52842484 Z" id="Fill-19"></path>
                            <path d="M38.8117295,7.38075608 C37.6447774,6.76936994 36.090839,6.5590189 34.2509418,6.46239424 L29.9144692,6.26743474 C28.6704623,6.21356436 27.7774829,6.08359136 27.2757705,5.85271827 C26.778339,5.60474347 26.6670377,5.43629163 26.6430651,4.95145815 C26.6541952,4.45978398 26.8802226,4.10663366 27.6550514,3.75348335 C28.4230308,3.42085509 29.6978596,3.21905491 31.4547089,3.21905491 C35.0797089,3.22846085 36.798887,3.89713771 38.2535103,4.68039604 L38.6610445,4.90357336 L40.0317637,2.369955 L39.6208048,2.14934293 C37.8160103,1.16342934 35.5523116,0.483636364 31.4547089,0.487891739 C26.7355308,0.491332133 23.5043664,1.99542754 23.4615582,5.12760576 C23.4615582,7.98615662 25.9572774,9.00285329 29.5163527,9.15078308 L33.85625,9.35343834 C35.2449486,9.41158416 36.2252568,9.5509631 36.7689212,9.79380738 C37.298887,10.059739 37.4324486,10.2512781 37.4572774,10.8412871 C37.4427226,11.4005131 37.2012842,11.8314761 36.3750856,12.2436274 C35.554024,12.6429523 34.1678938,12.9063186 32.158476,12.9028983 C28.3245719,12.9011881 26.0934075,11.9169847 24.8733733,11.1132043 L24.4898116,10.860099 L22.8142979,13.2748605 L23.2132705,13.5382268 C25.1961473,14.830261 27.8605308,15.6374617 32.158476,15.6374617 C36.6464897,15.629766 40.6439212,14.3616742 40.7004281,10.6659946 C40.7201199,9.10717372 39.9906678,7.9810261 38.8117295,7.38075608" id="Fill-21"></path>
                        </g>
                    </g>
                </g>
            </g>
        </g>
    </g>
</svg>