<svg width="167" height="48" viewBox="0 0 167 48" fill="none" xmlns="http://www.w3.org/2000/svg">
<g clip-path="url(#clip0_935_1480)">
<path d="M160.732 15.4311L161.522 13.2519L160.732 15.4311Z" fill="#fffF"/>
<path d="M29.4542 0.493225C19.4898 0.493225 15.4477 7.27676 13.954 11.4066L1.03711 47.4508H137.675C147.674 47.4508 151.769 40.6145 153.175 36.5374L166.092 0.493225H29.4542ZM149.15 35.0788C146.971 41.1418 142.367 43.1628 137.675 43.1628H7.1177L17.9784 12.8477C20.1576 6.7847 24.7619 4.76369 29.4542 4.76369H160.011L149.15 35.0788Z" fill="#FFF"/>
<path d="M144.177 18.8053H151.294L154.897 8.85844C154.897 8.85844 154.212 8.55969 152.981 8.31366C151.751 8.05005 149.924 7.78644 147.516 7.78644C140.24 7.78644 138.518 9.73714 136.251 16.1692C134.441 21.3359 135.566 23.1636 137.921 25.5186C139.555 27.1529 140.855 28.1195 139.836 30.7556L138.536 34.0771C138.237 34.8679 137.938 35.2369 137.446 35.2369C136.673 35.2369 136.62 34.7624 136.972 33.8838L138.975 28.6116H131.928L128.062 39.1735C128.062 39.1735 129.063 39.4371 130.487 39.6656C131.91 39.9116 133.808 40.1577 135.777 40.1577C143.087 40.1577 144.546 38.1015 146.655 32.1439C148.57 26.7136 147.92 24.5344 145.02 21.6699C143.035 19.7016 142.542 18.8756 143.316 16.7316L144.142 14.4997C144.458 13.621 144.722 13.3574 145.337 13.3574C145.829 13.3574 146.075 13.6561 145.759 14.57L144.212 18.8053H144.177ZM129.59 26.0985C129.397 25.6591 129.134 25.1846 128.765 24.8156C128.852 24.798 129.011 24.7277 129.204 24.6574C131.067 23.9017 132.525 22.3904 133.211 20.4748L134.915 15.7826C136.603 11.1606 134.828 8.20821 130.434 8.20821H121.999L110.523 39.7183H117.57L122.297 26.6257H122.368C123.194 26.6257 123.44 27.4868 122.877 29.1915L119.292 39.7183H126.181L129.503 30.1581C130.135 28.3655 129.924 27.0123 129.555 26.0985H129.59ZM128.114 15.4311L126.48 20.0003C126.058 21.1426 125.496 21.7226 124.564 21.7226H124.072L127.042 13.6386H127.288C128.185 13.6386 128.624 14.0428 128.114 15.4311ZM106.656 8.20821H99.0997L92.3337 17.786L96.0418 8.20821H88.608L77.1323 39.7183H84.6363L88.362 28.594L88.1511 39.7183H95.4619L95.0928 23.8842L106.639 8.20821H106.656ZM73.1957 25.624L70.173 33.8838C69.8566 34.7449 69.6282 35.2369 68.8549 35.2369C68.1344 35.2369 68.2398 34.6746 68.4859 33.9892L75.5506 14.5524C75.8845 13.6386 76.113 13.3222 76.8686 13.3222C77.4486 13.3222 77.5013 13.7264 77.185 14.6227L74.584 21.7226H81.6312L86.3059 8.87602C86.3059 8.87602 85.6908 8.61241 84.5133 8.36638C83.3183 8.10277 81.5082 7.85673 79.0127 7.85673C71.8074 7.85673 70.296 9.42081 68.2398 15.0621L61.6496 33.2335C60.191 37.2755 61.3509 40.1928 67.449 40.1928C74.0041 40.1928 75.6912 38.1015 77.1498 34.0946L80.2253 25.6064H73.2133L73.1957 25.624ZM60.8764 8.20821L49.4006 39.7183H57.2034L68.6616 8.20821H60.8764ZM52.9154 8.20821L47.7838 23.0406L49.1897 8.20821H41.1935L29.6826 39.7183H35.3238L40.596 24.9562L39.2252 39.7183H47.1687L58.539 8.20821H52.9329H52.9154ZM29.0675 21.6699C27.0992 19.7016 26.5896 18.8756 27.3628 16.7316L28.1712 14.4997C28.5051 13.621 28.7687 13.3574 29.3663 13.3574C29.8759 13.3574 30.1219 13.6561 29.788 14.57L28.2591 18.8053H35.359L38.9441 8.85844C38.9441 8.85844 38.2587 8.57727 37.0285 8.31366C35.7983 8.05005 33.9706 7.78644 31.5806 7.78644C24.3225 7.78644 22.5827 9.73714 20.3157 16.1692C18.488 21.3359 19.6303 23.1636 21.9852 25.5186C23.6196 27.1529 24.9376 28.1195 23.9008 30.7556L22.6003 34.0946C22.3015 34.8855 22.0028 35.2369 21.4931 35.2369C20.7199 35.2369 20.6847 34.78 21.0186 33.9013L23.0221 28.6291H15.9749L12.1086 39.1911C12.1086 39.1911 13.1104 39.4547 14.5163 39.6832C15.9398 39.9292 17.8553 40.1752 19.806 40.1752C27.1168 40.1752 28.593 38.1191 30.6843 32.1439C32.5999 26.7311 31.9496 24.552 29.0499 21.6699H29.0675ZM108.414 26.4675H112.684L114.653 21.1075H110.365L113.089 13.5155H118.572L120.575 8.20821H107.588L96.0945 39.7183H109.082L110.962 34.5164H105.497L108.431 26.4851L108.414 26.4675Z" fill="#FFF"/>
<path fill-rule="evenodd" clip-rule="evenodd" d="M132.297 29.1739L128.765 38.8045L129.221 38.9099L132.789 29.1739H132.297ZM145.846 12.8302C145.741 12.8302 145.671 12.8302 145.583 12.8302C146.497 12.9532 146.655 13.7616 146.321 14.6051L144.968 18.2605H145.46L146.813 14.6227C147.164 13.6913 146.954 12.8302 145.846 12.8302ZM140.012 26.327C136.638 22.8649 135.337 21.828 137.27 16.345C139.432 10.1765 140.978 8.38395 147.744 8.33123H147.533C140.539 8.33123 138.975 10.0711 136.778 16.345C134.845 21.828 136.163 22.8649 139.52 26.3094C140.891 27.7153 141.101 28.9455 140.346 30.9489L139.203 33.9892C138.817 34.9909 138.465 35.6587 137.675 35.7642C137.762 35.7642 137.85 35.7642 137.938 35.7642C138.887 35.7642 139.274 35.0788 139.696 33.9892L140.855 30.9489C141.611 28.9279 141.383 27.7153 140.029 26.3094L140.012 26.327ZM122.42 8.75301L111.349 39.1735H111.841L122.93 8.75301H122.438H122.42ZM122.807 26.0809H122.438C124.037 26.1512 124.02 27.6801 123.387 29.5078L120.083 39.1735H120.575L123.879 29.5078C124.512 27.6274 124.512 26.0633 122.789 26.0809H122.807ZM127.78 13.1113H127.288C128.536 13.1113 129.274 13.867 128.624 15.6244L126.99 20.1936C126.515 21.4941 125.795 22.285 124.564 22.285H125.056C126.287 22.285 127.007 21.5117 127.482 20.1936L129.116 15.6244C129.749 13.867 129.011 13.1113 127.763 13.1113H127.78ZM88.8717 27.0651L88.7135 39.1735H89.2056L89.3813 25.5713L88.8717 27.0651ZM99.3985 8.75301L91.578 19.684L91.0157 21.1602L99.8905 8.75301H99.3985ZM77.9055 39.1735H78.3976L89.4692 8.75301H88.9771L77.8879 39.1735H77.9055ZM77.3607 12.795C77.2728 12.795 77.1674 12.795 77.0795 12.8126C77.9582 12.918 78.0637 13.7089 77.7473 14.5876L75.3397 21.2129H75.8318L78.2394 14.5876C78.5733 13.6386 78.4152 12.795 77.3431 12.795H77.3607ZM70.6826 34.0595C70.3663 34.9206 70.0324 35.6587 69.101 35.7466C69.1713 35.7466 69.2415 35.7466 69.3294 35.7466C70.4541 35.7466 70.8232 34.9909 71.1571 34.0419L74.0568 26.1336H73.5647L70.665 34.0419L70.6826 34.0595ZM68.7319 15.2554L62.1417 33.4268C60.806 37.1174 61.7023 39.648 67.4314 39.648H67.695C62.1592 39.5777 61.2981 37.0646 62.6337 33.4093L69.2415 15.2554C71.1923 9.89532 72.4927 8.43668 79.2411 8.40153H79.0127C72.0358 8.40153 70.7353 9.80745 68.7495 15.2554H68.7319ZM50.1738 39.1735H50.6659L61.7375 8.75301H61.2454L50.1738 39.1735ZM39.8228 39.1735H40.3148L41.8613 21.3887L41.2111 23.1812L39.8228 39.1911V39.1735ZM30.4558 39.1735H30.9479L42.0722 8.75301H41.5801L30.4734 39.1735H30.4558ZM53.302 8.75301L47.5377 25.0441L47.362 26.9245L53.794 8.75301H53.302ZM16.3615 29.1739L12.8292 38.8045L13.3037 38.9099L16.8536 29.1739H16.3615ZM29.911 12.8302C29.8232 12.8302 29.7353 12.8302 29.665 12.8477C30.5789 12.9532 30.7194 13.7616 30.4031 14.6227L29.0499 18.2781H29.542L30.8952 14.6227C31.2291 13.7089 31.0358 12.8302 29.911 12.8302ZM20.8429 16.345C18.9273 21.828 20.2278 22.8825 23.602 26.327C24.9728 27.7329 25.1836 28.9631 24.428 30.9665L23.2857 34.0068C22.899 35.0261 22.53 35.6763 21.7392 35.7817C21.827 35.7817 21.9149 35.7817 22.0028 35.7817C22.9518 35.7817 23.356 35.1139 23.7602 33.9892L24.9025 30.9489C25.6581 28.9455 25.4297 27.7153 24.0765 26.3094C20.7023 22.8649 19.4018 21.8105 21.335 16.3274C23.4965 10.1589 25.0431 8.36638 31.7915 8.31366H31.5806C24.5861 8.31366 23.0221 10.0711 20.8253 16.3274L20.8429 16.345ZM96.8502 39.1735H97.3423L108.431 8.75301H107.939L96.8326 39.1735H96.8502Z" fill="#FFF"/>
<path fill-rule="evenodd" clip-rule="evenodd" d="M151.171 43.11C149.941 43.11 148.957 44.0766 148.957 45.3068C148.957 46.537 149.906 47.5211 151.171 47.5211C152.437 47.5211 153.368 46.5545 153.368 45.3068C153.368 44.059 152.402 43.11 151.171 43.11ZM151.171 47.0642C150.17 47.0642 149.396 46.3085 149.396 45.2892C149.396 44.2699 150.17 43.5318 151.171 43.5318C152.173 43.5318 152.929 44.2875 152.929 45.2892C152.929 46.2909 152.155 47.0642 151.171 47.0642Z" fill="#FFF"/>
<path d="M150.257 44.1645H151.224C151.505 44.1645 151.716 44.2524 151.857 44.3929C151.98 44.516 152.032 44.6917 152.032 44.885C152.032 45.2716 151.822 45.5001 151.523 45.588L152.103 46.4491H151.663L151.136 45.6583H150.662V46.4491H150.275V44.1645H150.257ZM151.189 45.3068C151.453 45.3068 151.628 45.1486 151.628 44.9202C151.628 44.6741 151.47 44.5335 151.171 44.5335H150.609V45.3068H151.171H151.189Z" fill="#FFF"/>
</g>
<defs>
<clipPath id="clip0_935_1480">
<rect width="165.195" height="47.0982" fill="white" transform="translate(0.914062 0.458069)"/>
</clipPath>
</defs>
</svg>
