<svg width="142" height="61" viewBox="0 0 142 61" fill="none" xmlns="http://www.w3.org/2000/svg">
<g clip-path="url(#clip0_935_1401)">
<path d="M99.3762 29.5629L99.6459 30.5261C99.723 30.4105 99.7615 30.2949 99.7615 30.1408C99.7615 29.8711 99.6074 29.6399 99.3762 29.5629Z" fill="#FFF"/>
<path d="M100.609 34.2247L100.686 34.5715C100.686 34.533 100.725 34.4944 100.725 34.4174C100.725 34.3403 100.648 34.2633 100.571 34.2247H100.609Z" fill="#FFF"/>
<path d="M65.1632 23.8607C65.3558 24.1689 65.5485 24.5156 65.7796 24.9009C65.8567 24.7853 65.8952 24.6697 65.8952 24.5156C65.8952 24.1304 65.587 23.8607 65.2402 23.8607C64.8935 23.8607 65.2017 23.8607 65.1632 23.8607Z" fill="#FFF"/>
<path d="M130.16 29.9866C130.045 29.9866 129.968 30.0637 129.968 30.1793C129.968 30.2949 130.045 30.3719 130.16 30.3719C130.276 30.3719 130.353 30.2949 130.353 30.1793C130.353 30.0637 130.276 29.9866 130.16 29.9866Z" fill="#FFF"/>
<path d="M134.707 34.6485C134.745 34.5715 134.784 34.4944 134.784 34.4174C134.784 34.2247 134.63 34.0706 134.437 34.0706C134.244 34.0706 134.244 34.1091 134.167 34.1862C134.36 34.3403 134.514 34.4944 134.707 34.6485Z" fill="#FFF"/>
<path d="M128.581 11.262C128.812 11.262 129.004 11.262 129.197 11.262H129.274C129.274 11.262 129.274 11.262 129.313 11.262C129.313 11.262 129.39 11.262 129.428 11.262C129.274 11.0693 129.004 10.9537 128.773 10.9537C128.542 10.9537 128.157 11.1078 128.003 11.3775C128.234 11.3775 128.465 11.339 128.581 11.3005V11.262Z" fill="#FFF"/>
<path d="M132.125 11.994C132.202 12.0325 132.241 12.1096 132.318 12.1866C132.356 12.071 132.395 11.9554 132.395 11.8399C132.395 11.416 132.048 11.0308 131.586 11.0308C131.124 11.0308 131.124 11.1463 130.969 11.339C131.393 11.4546 131.778 11.6857 132.125 11.994Z" fill="#FFF"/>
<path d="M140.64 39.8499C140.563 39.6572 140.447 39.5417 140.255 39.4646C140.409 39.5802 140.524 39.6958 140.64 39.8499Z" fill="#FFF"/>
<path d="M133.32 32.9918C133.32 32.7992 133.166 32.6451 132.973 32.6451C132.78 32.6451 132.703 32.7607 132.626 32.8762C132.78 33.0304 132.934 33.1459 133.127 33.3001C133.243 33.2615 133.32 33.1074 133.32 32.9918Z" fill="#FFF"/>
<path d="M131.586 31.8745C131.74 31.8745 131.855 31.759 131.855 31.6048C131.855 31.4507 131.74 31.3351 131.586 31.3351C131.432 31.3351 131.316 31.4507 131.316 31.6048C131.316 31.759 131.316 31.7204 131.355 31.759C131.355 31.759 131.393 31.7975 131.432 31.836C131.432 31.836 131.509 31.8745 131.547 31.8745H131.586Z" fill="#FFF"/>
<path d="M137.75 37.307C137.75 37.307 137.75 37.2685 137.75 37.2299C137.75 36.9217 137.519 36.6906 137.211 36.6906C136.903 36.6906 137.134 36.6906 137.057 36.6906C137.288 36.8832 137.519 37.0758 137.712 37.2685L137.75 37.307Z" fill="#FFF"/>
<path d="M139.137 38.5014C139.099 38.2702 138.906 38.1161 138.675 38.1161C138.829 38.2702 138.983 38.3858 139.137 38.5014Z" fill="#FFF"/>
<path d="M135.593 35.4191C135.824 35.6118 136.017 35.8044 136.209 35.9585C136.209 35.92 136.209 35.843 136.209 35.8044C136.209 35.5733 136.017 35.3806 135.785 35.3806C135.554 35.3806 135.631 35.3806 135.554 35.4577L135.593 35.4191Z" fill="#FFF"/>
<path d="M100.879 14.3057C100.802 14.2286 100.648 14.1516 100.532 14.1516C100.417 14.1516 100.224 14.2286 100.108 14.3827C100.339 14.3827 100.609 14.3442 100.879 14.3057Z" fill="#FFF"/>
<path d="M114.672 17.6576C114.788 17.6576 114.865 17.5806 114.865 17.465C114.865 17.3494 114.788 17.2723 114.672 17.2723C114.556 17.2723 114.479 17.3494 114.479 17.465C114.479 17.5806 114.556 17.6576 114.672 17.6576Z" fill="#FFF"/>
<path d="M116.175 19.5455C116.483 19.507 116.752 19.2373 116.752 18.8905C116.752 18.5438 116.444 18.2355 116.097 18.2355C115.751 18.2355 115.52 18.4667 115.443 18.7749L116.213 19.584L116.175 19.5455Z" fill="#FFF"/>
<path d="M79.6498 16.4247C78.3784 16.5788 76.0667 16.81 76.0667 16.81C76.0667 16.81 74.2173 35.4962 74.1788 36.7291C73.4853 35.6118 63.6991 20.2776 63.6991 20.2776C62.7359 18.7364 61.6571 18.2741 59.2299 18.5053C57.1493 18.7364 55.8008 19.3143 55.6853 21.0481L54.2212 39.5031L42.5086 20.4702C42.5086 20.4702 35.4965 21.2408 33.3774 21.4719C31.7207 21.6646 30.9501 23.3213 31.9134 24.9009C32.761 26.2494 50.2142 54.6447 50.2142 54.6447C51.0233 55.9161 52.8342 56.2244 55.6467 55.7235C58.3437 55.2612 59.8848 54.2594 60.0004 52.4486L61.0021 36.6135L69.9407 51.1772C70.8654 52.6798 72.6762 52.8724 75.142 52.4486C77.9931 51.9863 79.6498 51.1001 79.8039 49.4049C79.8039 49.4049 82.4238 20.4317 82.5394 19.1602C82.6935 17.5035 81.4606 16.078 79.5727 16.2706L79.6498 16.4247Z" fill="#FFF"/>
<path d="M140.563 38.7711C139.677 38.0005 125.691 25.7871 125.691 25.7871C125.691 25.7871 131.971 14.2671 132.433 13.381C133.281 11.8784 132.472 10.5684 130.777 10.7611C129.659 10.8767 125.46 11.339 125.46 11.339L120.22 21.0096L110.973 12.9186C110.973 12.9186 100.648 14.0745 99.7615 14.1516C98.5286 14.3057 97.9122 15.8083 98.9909 16.81C99.3762 17.1953 113.978 30.0637 113.978 30.0637C113.978 30.0637 106.812 43.1633 106.388 43.8568C105.387 45.5906 106.388 46.9776 108.122 46.7079C109.278 46.5152 113.593 45.7832 113.593 45.7832L119.526 35.0338L128.735 43.2403C128.735 43.2403 138.906 41.5451 139.908 41.3525C141.179 41.1598 141.642 39.6572 140.524 38.694L140.563 38.7711Z" fill="#FFF"/>
<path d="M101.881 47.7867C103.422 47.517 104.038 46.6309 103.576 44.9741L95.639 14.691L86.3922 15.6927C85.0823 15.8468 84.2732 16.9256 84.6199 18.12L92.8264 49.3278L101.881 47.8252V47.7867Z" fill="#FFF"/>
<path d="M26.8276 60.3469L16.7718 21.9728C16.5406 21.0096 15.8856 20.4702 14.5757 20.6243L2.32371 21.8957L0.744057 16.0395C0.435831 14.8066 1.16787 13.9975 2.20813 13.8819L39.2337 10.3373L40.5052 15.6927C40.8519 17.0027 40.1969 17.9273 38.7714 18.0429L22.9748 19.6996C22.6281 19.6996 22.4354 19.8923 22.474 20.162C22.474 20.4317 22.7051 20.5087 23.2831 20.5858L26.7121 20.9325C28.3302 21.0866 28.9852 21.9343 29.2549 22.8975L38.0008 56.2244C38.3476 57.4958 37.6541 58.4975 36.3441 58.7287L26.7891 60.3469H26.8276Z" fill="#FFF"/>
<path d="M94.1749 6.56151C93.2888 3.17102 89.7442 0.628163 86.2766 0.936389C85.3905 1.01345 84.5814 1.28314 83.8879 1.66842C81.4221 2.70868 80.1507 5.36713 80.9212 8.29527C81.8459 11.8784 85.5061 14.4983 89.0892 14.113C91.2468 13.8819 92.9035 12.6104 93.6355 10.8381C94.3676 9.64376 94.5987 8.10263 94.1749 6.52298V6.56151ZM91.6706 10.607C91.0927 11.4546 90.0909 11.994 88.9351 12.1481C88.781 12.1481 88.5883 12.1481 88.4342 12.1481C85.9684 12.1481 83.5411 10.2217 82.8862 7.79441C82.5779 6.5615 82.732 5.40566 83.3485 4.51951C83.9264 3.67189 84.8896 3.17102 86.0455 3.05544C86.1996 3.05544 86.3152 3.05544 86.4693 3.05544C89.0121 3.05544 91.478 4.94332 92.1329 7.40912C92.4412 8.56497 92.287 9.72082 91.6706 10.607Z" fill="#FFF"/>
<path d="M87.6637 4.32686C87.3169 4.32686 87.1243 4.63509 87.2013 4.94331L88.5498 10.1061C88.6269 10.4143 88.9736 10.6455 89.2818 10.607L90.0524 10.5299C90.3606 10.5299 90.5918 10.2217 90.5147 9.91345L89.1663 4.75067C89.0892 4.44245 88.7424 4.21128 88.4342 4.24981L87.6637 4.32686Z" fill="#FFF"/>
<path d="M85.0823 4.55806C84.7355 4.55806 84.5429 4.86629 84.62 5.17452L85.9684 10.3373C86.0455 10.6455 86.3922 10.8767 86.7005 10.8382L87.471 10.7611C87.7793 10.7611 88.0104 10.4529 87.9334 10.1447L86.5849 4.98188C86.5078 4.67365 86.1611 4.44248 85.8528 4.48101L85.0823 4.55806Z" fill="#FFF"/>
<path d="M137.596 17.6962C136.363 17.6962 135.246 16.81 135.285 15.3459C135.285 13.8819 136.402 12.9957 137.635 12.9957C138.868 12.9957 139.946 13.8819 139.946 15.3459C139.946 16.81 138.829 17.6962 137.596 17.6962ZM137.635 13.5351C136.71 13.5351 135.978 14.2672 135.978 15.3459C135.978 16.4247 136.71 17.1568 137.635 17.1568C138.521 17.1568 139.291 16.4247 139.291 15.3845C139.291 14.3057 138.521 13.5737 137.635 13.5737V13.5351ZM137.211 16.5789H136.672V14.0745H137.635C138.29 14.0745 138.675 14.2672 138.675 14.8451C138.675 15.3074 138.405 15.4615 138.059 15.5001L138.714 16.6174H138.097L137.519 15.5386H137.249V16.5789H137.211ZM137.712 15.1148C137.943 15.1148 138.097 15.0762 138.097 14.768C138.097 14.4598 137.827 14.4983 137.635 14.4983H137.249V15.1148H137.712Z" fill="#FFF"/>
</g>
<defs>
<clipPath id="clip0_935_1401">
<rect width="141.013" height="59.7187" fill="white" transform="translate(0.358765 0.820801)"/>
</clipPath>
</defs>
</svg>
