<?xml version="1.0" encoding="UTF-8"?>
<svg version="1.1" xmlns="http://www.w3.org/2000/svg" width="600" height="240">
<path d="M0 0 C6.93 0 13.86 0 21 0 C21.62805185 9.34355822 22.08201624 18.64031637 22.2109375 28.00390625 C22.2252179 28.94664398 22.23949829 29.88938171 22.25421143 30.86068726 C22.31177122 34.75091398 22.36681618 38.6409867 22.40136719 42.53149414 C22.42903714 45.41847205 22.47481709 48.30471506 22.5234375 51.19140625 C22.52669037 52.05923233 22.52994324 52.92705841 22.53329468 53.82118225 C22.6712814 60.69648612 23.84206631 66.30258289 28.25 71.8125 C34.86226784 77.07225851 40.72721184 77.83443108 49 77 C55.04026507 75.94139684 58.16901262 73.28873437 61.7734375 68.42578125 C65.5989848 60.85996956 65.33610084 52.81516874 65.4140625 44.53125 C65.43342865 43.25519897 65.4527948 41.97914795 65.4727478 40.66442871 C65.52217719 37.297661 65.56353887 33.93099608 65.60089111 30.56408691 C65.64114026 27.11814843 65.69213637 23.67237009 65.7421875 20.2265625 C65.83795762 13.48446996 65.92208704 6.74232159 66 0 C72.93 0 79.86 0 87 0 C87.06830735 7.32044625 87.12311808 14.64071265 87.15543652 21.96141243 C87.170963 25.36225536 87.1919563 28.76286531 87.22631836 32.16357422 C87.26309629 36.09088052 87.27981641 40.01786417 87.29296875 43.9453125 C87.30845261 45.1417337 87.32393646 46.33815491 87.33988953 47.5708313 C87.34271454 62.03475187 84.75396554 76.52487792 74.65625 87.47265625 C64.82944899 96.53463549 52.85119798 97.97487547 40 98 C29.06293165 97.40035144 18.01797601 93.38753095 10.52734375 85.109375 C0.72844594 71.57637036 -0.17240897 56.64527044 -0.09765625 40.52734375 C-0.0962413 39.3636879 -0.09482635 38.20003204 -0.09336853 37.00111389 C-0.08780628 33.31321557 -0.07526083 29.62537973 -0.0625 25.9375 C-0.05748012 23.42513109 -0.05291807 20.91276122 -0.04882812 18.40039062 C-0.03784922 12.2669033 -0.02061082 6.13346221 0 0 Z " fill="#38434D" transform="translate(229,75)"/>
<path d="M0 0 C6.27 0 12.54 0 19 0 C19.33 1.65 19.66 3.3 20 5 C20.60328125 4.72285156 21.2065625 4.44570312 21.828125 4.16015625 C22.62734375 3.79792969 23.4265625 3.43570313 24.25 3.0625 C25.03890625 2.70285156 25.8278125 2.34320313 26.640625 1.97265625 C33.97467645 -1.0508186 43.14436182 -1.24261116 50.80859375 0.71875 C57.80397897 3.6443074 62.21920485 8.48138767 66 15 C68.30472475 21.21458041 68.25952278 27.04267275 68.1953125 33.62109375 C68.1924826 34.72099136 68.18965271 35.82088898 68.18673706 36.95411682 C68.1755898 40.44869103 68.15049498 43.94300394 68.125 47.4375 C68.11496316 49.81444941 68.10583854 52.19140286 68.09765625 54.56835938 C68.07566827 60.37900611 68.04117582 66.18945883 68 72 C61.4 72 54.8 72 48 72 C47.95101562 68.73738281 47.90203125 65.47476563 47.8515625 62.11328125 C47.79753429 58.94925395 47.74023396 55.78530163 47.68261719 52.62133789 C47.6443626 50.42445474 47.6095036 48.2275097 47.578125 46.03051758 C47.5323984 42.87038068 47.47441582 39.7106685 47.4140625 36.55078125 C47.40251129 35.57039383 47.39096008 34.59000641 47.37905884 33.57991028 C47.31954701 27.03209218 47.31954701 27.03209218 45 21 C40.28379572 18.58438318 35.19398667 18.39496571 30 19 C25.72674692 20.58268632 23.40062124 22.15515741 21 26 C20.53450972 28.25214787 20.53450972 28.25214787 20.56762695 30.67675781 C20.54783279 31.59741028 20.52803864 32.51806274 20.50764465 33.46661377 C20.49805977 34.94493683 20.49805977 34.94493683 20.48828125 36.453125 C20.47033005 37.46848328 20.45237885 38.48384155 20.43388367 39.52996826 C20.37974293 42.76993672 20.34587238 46.00975753 20.3125 49.25 C20.27933031 51.44793723 20.24484098 53.64585496 20.20898438 55.84375 C20.12153201 61.22918838 20.06149425 66.61395225 20 72 C13.4 72 6.8 72 0 72 C0 48.24 0 24.48 0 0 Z " fill="#34404A" transform="translate(332,99)"/>
<path d="M0 0 C6.6 0 13.2 0 20 0 C20 7.92 20 15.84 20 24 C25.94 24 31.88 24 38 24 C38 29.94 38 35.88 38 42 C32.06 42 26.12 42 20 42 C20.05108114 46.62795102 20.11403825 51.25255308 20.20751953 55.87939453 C20.23570954 57.45252644 20.25693398 59.02579947 20.27099609 60.59912109 C20.29245442 62.86368956 20.33911348 65.12656504 20.390625 67.390625 C20.39185364 68.09181458 20.39308228 68.79300415 20.39434814 69.51544189 C20.49513278 72.89074929 20.79282524 74.72544422 22.84960938 77.45117188 C25.7637492 79.55009366 27.70017296 79.40434031 31.25 79.25 C33.1475 79.1675 35.045 79.085 37 79 C37 84.61 37 90.22 37 96 C27.22118403 98.48119211 16.63768472 99.46400285 7.58203125 94.1640625 C3.15567018 90.9071351 1.38341203 87.19465654 0 82 C-0.25842125 78.88440017 -0.2335272 75.78853329 -0.1953125 72.6640625 C-0.1924826 71.78471039 -0.18965271 70.90535828 -0.18673706 69.99935913 C-0.17559712 67.20776406 -0.15050411 64.4164971 -0.125 61.625 C-0.1149622 59.72526507 -0.10583775 57.82552508 -0.09765625 55.92578125 C-0.07567806 51.28372893 -0.0411911 46.64191998 0 42 C-4.62 42 -9.24 42 -14 42 C-14 36.06 -14 30.12 -14 24 C-9.38 24 -4.76 24 0 24 C0 16.08 0 8.16 0 0 Z " fill="#35414B" transform="translate(465,75)"/>
<path d="M0 0 C1.27423828 -0.00193359 1.27423828 -0.00193359 2.57421875 -0.00390625 C3.91419922 0.00189453 3.91419922 0.00189453 5.28125 0.0078125 C6.17457031 0.00394531 7.06789063 0.00007813 7.98828125 -0.00390625 C8.83777344 -0.00261719 9.68726563 -0.00132813 10.5625 0 C11.34689453 0.00112793 12.13128906 0.00225586 12.93945312 0.00341797 C14.78125 0.1328125 14.78125 0.1328125 15.78125 1.1328125 C15.88081278 3.3054393 15.90924719 5.48134356 15.91064453 7.65625 C15.91239685 8.33753967 15.91414917 9.01882935 15.91595459 9.72076416 C15.92037242 11.98313917 15.91743538 14.24543663 15.9140625 16.5078125 C15.91473556 18.0734051 15.9157056 19.6389976 15.91696167 21.20458984 C15.91843855 24.48991895 15.91628441 27.77522092 15.91162109 31.06054688 C15.9059238 35.28101766 15.90920286 39.50142486 15.91519356 43.72189331 C15.91879944 46.95597822 15.91766046 50.19004795 15.91506577 53.4241333 C15.91439657 54.98073331 15.91522466 56.53733468 15.91754532 58.09393311 C15.9200723 60.26578446 15.91623065 62.43753146 15.91064453 64.609375 C15.90984894 65.84768066 15.90905334 67.08598633 15.90823364 68.36181641 C15.78125 71.1328125 15.78125 71.1328125 14.78125 72.1328125 C13.2925314 72.21950682 11.799805 72.23984744 10.30859375 72.23046875 C9.40947266 72.22724609 8.51035156 72.22402344 7.58398438 72.22070312 C6.16569336 72.20813477 6.16569336 72.20813477 4.71875 72.1953125 C3.76935547 72.19080078 2.81996094 72.18628906 1.84179688 72.18164062 C-0.51178065 72.1698136 -2.86523477 72.15333275 -5.21875 72.1328125 C-5.24187524 62.89283698 -5.25966601 53.65287136 -5.27056217 44.41287327 C-5.27579061 40.12281335 -5.28288753 35.83277317 -5.29418945 31.54272461 C-5.30501975 27.4060185 -5.31102714 23.26933142 -5.31362724 19.13261223 C-5.31548124 17.55088946 -5.31910136 15.96916779 -5.32448006 14.38745308 C-5.3316924 12.17958412 -5.33274086 9.97179477 -5.33227539 7.76391602 C-5.334496 6.50482925 -5.33671661 5.24574249 -5.33900452 3.94850159 C-5.15187273 -0.43307964 -3.97198089 0.00571156 0 0 Z " fill="#3A434C" transform="translate(422.21875,98.8671875)"/>
<path d="M0 0 C3.14581423 -0.02888514 6.29159469 -0.04675923 9.4375 -0.0625 C10.33533203 -0.07087891 11.23316406 -0.07925781 12.15820312 -0.08789062 C13.01220703 -0.09111328 13.86621094 -0.09433594 14.74609375 -0.09765625 C15.93223267 -0.10551147 15.93223267 -0.10551147 17.14233398 -0.11352539 C19 0 19 0 20 1 C20.09432985 3.20867831 20.11742431 5.42041521 20.11352539 7.63110352 C20.11367142 8.32375305 20.11381744 9.01640259 20.1139679 9.7300415 C20.11326874 12.02969446 20.10547628 14.32926737 20.09765625 16.62890625 C20.09579208 18.21931412 20.09436817 19.80972257 20.09336853 21.40013123 C20.08954329 25.5939593 20.07971295 29.78775295 20.06866455 33.98156738 C20.05845057 38.25788914 20.05387094 42.53421644 20.04882812 46.81054688 C20.03809068 55.20704884 20.02049384 63.60351618 20 72 C13.4 72 6.8 72 0 72 C-1.45478827 69.09042346 -1.07412632 66.59583159 -1.02172852 63.34716797 C-1.01212097 62.66412598 -1.00251343 61.98108398 -0.99261475 61.27734375 C-0.95958537 59.01552142 -0.91926823 56.75388989 -0.87890625 54.4921875 C-0.85460897 52.92563554 -0.83076522 51.35907649 -0.80735779 49.79251099 C-0.74447779 45.66603524 -0.67542229 41.53968485 -0.60510254 37.41333008 C-0.53445441 33.20399695 -0.46961639 28.99457484 -0.40429688 24.78515625 C-0.27523408 16.52333898 -0.13965049 8.26164506 0 0 Z " fill="#3D4952" transform="translate(519,99)"/>
<path d="M0 0 C3.84374979 2.44602259 5.93438209 4.52440477 7 9 C6.91372577 13.1411628 6.30343408 14.64988376 3.5625 17.8125 C-0.43886359 21.22829819 -2.74292739 21.3564117 -8 21 C-11.5386994 19.34860695 -12.81070153 18.28394771 -15 15 C-15.72022276 10.52791917 -15.58211165 7.01330547 -13.3125 3.0625 C-8.94745703 -0.83064643 -5.65867441 -1.6504467 0 0 Z " fill="#FFF" transform="translate(432,68)"/>
<path d="M0 0 C4.57627119 3.15254237 4.57627119 3.15254237 6 6 C6.42071592 9.05920574 6.48514117 11.9467746 6 15 C3.81840855 17.75569447 2.12822506 19.43588747 -1 21 C-5.19491568 21.40335728 -7.5250009 21.24198067 -11.3125 19.3125 C-14.16982745 16.8538694 -15.21688392 15.65454168 -16 12 C-15.79717379 7.13217097 -14.43432678 4.43432678 -11 1 C-7.07103746 -1.27466253 -4.32905145 -1.26264001 0 0 Z " fill="#FFF" transform="translate(533,68)"/>
<path d="M0 0 C3.56803825 3.02507591 5.83023943 5.09019356 6.25 9.8125 C5.96536066 13.44165156 5.22214094 15.14296165 3 18 C-0.01002441 20.34113009 -3.27741542 20.41216607 -7.03125 20.328125 C-10.14316604 19.80947233 -11.85067869 18.21445226 -14 16 C-15.60306924 12.79386153 -15.48740461 9.47860003 -15 6 C-11.07837397 -0.44267133 -7.28469092 -1.91702393 0 0 Z " fill="#FFF" transform="translate(184,138)"/>
<path d="M0 0 C3 2.4375 3 2.4375 5 5 C5.33 5.33 5.66 5.66 6 6 C6.58378378 13.00540541 6.58378378 13.00540541 4.3125 16.875 C0.91577993 19.99631034 -1.37020826 21.03395399 -6 20.9375 C-9.77036448 19.7592611 -11.45989992 17.97554581 -14 15 C-15.41000664 12.17998673 -15.24548451 10.12992745 -15 7 C-11.74568675 0.18143891 -7.15437822 -1.28025715 0 0 Z " fill="#FFF" transform="translate(148,134)"/>
<path d="M0 0 C3.01333109 1.62256289 5.26132782 3.10074691 7.4375 5.75 C8.32776389 9.31105554 7.96899635 12.47834909 7 16 C5.30348585 18.7568355 4.04148918 19.69705733 0.9453125 20.59765625 C-3.41710687 21.35410271 -5.47606287 21.27132459 -9.5 19.1875 C-11.98528778 17.01287319 -12.83387711 16.20795071 -13.2734375 13.01171875 C-13.46972622 8.51972685 -13.51482633 6.65030695 -10.625 3 C-6.81003479 0.09335984 -4.81326348 -0.4628138 0 0 Z " fill="#FFF" transform="translate(161,58)"/>
<path d="M0 0 C4.57627119 3.15254237 4.57627119 3.15254237 6 6 C6.5811138 13.08958838 6.5811138 13.08958838 4.125 16.9375 C0.91381488 20.05423849 -1.40788102 20.39206462 -5.89453125 20.359375 C-9.61593453 19.72418186 -11.40312849 17.66020984 -14 15 C-15.43304064 12.13391871 -15.30644155 10.18699217 -15 7 C-13.2434139 3.61694529 -11.90079501 1.54521803 -8.625 -0.4375 C-5.32413398 -1.14482843 -3.24488261 -0.94642409 0 0 Z " fill="#FFF" transform="translate(83,138)"/>
<path d="M0 0 C2.75569447 2.18159145 4.43588747 3.87177494 6 7 C6.43964729 10.86889612 6.12635224 12.75665494 4.3125 16.25 C1.8577962 19.16910722 0.69327563 20.20858379 -3 21 C-7.88561843 20.79643257 -10.46862842 19.32957892 -14 16 C-15.60086627 12.79826746 -15.49917089 9.47422941 -15 6 C-11.10085179 -0.10866553 -6.96919421 -1.10736765 0 0 Z " fill="#03B3E3" transform="translate(119,134)"/>
<path d="M0 0 C4.57627119 3.15254237 4.57627119 3.15254237 6 6 C6.5811138 13.08958838 6.5811138 13.08958838 4.125 16.9375 C0.91381488 20.05423849 -1.40788102 20.39206462 -5.89453125 20.359375 C-9.61593453 19.72418186 -11.40312849 17.66020984 -14 15 C-15.43304064 12.13391871 -15.30644155 10.18699217 -15 7 C-13.2434139 3.61694529 -11.90079501 1.54521803 -8.625 -0.4375 C-5.32413398 -1.14482843 -3.24488261 -0.94642409 0 0 Z " fill="#FFF" transform="translate(83,80)"/>
<path d="M0 0 C3.49406769 1.66762322 4.82670681 2.74006022 7 6 C7.54531842 9.06526351 7.54325893 11.93408329 7 15 C4.81840855 17.75569447 3.12822506 19.43588747 0 21 C-4.07909806 21.38482057 -6.29089873 21.44121857 -9.8125 19.25 C-13.21387283 15.75144509 -13.21387283 15.75144509 -14 13 C-13.9188061 8.5343354 -13.47785505 6.56362391 -10.5625 3.125 C-6.82044731 0.02183435 -4.85206382 -0.38055403 0 0 Z " fill="#36424C" transform="translate(103,58)"/>
<path d="M0 0 C3.2561101 1.89446406 5.3487671 3.30400843 6.73046875 6.90234375 C7.49067635 10.82381065 7.14101179 12.70712936 5.375 16.375 C2.873474 19.13984453 1.61784493 20.22474751 -2 21 C-6.88561843 20.79643257 -9.46862842 19.32957892 -13 16 C-14.60086627 12.79826746 -14.49917089 9.47422941 -14 6 C-10.35211342 0.28497769 -6.68984451 -1.06739634 0 0 Z " fill="#FFF" transform="translate(162,159)"/>
<path d="M0 0 C4.57627119 3.15254237 4.57627119 3.15254237 6 6 C6.5811138 13.08958838 6.5811138 13.08958838 4.125 16.9375 C1.22627065 19.75097261 0.37782221 19.96221778 -3.75 20.375 C-7.23710971 20.31148252 -8.2276555 19.86754589 -11.4375 18 C-14.17586844 14.79410524 -15.01651162 13.11215553 -15.234375 8.99609375 C-14.82521247 5.51139289 -13.30869016 3.55171017 -11 1 C-7.12146558 -1.34753399 -4.30724867 -1.25628086 0 0 Z " fill="#FFF" transform="translate(104,109)"/>
<path d="M0 0 C2.92810762 1.81651121 5.43591638 3.87183276 7 7 C7.67660495 12.86390959 7.67660495 12.86390959 5.953125 15.7578125 C3.02250123 19.32627792 1.32898658 20.84665539 -3.25 21.375 C-8.19272958 20.88072704 -9.53828301 19.46171699 -13 16 C-14.74285583 12.51428834 -13.86359033 8.70486842 -13 5 C-9.52656145 0.3687486 -5.66282027 -0.66621415 0 0 Z " fill="#FFF" transform="translate(147,83)"/>
<path d="M0 0 C3.70944375 2.01600204 4.78339903 3.51264783 6.5 7.375 C7.19719934 12.42969523 5.5436561 14.76169866 2.75 18.8125 C-0.10241318 20.74806609 -2.60021038 20.88276588 -6 21 C-8.75 19.75 -8.75 19.75 -11 18 C-11.5775 17.5875 -12.155 17.175 -12.75 16.75 C-14.77297816 13.91783058 -14.88180145 11.42775781 -15 8 C-12.02443014 1.10920664 -7.42662853 -1.29929088 0 0 Z " fill="#FFF" transform="translate(104,159)"/>
<path d="M0 0 C3.49406513 3.05730699 4.80770576 4.92315225 5.625 9.5 C4.8007349 14.11588456 3.29033886 15.70966114 0 19 C-3.14911479 20.57455739 -5.52008816 20.34799118 -9 20 C-11.97672584 18.22719439 -14.42804007 16.14391985 -16 13 C-16.37510464 9.74909308 -16.66540869 7.15611549 -14.98828125 4.2421875 C-10.7332745 -1.0478209 -6.42273473 -2.01179045 0 0 Z " fill="#05B3E4" transform="translate(120,84)"/>
<path d="M0 0 C2.70567626 1.82339052 4.53728718 3.07457436 6 6 C6.67660495 11.86390959 6.67660495 11.86390959 4.953125 14.7578125 C2.02250123 18.32627792 0.32898658 19.84665539 -4.25 20.375 C-9.19272958 19.88072704 -10.53828301 18.46171699 -14 15 C-15.57455739 11.85088521 -15.34799118 9.47991184 -15 6 C-11.2364562 -0.53897572 -7.15194956 -1.60302318 0 0 Z " fill="#FFF" transform="translate(134,53)"/>
<path d="M0 0 C2.97672584 1.77280561 5.42804007 3.85608015 7 7 C7.5098625 11.4188083 7.29172207 13.50771901 5 17.375 C1.78898905 20.18463458 0.1523561 21.01043322 -4.00390625 21.23828125 C-7.44405138 20.82761813 -9.45378542 19.2430938 -12 17 C-14.34965355 13.79592697 -14.54561533 10.89725235 -14 7 C-10.28324093 1.04489532 -6.98550194 -0.69855019 0 0 Z " fill="#01B2E3" transform="translate(130,167)"/>
<path d="M0 0 C3.50165855 2.5881824 4.77470816 4.27111465 6.0625 8.4375 C5.98493382 12.85877235 4.80829096 14.64565246 2 18 C-1.68497796 20.45665197 -4.71971786 20.70086491 -9 20 C-11.8100346 18.20636089 -13.50940468 16.98119065 -15 14 C-15.42074378 10.94059163 -15.47999423 8.0540292 -15 5 C-10.58053726 -0.73335706 -6.94670018 -1.6767897 0 0 Z " fill="#02B1E2" transform="translate(192,109)"/>
<path d="M0 0 C2.62766354 2.14105918 3.54888489 4.19886312 4.6875 7.375 C4.6875 11.75066043 4.15834778 13.75617149 1.5 17.25 C-1.69164306 19.66146364 -3.32389939 20.375 -7.3125 20.375 C-11.37859855 18.86017897 -14.38082937 17.3456563 -16.3125 13.375 C-16.84448011 8.587179 -17.03759014 6.51097455 -14.4375 2.4375 C-10.33495832 -1.54437869 -5.32077706 -1.43804786 0 0 Z " fill="#FFF" transform="translate(164.3125,109.625)"/>
<path d="M0 0 C3.54281383 2.61860153 4.78669043 4.25341652 6 8.5 C6 13.31804413 4.50968717 15.37848415 1.3125 18.8125 C-2.08943797 20.55944112 -5.31424164 20.8117444 -9 20 C-11.9375 17.5625 -11.9375 17.5625 -14 15 C-14.33 14.67 -14.66 14.34 -15 14 C-15.58638743 6.96335079 -15.58638743 6.96335079 -13.25 3.125 C-8.7761967 -1.10025867 -6.10309491 -1.60607761 0 0 Z " fill="#FFF" transform="translate(184,80)"/>
<path d="M0 0 C2.66853066 2.20562228 4.41164724 4.86006653 6 7.9375 C6 12.19121633 4.05735463 15.78600024 1.3125 18.9375 C-2.11621713 20.51285652 -5.34140428 20.66189306 -9 20 C-12.39890142 17.93110348 -14.88937011 15.88720463 -16 12 C-15.91956305 7.57596799 -15.46712594 5.56546824 -12.625 2.125 C-8.27889043 -1.39327917 -5.32312597 -1.37667051 0 0 Z " fill="#FFF" transform="translate(76,109)"/>
<path d="M0 0 C3.21093673 2.44310404 4.69865985 4.11481331 6 7.9375 C6 12.56223202 4.37031301 15.47742999 1.3125 18.875 C-2.09776895 20.53404976 -5.32879019 20.67742562 -9 20 C-11.8100346 18.20636089 -13.50940468 16.98119065 -15 14 C-15.42074378 10.94059163 -15.47999423 8.0540292 -15 5 C-10.58053726 -0.73335706 -6.94670018 -1.6767897 0 0 Z " fill="#FFF" transform="translate(134,109)"/>
<path d="M0 0 C3.49406769 1.66762322 4.82670681 2.74006022 7 6 C7.54531842 9.06526351 7.54325893 11.93408329 7 15 C4.81840855 17.75569447 3.12822506 19.43588747 0 21 C-4.07909806 21.38482057 -6.29089873 21.44121857 -9.8125 19.25 C-13.21387283 15.75144509 -13.21387283 15.75144509 -14 13 C-13.9188061 8.5343354 -13.47785505 6.56362391 -10.5625 3.125 C-6.82044731 0.02183435 -4.85206382 -0.38055403 0 0 Z M-10 5 C-11.56918492 6.56918492 -11.28258943 8.14085159 -11.375 10.3125 C-11.31900364 13.82347198 -11.20354261 14.73285033 -9 17.625 C-5.02222674 19.44814608 -2.13043292 19.37979755 2 18 C5.52014056 15.04762405 5.57617012 11.40783077 6 7 C5.34 7 4.68 7 4 7 C3.7215625 6.0409375 3.7215625 6.0409375 3.4375 5.0625 C2.07509154 2.6433857 2.07509154 2.6433857 -1.3125 2.0625 C-5.34739859 1.99411189 -6.84737322 2.58916776 -10 5 Z " fill="#15BDE9" transform="translate(103,58)"/>
<path d="M0 0 C3.21093673 2.44310404 4.69865985 4.11481331 6 7.9375 C6 12.56223202 4.37031301 15.47742999 1.3125 18.875 C-2.10792538 20.53899072 -5.27136994 20.72586036 -9 20 C-11.5 18 -11.5 18 -13 16 C-12.25234375 16.10699219 -11.5046875 16.21398437 -10.734375 16.32421875 C-9.74953125 16.44410156 -8.7646875 16.56398438 -7.75 16.6875 C-6.28820312 16.87892578 -6.28820312 16.87892578 -4.796875 17.07421875 C-1.97311833 17.20595167 -1.97311833 17.20595167 0.33203125 15.76953125 C2.30535963 13.67604704 2.51800556 12.83379581 2.4375 10 C2.29165768 7.59581142 2.08356593 6.16713186 1 4 C-2.25807831 2.37096085 -5.43943533 2.47223363 -9 3 C-11.08333333 3.91666667 -11.08333333 3.91666667 -12 6 C-12.36141955 8.32914823 -12.69699525 10.66253478 -13 13 C-13.99 13.495 -13.99 13.495 -15 14 C-15.78279267 6.01551481 -15.78279267 6.01551481 -12.6875 2 C-8.21484732 -1.32848571 -5.33786048 -1.28844908 0 0 Z " fill="#0DBEEE" transform="translate(134,109)"/>
<path d="M0 0 C4.57627119 3.15254237 4.57627119 3.15254237 6 6 C6.13415472 8.6723621 6.04318541 11.32250488 6 14 C5.67 14 5.34 14 5 14 C4.731875 12.9275 4.46375 11.855 4.1875 10.75 C3.10031431 7.31678203 2.4732207 5.51738535 0 3 C-2.50880616 2.51738333 -2.50880616 2.51738333 -5.1875 2.75 C-6.08855469 2.78609375 -6.98960938 2.8221875 -7.91796875 2.859375 C-8.60503906 2.90578125 -9.29210937 2.9521875 -10 3 C-11.94002992 9.44798846 -11.94002992 9.44798846 -11 16 C-8.01851244 16.88552729 -5.09715688 17.66777902 -2 18 C0.36290685 16.68864588 0.36290685 16.68864588 2 15 C2.99 15.33 3.98 15.66 5 16 C1.99742856 19.00257144 0.3250272 19.95356754 -3.9375 20.5625 C-8.63923411 20.33988001 -10.78082305 18.29769346 -14 15 C-15.43304064 12.13391871 -15.30644155 10.18699217 -15 7 C-13.2434139 3.61694529 -11.90079501 1.54521803 -8.625 -0.4375 C-5.32413398 -1.14482843 -3.24488261 -0.94642409 0 0 Z " fill="#15BDEA" transform="translate(83,80)"/>
<path d="M0 0 C0 0.66 0 1.32 0 2 C-0.639375 2.28875 -1.27875 2.5775 -1.9375 2.875 C-4.15206079 3.82823451 -4.15206079 3.82823451 -5 6 C-5.64105615 11.39769236 -5.64105615 11.39769236 -3.4375 16 C-0.06518061 17.38351565 2.39333002 17.45903072 6 17 C9.32838378 14.13070364 9.9621416 10.15143359 11 6 C12.1875 7.5625 12.1875 7.5625 13 10 C11.89280588 13.50611471 10.73538179 16.15567276 8.3125 18.9375 C4.88378287 20.51285652 1.65859572 20.66189306 -2 20 C-5.39890142 17.93110348 -7.88937011 15.88720463 -9 12 C-8.91928983 7.56094057 -8.43940115 5.54346985 -5.625 2.0625 C-3 0 -3 0 0 0 Z " fill="#11BDED" transform="translate(69,109)"/>
<path d="M0 0 C2.39446415 1.43869064 4.00202012 3.00202012 6 5 C5.67 6.32 5.34 7.64 5 9 C4.319375 7.7934375 4.319375 7.7934375 3.625 6.5625 C2.25274335 3.91143428 2.25274335 3.91143428 0 3 C-4.23971058 2.76446052 -7.36178302 2.67154114 -11 5 C-11.40704165 10.44625626 -11.40704165 10.44625626 -9.6875 15.4375 C-7.97690387 17.23686957 -7.97690387 17.23686957 -5 18 C-5 18.66 -5 19.32 -5 20 C-8.32957907 19.72253508 -9.78804723 19.18903896 -12.3125 16.9375 C-14.48352089 13.15831548 -14.87895291 10.26550676 -14 6 C-10.38708892 0.33977264 -6.65611619 -1.15865726 0 0 Z " fill="#12BDED" transform="translate(162,159)"/>
<path d="M0 0 C7.13793103 3.17241379 7.13793103 3.17241379 9 7 C9.53198011 11.787821 9.72509014 13.86402545 7.125 17.9375 C3.86901736 21.09771844 1.57859267 21.32556608 -2.95703125 21.30078125 C-6.08098097 20.84084984 -7.81999703 19.18000297 -10 17 C-9.67 15.68 -9.34 14.36 -9 13 C-8.896875 13.639375 -8.79375 14.27875 -8.6875 14.9375 C-8.3471875 15.9584375 -8.3471875 15.9584375 -8 17 C-4.24713011 18.25095663 -0.92403137 18.58042964 3 18 C5.65656032 15.84154474 5.92904589 14.41685537 6.5 11.0625 C5.83826166 7.00935265 3.99206301 5.70015442 1 3 C0.67 2.01 0.34 1.02 0 0 Z " fill="#12BEEE" transform="translate(101,108)"/>
<path d="M0 0 C4.57627119 3.15254237 4.57627119 3.15254237 6 6 C6.47317073 13.45243902 6.47317073 13.45243902 4.484375 15.75390625 C3.99453125 16.16511719 3.5046875 16.57632813 3 17 C3.03480469 16.32453125 3.06960937 15.6490625 3.10546875 14.953125 C3.13253906 14.06109375 3.15960938 13.1690625 3.1875 12.25 C3.22230469 11.36828125 3.25710937 10.4865625 3.29296875 9.578125 C2.9379788 6.45421346 2.25591013 5.17675539 0 3 C-2.26300895 2.3078631 -2.26300895 2.3078631 -4.6875 2.25 C-5.49574219 2.19328125 -6.30398437 2.1365625 -7.13671875 2.078125 C-7.75160156 2.05234375 -8.36648437 2.0265625 -9 2 C-9.268125 2.639375 -9.53625 3.27875 -9.8125 3.9375 C-11 6 -11 6 -14 7 C-13.04954384 3.4833122 -12.30866369 2.21045251 -9.25 0.125 C-5.49804285 -1.1737544 -3.76370378 -1.20118206 0 0 Z " fill="#16BCEA" transform="translate(83,138)"/>
<path d="M0 0 C0.66 0.33 1.32 0.66 2 1 C0.50260417 2.20442708 -0.99479167 3.40885417 -2.4921875 4.61328125 C-4.25292107 6.12270545 -4.25292107 6.12270545 -6 9 C-5.83964742 12.12687525 -5.17815068 13.74647788 -3.375 16.3125 C-0.08888261 18.64737288 2.0581042 18.50169583 6 18 C7.85602615 16.72840348 7.85602615 16.72840348 9 15 C9.66 14.34 10.32 13.68 11 13 C11.33 13.99 11.66 14.98 12 16 C8.79160245 19.20839755 6.58113836 21.36065626 1.9375 21.625 C-2.71752852 20.88610658 -4.09436344 19.61003331 -7 16 C-7.33 15.67 -7.66 15.34 -8 15 C-8.58638743 7.96335079 -8.58638743 7.96335079 -6.25 4.125 C-4.18433515 2.17409431 -2.68629716 0.89543239 0 0 Z " fill="#13BEEE" transform="translate(177,79)"/>
<path d="M0 0 C0 0.99 0 1.98 0 3 C-1.65 3.66 -3.3 4.32 -5 5 C-5.53466703 11.04963508 -5.53466703 11.04963508 -3.4375 16.5625 C0.48408209 18.8752279 4.0899753 18.39179994 8.4375 17.5 C9.2109375 17.2525 9.2109375 17.2525 10 17 C10 17.66 10 18.32 10 19 C6.30082559 21.46611627 2.29682956 21.71613826 -2 21 C-4.8100346 19.20636089 -6.50940468 17.98119065 -8 15 C-8.57791538 7.9494324 -8.57791538 7.9494324 -6.25 4.125 C-4.20332225 2.19202657 -2.60156414 1.02204305 0 0 Z " fill="#18BFEE" transform="translate(177,137)"/>
<path d="M0 0 C3.26844342 0.88336309 3.89133104 1.83887016 5.8125 4.6875 C7.23309083 8.65020074 6.99516076 10.94280612 6 15 C5.01 16.485 5.01 16.485 4 18 C3.34 18 2.68 18 2 18 C2.165 17.505 2.33 17.01 2.5 16.5 C3.33029157 12.34854217 3.94762032 7.89524064 2 4 C-1.23509504 2.38245248 -4.50335096 2.45123013 -8 3 C-10.4595774 4.33830958 -10.4595774 4.33830958 -12 6 C-11.6875 4.125 -11.6875 4.125 -11 2 C-7.27199894 -0.48533404 -4.31144196 -0.4014703 0 0 Z " fill="#18BDEC" transform="translate(162,109)"/>
<path d="M0 0 C0.66 0 1.32 0 2 0 C2.2475 1.11375 2.495 2.2275 2.75 3.375 C3.65055702 6.91497131 3.65055702 6.91497131 5.625 8.5 C9.21902729 9.25663732 12.50355944 9.19281554 16 8 C17.91744593 5.55690423 17.91744593 5.55690423 19 3 C19.66 3 20.32 3 21 3 C19.65216226 7.41110531 17.97248797 9.61650722 14 12 C9.45238113 12.74415582 7.57599825 12.35199893 3.625 9.9375 C0.57016016 6.51898875 0.17696602 4.51263341 0 0 Z " fill="#0FBDED" transform="translate(119,61)"/>
<path d="M0 0 C1.95143557 1.6296563 2.90331891 2.56976916 3.46875 5.0859375 C3.5294606 9.5329893 3.48302008 11.38986938 0.625 15 C-3.46579409 18.1167955 -5.8332748 18.36257721 -11 18 C-12.72265625 16.484375 -12.72265625 16.484375 -14 15 C-13.39671875 15.02320312 -12.7934375 15.04640625 -12.171875 15.0703125 C-11.37265625 15.08835937 -10.5734375 15.10640625 -9.75 15.125 C-8.56664063 15.15980469 -8.56664063 15.15980469 -7.359375 15.1953125 C-4.70542179 14.97561439 -3.19185479 14.51079706 -1 13 C1.04046797 8.8175023 1.38685433 4.43793387 0 0 Z " fill="#1EC0ED" transform="translate(107,61)"/>
<path d="M0 0 C3 1 3 1 4.125 3.0625 C6.41829189 5.43223495 7.28119794 5.36978956 10.5 5.5 C14.18648346 5.39521913 14.18648346 5.39521913 16.9375 3 C17.4634375 2.01 17.4634375 2.01 18 1 C18.66 1 19.32 1 20 1 C19.63926776 3.61530876 19.20250273 4.79749727 17.3125 6.6875 C14.40176984 8.33953603 12.35333207 8.86586672 9 9 C4.8393869 7.61312897 3.3660039 6.62220662 1.125 2.8125 C0.75375 1.884375 0.3825 0.95625 0 0 Z " fill="#12BDEE" transform="translate(133,146)"/>
<path d="M0 0 C3.76842665 0.21533867 4.99717333 0.99736177 7.8125 3.625 C9.69609934 6.12450643 10.04692559 7.26278329 10.625 10.5 C9.80092705 15.11480853 8.32919145 16.75007502 5 20 C4.34 20 3.68 20 3 20 C3 19.34 3 18.68 3 18 C3.474375 17.608125 3.94875 17.21625 4.4375 16.8125 C6.88948176 13.96820116 7 11.69524254 7 8 C4.666508 5.16588845 4.666508 5.16588845 2 3 C2 2.34 2 1.68 2 1 C1.34 0.67 0.68 0.34 0 0 Z " fill="#13BEED" transform="translate(144,83)"/>
<path d="M0 0 C0 0.66 0 1.32 0 2 C-2.97 2.66 -5.94 3.32 -9 4 C-9.28875 5.464375 -9.5775 6.92875 -9.875 8.4375 C-10.3671875 10.93359375 -10.3671875 10.93359375 -11 13 C-11.99 13.495 -11.99 13.495 -13 14 C-13.78279267 6.01551481 -13.78279267 6.01551481 -10.6875 2 C-6.71830711 -0.95381796 -4.67419329 -1.13696593 0 0 Z " fill="#0FBBEB" transform="translate(132,109)"/>
<path d="M0 0 C0.60521484 0.71929687 0.60521484 0.71929687 1.22265625 1.453125 C3.37889045 3.3297596 4.61922915 3.50286664 7.4375 3.75 C8.19933594 3.82734375 8.96117188 3.9046875 9.74609375 3.984375 C12.01666179 4.00011551 13.8338125 3.65133656 16 3 C13.61088804 6.0580633 12.47145142 6.93142525 8.5625 7.5 C4.47674461 6.92656065 2.81008859 5.98039699 0 3 C0 2.01 0 1.02 0 0 Z " fill="#12BEEF" transform="translate(106,97)"/>
<path d="M0 0 C0.66 0.66 1.32 1.32 2 2 C-0.92477319 4.92477319 -3.02014991 6.30875009 -7.125 6.4375 C-11.13395972 5.98487552 -11.57614944 5.8378623 -14 3 C-12.86111328 3.05220703 -12.86111328 3.05220703 -11.69921875 3.10546875 C-10.70535156 3.13253906 -9.71148437 3.15960938 -8.6875 3.1875 C-7.70136719 3.22230469 -6.71523437 3.25710937 -5.69921875 3.29296875 C-2.95425611 3.24278108 -2.95425611 3.24278108 -1.14453125 1.48828125 C-0.76683594 0.99714844 -0.38914063 0.50601563 0 0 Z " fill="#0FBEF0" transform="translate(194,123)"/>
<path d="M0 0 C4.11062043 0.23715118 6.33060981 0.36584087 9.375 3.25 C10.96606467 5.94257098 11.64740907 7.91482939 12 11 C11.01 11.495 11.01 11.495 10 12 C10 10.35 10 8.7 10 7 C9.34 7 8.68 7 8 7 C7.566875 6.38125 7.13375 5.7625 6.6875 5.125 C4.68780562 2.60686633 3.01595927 1.97814895 0 1 C0 0.67 0 0.34 0 0 Z " fill="#20BFEB" transform="translate(99,159)"/>
<path d="M0 0 C0.66 0 1.32 0 2 0 C2.7425 0.78375 3.485 1.5675 4.25 2.375 C7.14826662 5.14152723 9.169531 6.02011258 13 7 C13 7.33 13 7.66 13 8 C8.68725946 8.43127405 5.95799604 8.39417226 2.5625 5.6875 C0 3 0 3 0 0 Z " fill="#11BEEE" transform="translate(134,96)"/>
<path d="M0 0 C0.66 0.33 1.32 0.66 2 1 C1.07161713 2.31896465 0.13194268 3.62998689 -0.8125 4.9375 C-1.59560547 6.03384766 -1.59560547 6.03384766 -2.39453125 7.15234375 C-4 9 -4 9 -7 10 C-5.76075855 5.04303419 -4.21422242 2.88341534 0 0 Z " fill="#1CBCEC" transform="translate(96,159)"/>
<path d="M0 0 C2.5625 1.375 2.5625 1.375 4 3 C4 3.66 4 4.32 4 5 C3.34 4.67 2.68 4.34 2 4 C-0.78156503 3.07281166 -2.33418147 2.91684318 -5.1875 3 C-6.445625 3 -7.70375 3 -9 3 C-9.66 2.34 -10.32 1.68 -11 1 C-7.5633814 -0.7183093 -3.7655775 -0.38792805 0 0 Z " fill="#20C4ED" transform="translate(119,134)"/>
<path d="M0 0 C-0.33 0.66 -0.66 1.32 -1 2 C-3.01767118 2.45560317 -5.03547312 2.91066069 -7.0546875 3.359375 C-9.68907081 4.22692292 -10.71543341 5.59143764 -12 8 C-12 4 -12 4 -9.9375 1.75 C-6.37240957 -0.37388366 -4.08121639 -0.3200954 0 0 Z " fill="#12BEEE" transform="translate(130,167)"/>
<path d="M0 0 C-0.48941176 7.34117647 -0.48941176 7.34117647 -2.9375 10.5 C-5 12 -5 12 -7 12 C-5.98187755 9.9637551 -4.96530388 7.93639045 -3.875 5.9375 C-2.79420664 3.89863452 -2.79420664 3.89863452 -3 1 C-1 0 -1 0 0 0 Z " fill="#33C5E4" transform="translate(169,66)"/>
<path d="M0 0 C2.3125 0.5625 2.3125 0.5625 5 2 C8 7.79310345 8 7.79310345 8 11 C7.01 11 6.02 11 5 11 C4.731875 9.88625 4.46375 8.7725 4.1875 7.625 C3.34190981 3.78159049 3.34190981 3.78159049 0 2 C0 1.34 0 0.68 0 0 Z " fill="#29C3ED" transform="translate(132,109)"/>
<path d="M0 0 C6.46837061 2.31884984 6.46837061 2.31884984 9 5.5625 C9.33 6.366875 9.66 7.17125 10 8 C9.67 8.66 9.34 9.32 9 10 C7 9 7 9 6.1875 7.125 C4.64778279 4.36971658 2.6887974 3.55667218 0 2 C0 1.34 0 0.68 0 0 Z " fill="#13BEEC" transform="translate(180,79)"/>
<path d="M0 0 C3 1 3 1 4.4375 2.9375 C6.12624104 5.16663817 7.44925207 5.9445181 10 7 C10 7.66 10 8.32 10 9 C3.22318527 7.04225352 3.22318527 7.04225352 1 4 C0.3125 1.8125 0.3125 1.8125 0 0 Z " fill="#10BFED" transform="translate(116,179)"/>
<path d="M0 0 C0.99 0.33 1.98 0.66 3 1 C3.28875 1.61875 3.5775 2.2375 3.875 2.875 C5.35958123 5.67920898 7.23974247 6.54723288 10 8 C9.67 8.66 9.34 9.32 9 10 C1.55827068 5.77631579 1.55827068 5.77631579 0.3125 1.8125 C0.209375 1.214375 0.10625 0.61625 0 0 Z " fill="#1ABEEC" transform="translate(89,170)"/>
<path d="M0 0 C0.33 0 0.66 0 1 0 C1.33 4.29 1.66 8.58 2 13 C-1 10 -1 10 -1.328125 7.7734375 C-1.30234375 6.98195313 -1.2765625 6.19046875 -1.25 5.375 C-1.23453125 4.57835938 -1.2190625 3.78171875 -1.203125 2.9609375 C-1 1 -1 1 0 0 Z " fill="#17BFEF" transform="translate(178,113)"/>
<path d="M0 0 C0.99 0.33 1.98 0.66 3 1 C0.78631706 3.21368294 -0.93016625 4.86552921 -4.11328125 5.265625 C-6.07746787 5.25166986 -8.0402625 5.13286356 -10 5 C-7.60351761 2.60351761 -6.25271597 2.63467629 -3 2 C-2.01 1.34 -1.02 0.68 0 0 Z " fill="#23C2F0" transform="translate(85,95)"/>
<path d="M0 0 C0.66 0 1.32 0 2 0 C0.549046 3.82524236 -1.38181932 5.19090966 -5 7 C-5.66 7 -6.32 7 -7 7 C-5.74797133 3.24391399 -4.36936427 2.85315035 -1 1 C-0.67 0.67 -0.34 0.34 0 0 Z " fill="#10BEEF" transform="translate(134,181)"/>
<path d="M0 0 C3.77545388 1.09068668 6.47043472 1.9083091 9 5 C8.67 5.99 8.34 6.98 8 8 C7.13375 7.071875 7.13375 7.071875 6.25 6.125 C4.19750179 4.18652947 2.56633418 3.09985751 0 2 C0 1.34 0 0.68 0 0 Z " fill="#11BFF0" transform="translate(130,52)"/>
<path d="M0 0 C0.33 0 0.66 0 1 0 C1.28875 1.0725 1.5775 2.145 1.875 3.25 C2.72820109 6.09400364 3.5636503 8.43508983 5 11 C2.17750049 9.96508351 1.16625774 9.30084735 -0.3125 6.625 C-1.02770914 3.89420147 -0.9659657 2.60810739 0 0 Z " fill="#10BFF0" transform="translate(149,117)"/>
<path d="M0 0 C0.33 0 0.66 0 1 0 C1.1953125 1.98567708 1.390625 3.97135417 1.5859375 5.95703125 C1.92665391 8.29988142 1.92665391 8.29988142 4 11 C2.0625 10.625 2.0625 10.625 0 10 C-1.36952673 7.26094655 -1.12621361 5.02912668 -1 2 C-0.67 1.34 -0.34 0.68 0 0 Z " fill="#07BCED" transform="translate(91,65)"/>
<path d="M0 0 C1.23556641 0.01740234 1.23556641 0.01740234 2.49609375 0.03515625 C3.32238281 0.04417969 4.14867187 0.05320312 5 0.0625 C5.63808594 0.07410156 6.27617187 0.08570312 6.93359375 0.09765625 C6.60359375 0.75765625 6.27359375 1.41765625 5.93359375 2.09765625 C3.05859375 2.84765625 3.05859375 2.84765625 -0.06640625 3.09765625 C-1.05640625 2.43765625 -2.04640625 1.77765625 -3.06640625 1.09765625 C-2.06640625 0.09765625 -2.06640625 0.09765625 0 0 Z " fill="#11B9E3" transform="translate(157.06640625,126.90234375)"/>
<path d="M0 0 C1.45792884 -0.05399736 2.91642712 -0.09279177 4.375 -0.125 C5.18710938 -0.14820313 5.99921875 -0.17140625 6.8359375 -0.1953125 C9 0 9 0 11 2 C6.74938644 3.41687119 4.28148375 2.19320039 0 1 C0 0.67 0 0.34 0 0 Z " fill="#24C4F1" transform="translate(139,134)"/>
<path d="M0 0 C-1.24976756 3.65316671 -1.67098753 4.78065836 -5 7 C-5.99 6.67 -6.98 6.34 -8 6 C-7.34 6 -6.68 6 -6 6 C-6 5.34 -6 4.68 -6 4 C-2.47058824 0 -2.47058824 0 0 0 Z " fill="#14BEED" transform="translate(124,147)"/>
<path d="M0 0 C3.79588866 0.54226981 5.47211993 2.20127563 8 5 C7.67 5.66 7.34 6.32 7 7 C6.21625 6.360625 5.4325 5.72125 4.625 5.0625 C2.20460719 3.01857687 2.20460719 3.01857687 0 2 C0 1.34 0 0.68 0 0 Z " fill="#1EC1F0" transform="translate(189,109)"/>
<path d="M0 0 C3.33727786 1.17255709 5.77437487 2.18868404 8 5 C8 5.66 8 6.32 8 7 C6 7 6 7 4.5625 5.625 C4.046875 5.08875 3.53125 4.5525 3 4 C2.01 3.34 1.02 2.68 0 2 C0 1.34 0 0.68 0 0 Z " fill="#1EC2F0" transform="translate(72,108)"/>
<path d="M0 0 C0.66 0.66 1.32 1.32 2 2 C-0.52788007 4.79872437 -2.20411134 6.45773019 -6 7 C-5 4 -5 4 -3 2.9375 C-2.34 2.628125 -1.68 2.31875 -1 2 C-0.67 1.34 -0.34 0.68 0 0 Z " fill="#1CC2EF" transform="translate(107,173)"/>
<path d="M0 0 C3.465 1.98 3.465 1.98 7 4 C7 4.66 7 5.32 7 6 C2.25 5.25 2.25 5.25 0 3 C0 2.01 0 1.02 0 0 Z " fill="#06BDEF" transform="translate(150,173)"/>
<path d="M0 0 C0.66 0 1.32 0 2 0 C1.34 2.97 0.68 5.94 0 9 C-0.33 9 -0.66 9 -1 9 C-1.09765625 2.84765625 -1.09765625 2.84765625 -1 1 C-0.67 0.67 -0.34 0.34 0 0 Z " fill="#25BDEF" transform="translate(105,139)"/>
<path d="M0 0 C0.99 0.33 1.98 0.66 3 1 C3.6875 3.0625 3.6875 3.0625 4 5 C3.34 5 2.68 5 2 5 C2 6.65 2 8.3 2 10 C1.67 10 1.34 10 1 10 C0.67 6.7 0.34 3.4 0 0 Z " fill="#0BBCEC" transform="translate(165,113)"/>
<path d="M0 0 C2.99324263 1.0975223 3.84610901 1.67682892 5.25 4.625 C5.4975 5.40875 5.745 6.1925 6 7 C5.34 7 4.68 7 4 7 C0 2.52941176 0 2.52941176 0 0 Z " fill="#17C0F0" transform="translate(118,84)"/>
<path d="M0 0 C2.35953094 2.35953094 2.49141413 3.77895617 3 7 C3.99 7.33 4.98 7.66 6 8 C6 8.66 6 9.32 6 10 C3.13367003 8.94901234 2.16993357 8.33137046 0.75 5.5625 C0 3 0 3 0 0 Z " fill="#565E6B" transform="translate(517,77)"/>
<path d="M0 0 C0.33 0 0.66 0 1 0 C1.144375 1.051875 1.28875 2.10375 1.4375 3.1875 C1.87526966 6.15460549 2.37804866 9.06794366 3 12 C0.89366282 10.29171079 0.06198392 9.47851584 -0.29296875 6.73828125 C-0.25816406 5.93777344 -0.22335938 5.13726562 -0.1875 4.3125 C-0.16042969 3.50425781 -0.13335937 2.69601563 -0.10546875 1.86328125 C-0.07066406 1.24839844 -0.03585938 0.63351563 0 0 Z " fill="#2CC5EC" transform="translate(148,64)"/>
</svg>
