<svg width="126" height="73" viewBox="0 0 126 73" fill="none" xmlns="http://www.w3.org/2000/svg">
<g clip-path="url(#clip0_935_1371)">
<path d="M67.8593 22.9285C67.8593 22.9285 67.8593 22.8383 67.9495 22.8383C68.2201 22.207 68.5809 21.6658 68.8515 21.0345C69.6632 19.5914 70.4749 18.2385 71.3769 16.9758C71.467 16.8856 71.5572 16.7954 71.6474 16.615C73.8121 13.6387 76.1571 11.2937 78.4119 9.39962C77.6903 8.22711 76.7884 7.23499 75.8865 6.24287C74.8042 5.16056 73.6317 4.25863 72.369 3.4469C71.1063 4.43902 70.024 5.43114 68.9417 6.60364C68.6711 6.87422 68.4005 7.23499 68.1299 7.50557L68.0397 7.59576L67.9495 7.68596C67.7691 7.86634 67.679 8.04673 67.4986 8.22711C65.6045 10.4819 64.0712 12.9171 62.8987 15.172C62.8085 15.3523 62.7184 15.5327 62.6282 15.6229C62.2674 16.3445 61.9066 16.9758 61.636 17.6973L61.1851 18.6895L59.291 23.5599C59.291 23.6501 59.291 23.8305 59.3812 23.9206C59.5616 25.003 59.742 26.0853 60.0126 27.1676C60.1028 27.6185 60.2832 28.1597 60.3733 28.6107V28.7911V28.8812L60.4635 29.1518C60.6439 29.9636 60.9145 30.7753 61.0949 31.587C62.087 34.9242 63.0791 37.2692 63.1693 37.2692C63.4399 35.7359 63.8007 34.383 64.1614 32.9399C64.2516 32.489 64.432 32.038 64.5222 31.587C65.4241 28.3401 66.5064 25.4539 67.8593 22.9285Z" fill="#FFF"/>
<path d="M81.749 20.4933V20.3129C81.749 16.8856 80.7569 13.6387 79.2236 10.7525C77.3296 12.376 75.4355 14.3602 73.5415 16.9758C73.1807 17.517 72.8199 18.0581 72.369 18.6895C71.5572 19.9522 70.7455 21.3051 70.024 22.8383C69.9338 23.0187 69.8436 23.1991 69.7534 23.3795C69.3926 24.0108 69.122 24.7324 68.8515 25.4539C68.4907 26.3558 68.0397 27.348 67.679 28.3401C67.679 28.4002 67.6489 28.4603 67.5888 28.5205C67.228 29.5126 66.8672 30.5949 66.5065 31.6772C66.0555 33.1203 65.6947 34.5634 65.3339 36.1868C65.2438 36.4574 65.2438 36.728 65.1536 36.9986C64.9732 37.9005 64.7928 38.8024 64.6124 39.6142C64.5222 39.8848 64.5222 40.1553 64.432 40.4259C64.6124 40.4259 64.7928 40.3357 64.9732 40.3357C65.6045 40.2455 66.3261 40.0651 66.9574 39.8848C68.3103 39.524 69.573 39.073 70.7455 38.4417C71.0161 38.2613 71.2867 38.1711 71.5572 37.9907C74.263 36.4574 76.608 34.2928 78.4119 31.6772C80.0354 29.242 81.1177 26.5362 81.6588 23.5599V23.4697C81.749 22.6579 81.8392 21.9364 81.8392 21.1247C81.7791 20.7639 81.749 20.5534 81.749 20.4933Z" fill="#FFF"/>
<path d="M58.5695 33.3007C58.2989 32.3987 57.9381 31.4066 57.6675 30.3243C57.4872 31.8576 57.397 33.1203 57.3068 34.1124C57.3068 34.9241 57.2166 35.5555 57.2166 35.9163C57.1264 36.1868 56.3147 36.6378 55.5029 37.0888H55.4127C55.1422 37.179 54.9618 37.3593 54.6912 37.4495C54.5108 37.0888 54.3304 36.728 54.15 36.3672C53.3383 34.6536 52.6168 32.8497 51.9854 31.136C51.805 30.6851 51.6246 30.1439 51.5344 29.693C51.1737 28.6106 50.9031 27.6185 50.6325 26.5362C50.3619 25.7245 50.1816 24.9127 50.0012 24.101C50.0012 23.9206 49.911 23.8304 49.911 23.65C49.5502 21.9364 49.1894 20.2227 49.0091 18.7796C49.0091 18.5993 49.009 18.5091 48.9189 18.3287C48.5581 15.2621 48.4679 12.7367 48.4679 11.1133C48.4679 10.2113 48.5581 9.57998 48.6483 9.21921C48.9189 8.67806 50.9933 7.23497 50.9933 7.23497C50.9031 8.40748 50.8129 9.67018 50.8129 10.8427C50.8129 11.474 50.8129 12.1956 50.9031 12.8269C50.9933 13.9092 50.9933 14.9014 51.1737 15.9837C51.2639 16.7954 51.3541 17.5169 51.4443 18.2385C51.6246 19.2306 51.805 20.1325 51.9854 21.0345C52.1658 21.9364 52.3462 22.7481 52.6168 23.65C52.8873 24.8226 53.2481 25.9951 53.6089 26.9872C53.9696 27.9793 54.2402 28.8812 54.601 29.6028C54.8716 30.4145 55.2323 31.0459 55.4127 31.587C55.5029 30.9557 55.6833 30.2341 55.7735 29.6028C55.8637 29.1518 55.9539 28.6106 56.0441 28.1597C56.2245 27.2578 56.495 26.3558 56.6754 25.5441C56.6754 25.4539 56.7656 25.3637 56.7656 25.2735C56.6754 24.7324 56.5852 24.1912 56.5852 23.7402C56.4049 22.4775 56.4049 21.305 56.3147 20.2227V18.0581C56.3147 16.9758 56.4049 15.9837 56.495 15.0817C56.7656 11.925 57.397 10.1211 57.4872 10.0309L57.5774 9.94076C57.8479 9.67018 58.5695 9.21921 59.1106 8.94864C59.4714 8.76825 59.6518 8.58786 59.6518 8.58786C59.6518 8.67806 59.5616 8.76825 59.5616 8.94864C59.2008 10.3917 59.0204 11.8348 58.8401 13.2779C58.7499 13.9092 58.7499 14.5406 58.7499 15.1719V16.2542C58.7499 17.2464 58.7499 18.2385 58.8401 19.2306C59.291 18.2385 59.6518 17.2464 60.1028 16.3444C60.2831 15.9837 60.4635 15.5327 60.6439 15.1719C60.9145 14.5406 61.2753 13.9092 61.636 13.3681C62.538 11.7446 63.4399 10.3015 64.3418 9.03883C64.5222 8.76825 64.7026 8.49767 64.883 8.31729C65.6045 7.32517 66.3261 6.42324 67.1378 5.6115C67.4084 5.25073 67.7691 4.88996 68.0397 4.61938C68.8514 3.80765 69.573 3.08611 70.3847 2.45476C69.2122 1.9136 67.9495 1.37245 66.5966 1.10187C66.1457 1.01168 65.6045 0.831291 65.1535 0.741098C65.0634 0.741098 64.883 0.650905 64.7928 0.650905H64.5222C63.981 0.560713 63.4399 0.560713 62.8987 0.47052H61.0949C59.6518 0.47052 58.1185 0.741098 56.7656 1.01168C56.4049 1.10187 56.1343 1.19206 55.7735 1.28225C53.8795 1.82341 52.1658 2.72534 50.5423 3.71746H50.3619L50.2717 3.80765L50.1816 3.89784C48.9189 4.79977 47.7464 5.79189 46.664 6.9644C45.7621 7.95652 44.9504 9.03883 44.2288 10.3015C42.425 13.2779 41.4329 16.7954 41.4329 20.4933C41.4329 21.6658 41.5231 22.8383 41.7034 23.9206C41.7936 24.552 41.974 25.1833 42.1544 25.7245C42.9661 28.4303 44.319 30.8655 46.0327 32.9399C46.3935 33.3909 46.7542 33.7516 47.115 34.1124C48.8287 35.8261 50.8129 37.179 52.9775 38.1711C53.7893 38.5318 54.6912 38.8926 55.5931 39.1632C55.7735 39.2534 56.0441 39.2534 56.2245 39.3436C57.3068 39.6142 58.3891 39.7945 59.4714 39.8847C59.9224 39.8847 60.3733 39.9749 60.8243 39.9749C60.5537 39.073 59.5616 36.6378 58.5695 33.3007Z" fill="#FFF"/>
<path d="M0.575562 49.1746H2.19903L4.81462 56.841L8.51252 48.7236L12.03 56.841L14.7358 49.1746H16.4495L12.3908 61.2604L8.51252 52.6921L4.54404 61.2604L0.575562 49.1746Z" fill="#FFF"/>
<path d="M20.6885 49.1746H22.312V60.7192H20.6885V49.1746Z" fill="#FFF"/>
<path d="M27.7236 48.6334L36.3821 57.2919V49.0844H37.9153V61.1702L29.347 52.5117V60.7192H27.7236V48.6334Z" fill="#FFF"/>
<path d="M43.2367 49.0844H47.2954C51.3541 49.0844 53.6991 51.5196 53.6991 54.9469C53.6991 58.3743 51.3541 60.7193 47.3856 60.7193H43.3269V49.0844H43.2367ZM47.2052 59.186C50.5423 59.186 52.0756 57.3821 52.0756 54.8567C52.0756 52.3313 50.5423 50.5275 47.2052 50.5275H44.8602V59.0958H47.2052V59.186Z" fill="#FFF"/>
<path d="M67.1378 48.904C68.9417 48.904 70.5651 49.6255 71.5572 50.8882L70.4749 51.8804C69.6632 50.9784 68.4907 50.4373 67.1378 50.4373C64.5222 50.4373 62.7184 52.4215 62.7184 55.0371C62.7184 57.6527 64.6124 59.6369 67.1378 59.6369C68.5809 59.6369 69.7534 59.0056 70.5651 58.1037L71.6474 59.0958C70.6553 60.3585 68.9417 61.08 67.1378 61.08C63.8007 61.08 61.0949 58.5546 61.0949 55.0371C61.0949 51.4294 63.8007 48.904 67.1378 48.904Z" fill="#FFF"/>
<path d="M75.7963 49.1746H80.1255C82.2 49.1746 83.8235 50.7078 83.8235 52.6921C83.8235 54.2254 82.8313 55.4881 81.4784 56.0292L84.4548 60.7192H82.6509L79.9452 56.2998H77.4198V60.7192H75.7963V49.1746ZM79.9452 54.8567C81.2981 54.8567 82.2902 53.9548 82.2902 52.6921C82.2902 51.5196 81.3882 50.6176 80.1255 50.6176H77.51V54.8567H79.9452Z" fill="#FFF"/>
<path d="M88.784 49.1746H95.4583V50.6176H90.3173V53.8646H95.0975V55.3077H90.3173V59.186H95.5485V60.629H88.6938V49.1746H88.784Z" fill="#FFF"/>
<path d="M100.329 49.1746H107.003V50.6176H101.862V53.8646H106.642V55.3077H101.862V59.186H107.093V60.629H100.239V49.1746H100.329Z" fill="#FFF"/>
<path d="M111.873 49.1746H113.497V54.8567L119.089 49.1746H121.163L116.293 54.2254L121.344 60.7192H119.45L115.301 55.3077L113.677 57.0213V60.7192H112.054V49.1746H111.873Z" fill="#FFF"/>
<path d="M122.426 50.3471C122.426 49.5353 123.057 48.904 123.869 48.904C124.681 48.904 125.402 49.5353 125.402 50.3471C125.402 51.1588 124.771 51.7902 123.869 51.7902C123.057 51.7902 122.426 51.249 122.426 50.3471ZM125.042 50.3471C125.042 49.6255 124.5 49.1746 123.869 49.1746C123.238 49.1746 122.697 49.6255 122.697 50.3471C122.697 51.0686 123.238 51.5196 123.869 51.5196C124.591 51.5196 125.042 51.0686 125.042 50.3471ZM123.328 49.4451H123.959C124.32 49.4451 124.5 49.6255 124.5 49.9863C124.5 50.1667 124.41 50.3471 124.23 50.4373L124.591 51.0686H124.23L123.869 50.4373H123.689V51.0686H123.328V49.4451ZM123.959 50.2569C124.14 50.2569 124.23 50.1667 124.23 49.9863C124.23 49.8059 124.14 49.7157 123.959 49.7157H123.689V50.2569H123.959Z" fill="#FFF"/>
<path d="M27.5432 65.7701H28.7157V68.2053H31.7822V65.7701H32.8646V72.0836H31.7822V69.2876H28.7157V72.0836H27.5432V65.7701Z" fill="#FFF"/>
<path d="M38.5467 65.6799C40.4407 65.6799 41.8838 67.123 41.8838 68.9268C41.8838 70.8209 40.4407 72.1737 38.5467 72.1737C36.6526 72.1737 35.2096 70.7307 35.2096 68.9268C35.2096 67.0328 36.7428 65.6799 38.5467 65.6799ZM38.5467 71.1816C39.8094 71.1816 40.8015 70.1895 40.8015 68.9268C40.8015 67.6641 39.8094 66.672 38.5467 66.672C37.284 66.672 36.2919 67.6641 36.2919 68.9268C36.3821 70.1895 37.284 71.1816 38.5467 71.1816Z" fill="#FFF"/>
<path d="M43.8681 70.3699C44.4092 70.911 45.0406 71.1816 45.9425 71.1816C46.7542 71.1816 47.115 70.8208 47.115 70.3699C47.115 69.8287 46.664 69.5581 45.6719 69.1974C44.77 68.8366 43.9583 68.2954 43.9583 67.3033C43.9583 66.221 44.8602 65.5897 46.1229 65.5897C46.7542 65.5897 47.2052 65.77 47.6562 66.0406V67.2131C47.2052 66.8524 46.7542 66.672 46.1229 66.672C45.4915 66.672 45.1308 66.9426 45.1308 67.3033C45.1308 67.8445 45.7621 68.0249 46.4837 68.3856C47.6562 68.9268 48.1973 69.3778 48.1973 70.3699C48.1973 71.362 47.3856 72.1737 45.9425 72.1737C45.0406 72.1737 44.4092 71.9032 43.8681 71.5424V70.3699Z" fill="#FFF"/>
<path d="M50.5423 65.7701H52.9775C53.9696 65.7701 55.052 66.5818 55.052 67.8445C55.052 69.017 54.0598 69.9189 52.9775 69.9189H51.7148V72.1738H50.5423V65.7701ZM52.9775 68.8366C53.4285 68.8366 53.9697 68.4759 53.9697 67.8445C53.9697 67.123 53.4285 66.8524 52.9775 66.8524H51.7148V68.9268H52.9775V68.8366Z" fill="#FFF"/>
<path d="M57.397 65.7701H58.5695V72.0836H57.397V65.7701Z" fill="#FFF"/>
<path d="M62.4478 66.7622H60.7341V65.7701H65.3339V66.7622H63.6203V72.0836H62.4478V66.7622Z" fill="#FFF"/>
<path d="M69.3024 65.4093L72.4592 72.0836H71.2867L70.7455 70.8209H68.0397L67.4084 72.0836H66.2359L69.3024 65.4093ZM70.2043 69.9189L69.3024 67.8445L68.4005 69.9189H70.2043Z" fill="#FFF"/>
<path d="M74.6238 65.7701H75.7963V71.0915H78.2315V72.0836H74.6238V65.7701Z" fill="#FFF"/>
<path d="M80.5765 65.7701H81.749V72.0836H80.5765V65.7701Z" fill="#FFF"/>
<path d="M85.6273 66.7622H83.9136V65.7701H88.5135V66.7622H86.7998V72.0836H85.6273V66.7622Z" fill="#FFF"/>
<path d="M92.3918 69.6484L90.1369 65.7701H91.3996L93.0231 68.5661L94.6466 65.7701H95.8191L93.5643 69.6484V72.0836H92.482V69.6484H92.3918Z" fill="#FFF"/>
</g>
<defs>
<clipPath id="clip0_935_1371">
<rect width="124.827" height="71.7032" fill="white" transform="translate(0.575562 0.47052)"/>
</clipPath>
</defs>
</svg>
